  0
SECTION
  2
HEADER
  9
$ACADVER
  1
AC1009
  9
$FILLMODE
 70
 0
  9
$SPLFRAME
 70
 1
  9
$EXTMIN
 10
0
 20
0
 30
0.0
  9
$EXTMAX
 10
1058.33
 20
1058.33
 30
0.0
  0
ENDSEC
  0
SECTION
  2
TABLES
  0
TABLE
  2
LAYER
 70
1
  0
LAYER
  2
0
 70
     0
 62
     7
  6
CONTINUOUS
  0
ENDTAB
  0
ENDSEC
  0
SECTION
  2
ENTITIES
  0
LINE
  8
0
 62
     0
 10
284.47
 20
95.1548
 30
0.0
 11
284.548
 21
95.1523
 31
0.0
  0
LINE
  8
0
 62
     0
 10
284.548
 20
95.1523
 30
0.0
 11
284.627
 21
95.1424
 31
0.0
  0
LINE
  8
0
 62
     0
 10
284.627
 20
95.1424
 30
0.0
 11
284.704
 21
95.1272
 31
0.0
  0
LINE
  8
0
 62
     0
 10
284.704
 20
95.1272
 30
0.0
 11
284.78
 21
95.1068
 31
0.0
  0
LINE
  8
0
 62
     0
 10
284.78
 20
95.1068
 30
0.0
 11
284.853
 21
95.0793
 31
0.0
  0
LINE
  8
0
 62
     0
 10
284.853
 20
95.0793
 30
0.0
 11
284.923
 21
95.0461
 31
0.0
  0
LINE
  8
0
 62
     0
 10
284.923
 20
95.0461
 30
0.0
 11
284.993
 21
95.0076
 31
0.0
  0
LINE
  8
0
 62
     0
 10
284.993
 20
95.0076
 30
0.0
 11
285.057
 21
94.9646
 31
0.0
  0
LINE
  8
0
 62
     0
 10
285.057
 20
94.9646
 30
0.0
 11
285.119
 21
94.9152
 31
0.0
  0
LINE
  8
0
 62
     0
 10
285.119
 20
94.9152
 30
0.0
 11
285.178
 21
94.8627
 31
0.0
  0
LINE
  8
0
 62
     0
 10
285.178
 20
94.8627
 30
0.0
 11
285.232
 21
94.8048
 31
0.0
  0
LINE
  8
0
 62
     0
 10
285.232
 20
94.8048
 30
0.0
 11
285.28
 21
94.7431
 31
0.0
  0
LINE
  8
0
 62
     0
 10
285.28
 20
94.7431
 30
0.0
 11
285.323
 21
94.6781
 31
0.0
  0
LINE
  8
0
 62
     0
 10
285.323
 20
94.6781
 30
0.0
 11
285.361
 21
94.6079
 31
0.0
  0
LINE
  8
0
 62
     0
 10
285.361
 20
94.6079
 30
0.0
 11
285.393
 21
94.5374
 31
0.0
  0
LINE
  8
0
 62
     0
 10
285.393
 20
94.5374
 30
0.0
 11
285.422
 21
94.4644
 31
0.0
  0
LINE
  8
0
 62
     0
 10
285.422
 20
94.4644
 30
0.0
 11
285.443
 21
94.3889
 31
0.0
  0
LINE
  8
0
 62
     0
 10
285.443
 20
94.3889
 30
0.0
 11
285.458
 21
94.3116
 31
0.0
  0
LINE
  8
0
 62
     0
 10
285.458
 20
94.3116
 30
0.0
 11
285.466
 21
94.2329
 31
0.0
  0
LINE
  8
0
 62
     0
 10
285.466
 20
94.2329
 30
0.0
 11
285.47
 21
94.1546
 31
0.0
  0
LINE
  8
0
 62
     0
 10
285.47
 20
94.1546
 30
0.0
 11
285.47
 21
39.9919
 31
0.0
  0
LINE
  8
0
 62
     0
 10
285.47
 20
39.9919
 30
0.0
 11
280.97
 21
39.9919
 31
0.0
  0
LINE
  8
0
 62
     0
 10
280.97
 20
39.9919
 30
0.0
 11
280.505
 21
39.9189
 31
0.0
  0
LINE
  8
0
 62
     0
 10
280.505
 20
39.9189
 30
0.0
 11
280.088
 21
39.7055
 31
0.0
  0
LINE
  8
0
 62
     0
 10
280.088
 20
39.7055
 30
0.0
 11
279.757
 21
39.3732
 31
0.0
  0
LINE
  8
0
 62
     0
 10
279.757
 20
39.3732
 30
0.0
 11
279.543
 21
38.9573
 31
0.0
  0
LINE
  8
0
 62
     0
 10
279.543
 20
38.9573
 30
0.0
 11
279.47
 21
38.4926
 31
0.0
  0
LINE
  8
0
 62
     0
 10
279.47
 20
38.4926
 30
0.0
 11
279.543
 21
38.027
 31
0.0
  0
LINE
  8
0
 62
     0
 10
279.543
 20
38.027
 30
0.0
 11
279.757
 21
37.6079
 31
0.0
  0
LINE
  8
0
 62
     0
 10
279.757
 20
37.6079
 30
0.0
 11
280.088
 21
37.2787
 31
0.0
  0
LINE
  8
0
 62
     0
 10
280.088
 20
37.2787
 30
0.0
 11
280.505
 21
37.065
 31
0.0
  0
LINE
  8
0
 62
     0
 10
280.505
 20
37.065
 30
0.0
 11
280.97
 21
36.9919
 31
0.0
  0
LINE
  8
0
 62
     0
 10
280.97
 20
36.9919
 30
0.0
 11
285.47
 21
36.9919
 31
0.0
  0
LINE
  8
0
 62
     0
 10
285.47
 20
36.9919
 30
0.0
 11
285.47
 21
1.22783
 31
0.0
  0
LINE
  8
0
 62
     0
 10
285.47
 20
1.22783
 30
0.0
 11
285.466
 21
1.14928
 31
0.0
  0
LINE
  8
0
 62
     0
 10
285.466
 20
1.14928
 30
0.0
 11
285.458
 21
1.07211
 31
0.0
  0
LINE
  8
0
 62
     0
 10
285.458
 20
1.07211
 30
0.0
 11
285.443
 21
0.994943
 31
0.0
  0
LINE
  8
0
 62
     0
 10
285.443
 20
0.994943
 30
0.0
 11
285.422
 21
0.919152
 31
0.0
  0
LINE
  8
0
 62
     0
 10
285.422
 20
0.919152
 30
0.0
 11
285.393
 21
0.846116
 31
0.0
  0
LINE
  8
0
 62
     0
 10
285.393
 20
0.846116
 30
0.0
 11
285.361
 21
0.774457
 31
0.0
  0
LINE
  8
0
 62
     0
 10
285.361
 20
0.774457
 30
0.0
 11
285.323
 21
0.706935
 31
0.0
  0
LINE
  8
0
 62
     0
 10
285.323
 20
0.706935
 30
0.0
 11
285.28
 21
0.640789
 31
0.0
  0
LINE
  8
0
 62
     0
 10
285.28
 20
0.640789
 30
0.0
 11
285.232
 21
0.578778
 31
0.0
  0
LINE
  8
0
 62
     0
 10
285.232
 20
0.578778
 30
0.0
 11
285.178
 21
0.520898
 31
0.0
  0
LINE
  8
0
 62
     0
 10
285.178
 20
0.520898
 30
0.0
 11
285.119
 21
0.467155
 31
0.0
  0
LINE
  8
0
 62
     0
 10
285.119
 20
0.467155
 30
0.0
 11
285.057
 21
0.418924
 31
0.0
  0
LINE
  8
0
 62
     0
 10
285.057
 20
0.418924
 30
0.0
 11
284.993
 21
0.374826
 31
0.0
  0
LINE
  8
0
 62
     0
 10
284.993
 20
0.374826
 30
0.0
 11
284.923
 21
0.337619
 31
0.0
  0
LINE
  8
0
 62
     0
 10
284.923
 20
0.337619
 30
0.0
 11
284.853
 21
0.304546
 31
0.0
  0
LINE
  8
0
 62
     0
 10
284.853
 20
0.304546
 30
0.0
 11
284.78
 21
0.276986
 31
0.0
  0
LINE
  8
0
 62
     0
 10
284.78
 20
0.276986
 30
0.0
 11
284.704
 21
0.256315
 31
0.0
  0
LINE
  8
0
 62
     0
 10
284.704
 20
0.256315
 30
0.0
 11
284.627
 21
0.241157
 31
0.0
  0
LINE
  8
0
 62
     0
 10
284.627
 20
0.241157
 30
0.0
 11
284.548
 21
0.232888
 31
0.0
  0
LINE
  8
0
 62
     0
 10
284.548
 20
0.232888
 30
0.0
 11
284.47
 21
0.227376
 31
0.0
  0
LINE
  8
0
 62
     0
 10
284.47
 20
0.227376
 30
0.0
 11
1.09554
 21
0.227376
 31
0.0
  0
LINE
  8
0
 62
     0
 10
1.09554
 20
0.227376
 30
0.0
 11
1.01699
 21
0.232888
 31
0.0
  0
LINE
  8
0
 62
     0
 10
1.01699
 20
0.232888
 30
0.0
 11
0.938445
 21
0.241157
 31
0.0
  0
LINE
  8
0
 62
     0
 10
0.938445
 20
0.241157
 30
0.0
 11
0.861275
 21
0.256315
 31
0.0
  0
LINE
  8
0
 62
     0
 10
0.861275
 20
0.256315
 30
0.0
 11
0.785481
 21
0.276986
 31
0.0
  0
LINE
  8
0
 62
     0
 10
0.785481
 20
0.276986
 30
0.0
 11
0.712445
 21
0.304546
 31
0.0
  0
LINE
  8
0
 62
     0
 10
0.712445
 20
0.304546
 30
0.0
 11
0.642165
 21
0.337619
 31
0.0
  0
LINE
  8
0
 62
     0
 10
0.642165
 20
0.337619
 30
0.0
 11
0.571885
 21
0.374826
 31
0.0
  0
LINE
  8
0
 62
     0
 10
0.571885
 20
0.374826
 30
0.0
 11
0.507118
 21
0.418924
 31
0.0
  0
LINE
  8
0
 62
     0
 10
0.507118
 20
0.418924
 30
0.0
 11
0.445107
 21
0.467155
 31
0.0
  0
LINE
  8
0
 62
     0
 10
0.445107
 20
0.467155
 30
0.0
 11
0.38723
 21
0.520898
 31
0.0
  0
LINE
  8
0
 62
     0
 10
0.38723
 20
0.520898
 30
0.0
 11
0.334863
 21
0.578778
 31
0.0
  0
LINE
  8
0
 62
     0
 10
0.334863
 20
0.578778
 30
0.0
 11
0.285254
 21
0.640789
 31
0.0
  0
LINE
  8
0
 62
     0
 10
0.285254
 20
0.640789
 30
0.0
 11
0.242535
 21
0.706935
 31
0.0
  0
LINE
  8
0
 62
     0
 10
0.242535
 20
0.706935
 30
0.0
 11
0.20395
 21
0.774457
 31
0.0
  0
LINE
  8
0
 62
     0
 10
0.20395
 20
0.774457
 30
0.0
 11
0.170877
 21
0.846116
 31
0.0
  0
LINE
  8
0
 62
     0
 10
0.170877
 20
0.846116
 30
0.0
 11
0.143316
 21
0.919152
 31
0.0
  0
LINE
  8
0
 62
     0
 10
0.143316
 20
0.919152
 30
0.0
 11
0.122645
 21
0.994943
 31
0.0
  0
LINE
  8
0
 62
     0
 10
0.122645
 20
0.994943
 30
0.0
 11
0.107487
 21
1.07211
 31
0.0
  0
LINE
  8
0
 62
     0
 10
0.107487
 20
1.07211
 30
0.0
 11
0.0978408
 21
1.14928
 31
0.0
  0
LINE
  8
0
 62
     0
 10
0.0978408
 20
1.14928
 30
0.0
 11
0.0950846
 21
1.22921
 31
0.0
  0
LINE
  8
0
 62
     0
 10
0.0950846
 20
1.22921
 30
0.0
 11
0.0950846
 21
36.9919
 31
0.0
  0
LINE
  8
0
 62
     0
 10
0.0950846
 20
36.9919
 30
0.0
 11
4.59715
 21
36.9919
 31
0.0
  0
LINE
  8
0
 62
     0
 10
4.59715
 20
36.9919
 30
0.0
 11
5.06017
 21
37.065
 31
0.0
  0
LINE
  8
0
 62
     0
 10
5.06017
 20
37.065
 30
0.0
 11
5.47769
 21
37.2787
 31
0.0
  0
LINE
  8
0
 62
     0
 10
5.47769
 20
37.2787
 30
0.0
 11
5.80842
 21
37.6079
 31
0.0
  0
LINE
  8
0
 62
     0
 10
5.80842
 20
37.6079
 30
0.0
 11
6.02202
 21
38.027
 31
0.0
  0
LINE
  8
0
 62
     0
 10
6.02202
 20
38.027
 30
0.0
 11
6.09505
 21
38.4912
 31
0.0
  0
LINE
  8
0
 62
     0
 10
6.09505
 20
38.4912
 30
0.0
 11
6.09505
 21
38.4926
 31
0.0
  0
LINE
  8
0
 62
     0
 10
6.09505
 20
38.4926
 30
0.0
 11
6.02202
 21
38.9573
 31
0.0
  0
LINE
  8
0
 62
     0
 10
6.02202
 20
38.9573
 30
0.0
 11
5.80842
 21
39.3732
 31
0.0
  0
LINE
  8
0
 62
     0
 10
5.80842
 20
39.3732
 30
0.0
 11
5.47769
 21
39.7055
 31
0.0
  0
LINE
  8
0
 62
     0
 10
5.47769
 20
39.7055
 30
0.0
 11
5.06017
 21
39.9189
 31
0.0
  0
LINE
  8
0
 62
     0
 10
5.06017
 20
39.9189
 30
0.0
 11
4.59715
 21
39.9919
 31
0.0
  0
LINE
  8
0
 62
     0
 10
4.59715
 20
39.9919
 30
0.0
 11
0.0950846
 21
39.9919
 31
0.0
  0
LINE
  8
0
 62
     0
 10
0.0950846
 20
39.9919
 30
0.0
 11
0.0950846
 21
94.1546
 31
0.0
  0
LINE
  8
0
 62
     0
 10
0.0950846
 20
94.1546
 30
0.0
 11
0.0978408
 21
94.2329
 31
0.0
  0
LINE
  8
0
 62
     0
 10
0.0978408
 20
94.2329
 30
0.0
 11
0.107487
 21
94.3116
 31
0.0
  0
LINE
  8
0
 62
     0
 10
0.107487
 20
94.3116
 30
0.0
 11
0.122645
 21
94.3889
 31
0.0
  0
LINE
  8
0
 62
     0
 10
0.122645
 20
94.3889
 30
0.0
 11
0.143316
 21
94.4644
 31
0.0
  0
LINE
  8
0
 62
     0
 10
0.143316
 20
94.4644
 30
0.0
 11
0.170877
 21
94.5374
 31
0.0
  0
LINE
  8
0
 62
     0
 10
0.170877
 20
94.5374
 30
0.0
 11
0.20395
 21
94.6079
 31
0.0
  0
LINE
  8
0
 62
     0
 10
0.20395
 20
94.6079
 30
0.0
 11
0.242535
 21
94.6781
 31
0.0
  0
LINE
  8
0
 62
     0
 10
0.242535
 20
94.6781
 30
0.0
 11
0.285254
 21
94.7431
 31
0.0
  0
LINE
  8
0
 62
     0
 10
0.285254
 20
94.7431
 30
0.0
 11
0.334863
 21
94.8048
 31
0.0
  0
LINE
  8
0
 62
     0
 10
0.334863
 20
94.8048
 30
0.0
 11
0.38723
 21
94.8627
 31
0.0
  0
LINE
  8
0
 62
     0
 10
0.38723
 20
94.8627
 30
0.0
 11
0.445107
 21
94.9152
 31
0.0
  0
LINE
  8
0
 62
     0
 10
0.445107
 20
94.9152
 30
0.0
 11
0.507118
 21
94.9646
 31
0.0
  0
LINE
  8
0
 62
     0
 10
0.507118
 20
94.9646
 30
0.0
 11
0.571885
 21
95.0076
 31
0.0
  0
LINE
  8
0
 62
     0
 10
0.571885
 20
95.0076
 30
0.0
 11
0.642165
 21
95.0461
 31
0.0
  0
LINE
  8
0
 62
     0
 10
0.642165
 20
95.0461
 30
0.0
 11
0.712445
 21
95.0793
 31
0.0
  0
LINE
  8
0
 62
     0
 10
0.712445
 20
95.0793
 30
0.0
 11
0.785481
 21
95.1068
 31
0.0
  0
LINE
  8
0
 62
     0
 10
0.785481
 20
95.1068
 30
0.0
 11
0.861275
 21
95.1272
 31
0.0
  0
LINE
  8
0
 62
     0
 10
0.861275
 20
95.1272
 30
0.0
 11
0.938445
 21
95.1424
 31
0.0
  0
LINE
  8
0
 62
     0
 10
0.938445
 20
95.1424
 30
0.0
 11
1.01699
 21
95.1523
 31
0.0
  0
LINE
  8
0
 62
     0
 10
1.01699
 20
95.1523
 30
0.0
 11
1.09554
 21
95.1548
 31
0.0
  0
LINE
  8
0
 62
     0
 10
1.09554
 20
95.1548
 30
0.0
 11
284.47
 21
95.1548
 31
0.0
  0
LINE
  8
0
 62
     0
 10
90.5386
 20
16.593
 30
0.0
 11
90.5386
 21
15.5925
 31
0.0
  0
LINE
  8
0
 62
     0
 10
90.5386
 20
15.5925
 30
0.0
 11
89.7378
 21
15.5925
 31
0.0
  0
LINE
  8
0
 62
     0
 10
89.7378
 20
15.5925
 30
0.0
 11
89.7378
 21
12.4919
 31
0.0
  0
LINE
  8
0
 62
     0
 10
89.7378
 20
12.4919
 30
0.0
 11
90.5386
 21
12.4919
 31
0.0
  0
LINE
  8
0
 62
     0
 10
90.5386
 20
12.4919
 30
0.0
 11
90.5386
 21
11.8925
 31
0.0
  0
LINE
  8
0
 62
     0
 10
90.5386
 20
11.8925
 30
0.0
 11
89.0129
 21
11.8925
 31
0.0
  0
LINE
  8
0
 62
     0
 10
89.0129
 20
11.8925
 30
0.0
 11
89.0129
 21
15.1226
 31
0.0
  0
LINE
  8
0
 62
     0
 10
89.0129
 20
15.1226
 30
0.0
 11
87.2892
 21
15.1226
 31
0.0
  0
LINE
  8
0
 62
     0
 10
87.2892
 20
15.1226
 30
0.0
 11
87.2892
 21
16.0431
 31
0.0
  0
LINE
  8
0
 62
     0
 10
87.2892
 20
16.0431
 30
0.0
 11
83.9886
 21
16.0431
 31
0.0
  0
LINE
  8
0
 62
     0
 10
83.9886
 20
16.0431
 30
0.0
 11
83.9886
 21
15.1226
 31
0.0
  0
LINE
  8
0
 62
     0
 10
83.9886
 20
15.1226
 30
0.0
 11
82.2635
 21
15.1226
 31
0.0
  0
LINE
  8
0
 62
     0
 10
82.2635
 20
15.1226
 30
0.0
 11
82.2635
 21
11.8925
 31
0.0
  0
LINE
  8
0
 62
     0
 10
82.2635
 20
11.8925
 30
0.0
 11
81.438
 21
11.8925
 31
0.0
  0
LINE
  8
0
 62
     0
 10
81.438
 20
11.8925
 30
0.0
 11
81.438
 21
9.09228
 31
0.0
  0
LINE
  8
0
 62
     0
 10
81.438
 20
9.09228
 30
0.0
 11
82.2635
 21
9.09228
 31
0.0
  0
LINE
  8
0
 62
     0
 10
82.2635
 20
9.09228
 30
0.0
 11
82.2635
 21
2.82222
 31
0.0
  0
LINE
  8
0
 62
     0
 10
82.2635
 20
2.82222
 30
0.0
 11
83.9886
 21
2.82222
 31
0.0
  0
LINE
  8
0
 62
     0
 10
83.9886
 20
2.82222
 30
0.0
 11
83.9886
 21
1.84244
 31
0.0
  0
LINE
  8
0
 62
     0
 10
83.9886
 20
1.84244
 30
0.0
 11
87.2892
 21
1.84244
 31
0.0
  0
LINE
  8
0
 62
     0
 10
87.2892
 20
1.84244
 30
0.0
 11
87.2892
 21
2.82222
 31
0.0
  0
LINE
  8
0
 62
     0
 10
87.2892
 20
2.82222
 30
0.0
 11
89.0129
 21
2.82222
 31
0.0
  0
LINE
  8
0
 62
     0
 10
89.0129
 20
2.82222
 30
0.0
 11
89.0129
 21
7.29259
 31
0.0
  0
LINE
  8
0
 62
     0
 10
89.0129
 20
7.29259
 30
0.0
 11
90.5386
 21
7.29259
 31
0.0
  0
LINE
  8
0
 62
     0
 10
90.5386
 20
7.29259
 30
0.0
 11
90.5386
 21
6.69177
 31
0.0
  0
LINE
  8
0
 62
     0
 10
90.5386
 20
6.69177
 30
0.0
 11
89.7378
 21
6.69177
 31
0.0
  0
LINE
  8
0
 62
     0
 10
89.7378
 20
6.69177
 30
0.0
 11
89.7378
 21
3.59255
 31
0.0
  0
LINE
  8
0
 62
     0
 10
89.7378
 20
3.59255
 30
0.0
 11
90.5386
 21
3.59255
 31
0.0
  0
LINE
  8
0
 62
     0
 10
90.5386
 20
3.59255
 30
0.0
 11
90.5386
 21
2.59209
 31
0.0
  0
LINE
  8
0
 62
     0
 10
90.5386
 20
2.59209
 30
0.0
 11
104.538
 21
2.59209
 31
0.0
  0
LINE
  8
0
 62
     0
 10
104.538
 20
2.59209
 30
0.0
 11
104.538
 21
3.59255
 31
0.0
  0
LINE
  8
0
 62
     0
 10
104.538
 20
3.59255
 30
0.0
 11
105.337
 21
3.59255
 31
0.0
  0
LINE
  8
0
 62
     0
 10
105.337
 20
3.59255
 30
0.0
 11
105.337
 21
6.69177
 31
0.0
  0
LINE
  8
0
 62
     0
 10
105.337
 20
6.69177
 30
0.0
 11
104.538
 21
6.69177
 31
0.0
  0
LINE
  8
0
 62
     0
 10
104.538
 20
6.69177
 30
0.0
 11
104.538
 21
7.29259
 31
0.0
  0
LINE
  8
0
 62
     0
 10
104.538
 20
7.29259
 30
0.0
 11
106.063
 21
7.29259
 31
0.0
  0
LINE
  8
0
 62
     0
 10
106.063
 20
7.29259
 30
0.0
 11
106.063
 21
2.82222
 31
0.0
  0
LINE
  8
0
 62
     0
 10
106.063
 20
2.82222
 30
0.0
 11
107.789
 21
2.82222
 31
0.0
  0
LINE
  8
0
 62
     0
 10
107.789
 20
2.82222
 30
0.0
 11
107.789
 21
1.84244
 31
0.0
  0
LINE
  8
0
 62
     0
 10
107.789
 20
1.84244
 30
0.0
 11
111.088
 21
1.84244
 31
0.0
  0
LINE
  8
0
 62
     0
 10
111.088
 20
1.84244
 30
0.0
 11
111.088
 21
2.82222
 31
0.0
  0
LINE
  8
0
 62
     0
 10
111.088
 20
2.82222
 30
0.0
 11
112.813
 21
2.82222
 31
0.0
  0
LINE
  8
0
 62
     0
 10
112.813
 20
2.82222
 30
0.0
 11
112.813
 21
9.09228
 31
0.0
  0
LINE
  8
0
 62
     0
 10
112.813
 20
9.09228
 30
0.0
 11
113.639
 21
9.09228
 31
0.0
  0
LINE
  8
0
 62
     0
 10
113.639
 20
9.09228
 30
0.0
 11
113.639
 21
11.8925
 31
0.0
  0
LINE
  8
0
 62
     0
 10
113.639
 20
11.8925
 30
0.0
 11
112.813
 21
11.8925
 31
0.0
  0
LINE
  8
0
 62
     0
 10
112.813
 20
11.8925
 30
0.0
 11
112.813
 21
15.1226
 31
0.0
  0
LINE
  8
0
 62
     0
 10
112.813
 20
15.1226
 30
0.0
 11
111.088
 21
15.1226
 31
0.0
  0
LINE
  8
0
 62
     0
 10
111.088
 20
15.1226
 30
0.0
 11
111.088
 21
16.0431
 31
0.0
  0
LINE
  8
0
 62
     0
 10
111.088
 20
16.0431
 30
0.0
 11
107.789
 21
16.0431
 31
0.0
  0
LINE
  8
0
 62
     0
 10
107.789
 20
16.0431
 30
0.0
 11
107.789
 21
15.1226
 31
0.0
  0
LINE
  8
0
 62
     0
 10
107.789
 20
15.1226
 30
0.0
 11
106.063
 21
15.1226
 31
0.0
  0
LINE
  8
0
 62
     0
 10
106.063
 20
15.1226
 30
0.0
 11
106.063
 21
11.8925
 31
0.0
  0
LINE
  8
0
 62
     0
 10
106.063
 20
11.8925
 30
0.0
 11
104.538
 21
11.8925
 31
0.0
  0
LINE
  8
0
 62
     0
 10
104.538
 20
11.8925
 30
0.0
 11
104.538
 21
12.4919
 31
0.0
  0
LINE
  8
0
 62
     0
 10
104.538
 20
12.4919
 30
0.0
 11
105.337
 21
12.4919
 31
0.0
  0
LINE
  8
0
 62
     0
 10
105.337
 20
12.4919
 30
0.0
 11
105.337
 21
15.5925
 31
0.0
  0
LINE
  8
0
 62
     0
 10
105.337
 20
15.5925
 30
0.0
 11
104.538
 21
15.5925
 31
0.0
  0
LINE
  8
0
 62
     0
 10
104.538
 20
15.5925
 30
0.0
 11
104.538
 21
16.593
 31
0.0
  0
LINE
  8
0
 62
     0
 10
104.538
 20
16.593
 30
0.0
 11
90.5386
 21
16.593
 31
0.0
  0
LINE
  8
0
 62
     0
 10
138.164
 20
16.593
 30
0.0
 11
138.164
 21
15.5925
 31
0.0
  0
LINE
  8
0
 62
     0
 10
138.164
 20
15.5925
 30
0.0
 11
137.363
 21
15.5925
 31
0.0
  0
LINE
  8
0
 62
     0
 10
137.363
 20
15.5925
 30
0.0
 11
137.363
 21
12.4919
 31
0.0
  0
LINE
  8
0
 62
     0
 10
137.363
 20
12.4919
 30
0.0
 11
138.164
 21
12.4919
 31
0.0
  0
LINE
  8
0
 62
     0
 10
138.164
 20
12.4919
 30
0.0
 11
138.164
 21
11.8925
 31
0.0
  0
LINE
  8
0
 62
     0
 10
138.164
 20
11.8925
 30
0.0
 11
136.638
 21
11.8925
 31
0.0
  0
LINE
  8
0
 62
     0
 10
136.638
 20
11.8925
 30
0.0
 11
136.638
 21
15.1226
 31
0.0
  0
LINE
  8
0
 62
     0
 10
136.638
 20
15.1226
 30
0.0
 11
134.914
 21
15.1226
 31
0.0
  0
LINE
  8
0
 62
     0
 10
134.914
 20
15.1226
 30
0.0
 11
134.914
 21
16.0431
 31
0.0
  0
LINE
  8
0
 62
     0
 10
134.914
 20
16.0431
 30
0.0
 11
131.614
 21
16.0431
 31
0.0
  0
LINE
  8
0
 62
     0
 10
131.614
 20
16.0431
 30
0.0
 11
131.614
 21
15.1226
 31
0.0
  0
LINE
  8
0
 62
     0
 10
131.614
 20
15.1226
 30
0.0
 11
129.889
 21
15.1226
 31
0.0
  0
LINE
  8
0
 62
     0
 10
129.889
 20
15.1226
 30
0.0
 11
129.889
 21
11.8925
 31
0.0
  0
LINE
  8
0
 62
     0
 10
129.889
 20
11.8925
 30
0.0
 11
129.063
 21
11.8925
 31
0.0
  0
LINE
  8
0
 62
     0
 10
129.063
 20
11.8925
 30
0.0
 11
129.063
 21
9.09228
 31
0.0
  0
LINE
  8
0
 62
     0
 10
129.063
 20
9.09228
 30
0.0
 11
129.889
 21
9.09228
 31
0.0
  0
LINE
  8
0
 62
     0
 10
129.889
 20
9.09228
 30
0.0
 11
129.889
 21
2.82222
 31
0.0
  0
LINE
  8
0
 62
     0
 10
129.889
 20
2.82222
 30
0.0
 11
131.614
 21
2.82222
 31
0.0
  0
LINE
  8
0
 62
     0
 10
131.614
 20
2.82222
 30
0.0
 11
131.614
 21
1.84244
 31
0.0
  0
LINE
  8
0
 62
     0
 10
131.614
 20
1.84244
 30
0.0
 11
134.914
 21
1.84244
 31
0.0
  0
LINE
  8
0
 62
     0
 10
134.914
 20
1.84244
 30
0.0
 11
134.914
 21
2.82222
 31
0.0
  0
LINE
  8
0
 62
     0
 10
134.914
 20
2.82222
 30
0.0
 11
136.638
 21
2.82222
 31
0.0
  0
LINE
  8
0
 62
     0
 10
136.638
 20
2.82222
 30
0.0
 11
136.638
 21
7.29259
 31
0.0
  0
LINE
  8
0
 62
     0
 10
136.638
 20
7.29259
 30
0.0
 11
138.164
 21
7.29259
 31
0.0
  0
LINE
  8
0
 62
     0
 10
138.164
 20
7.29259
 30
0.0
 11
138.164
 21
6.69177
 31
0.0
  0
LINE
  8
0
 62
     0
 10
138.164
 20
6.69177
 30
0.0
 11
137.363
 21
6.69177
 31
0.0
  0
LINE
  8
0
 62
     0
 10
137.363
 20
6.69177
 30
0.0
 11
137.363
 21
3.59255
 31
0.0
  0
LINE
  8
0
 62
     0
 10
137.363
 20
3.59255
 30
0.0
 11
138.164
 21
3.59255
 31
0.0
  0
LINE
  8
0
 62
     0
 10
138.164
 20
3.59255
 30
0.0
 11
138.164
 21
2.59209
 31
0.0
  0
LINE
  8
0
 62
     0
 10
138.164
 20
2.59209
 30
0.0
 11
152.163
 21
2.59209
 31
0.0
  0
LINE
  8
0
 62
     0
 10
152.163
 20
2.59209
 30
0.0
 11
152.163
 21
3.59255
 31
0.0
  0
LINE
  8
0
 62
     0
 10
152.163
 20
3.59255
 30
0.0
 11
152.962
 21
3.59255
 31
0.0
  0
LINE
  8
0
 62
     0
 10
152.962
 20
3.59255
 30
0.0
 11
152.962
 21
6.69177
 31
0.0
  0
LINE
  8
0
 62
     0
 10
152.962
 20
6.69177
 30
0.0
 11
152.163
 21
6.69177
 31
0.0
  0
LINE
  8
0
 62
     0
 10
152.163
 20
6.69177
 30
0.0
 11
152.163
 21
7.29259
 31
0.0
  0
LINE
  8
0
 62
     0
 10
152.163
 20
7.29259
 30
0.0
 11
153.687
 21
7.29259
 31
0.0
  0
LINE
  8
0
 62
     0
 10
153.687
 20
7.29259
 30
0.0
 11
153.687
 21
2.82222
 31
0.0
  0
LINE
  8
0
 62
     0
 10
153.687
 20
2.82222
 30
0.0
 11
155.414
 21
2.82222
 31
0.0
  0
LINE
  8
0
 62
     0
 10
155.414
 20
2.82222
 30
0.0
 11
155.414
 21
1.84244
 31
0.0
  0
LINE
  8
0
 62
     0
 10
155.414
 20
1.84244
 30
0.0
 11
158.713
 21
1.84244
 31
0.0
  0
LINE
  8
0
 62
     0
 10
158.713
 20
1.84244
 30
0.0
 11
158.713
 21
2.82222
 31
0.0
  0
LINE
  8
0
 62
     0
 10
158.713
 20
2.82222
 30
0.0
 11
160.438
 21
2.82222
 31
0.0
  0
LINE
  8
0
 62
     0
 10
160.438
 20
2.82222
 30
0.0
 11
160.438
 21
9.09228
 31
0.0
  0
LINE
  8
0
 62
     0
 10
160.438
 20
9.09228
 30
0.0
 11
161.264
 21
9.09228
 31
0.0
  0
LINE
  8
0
 62
     0
 10
161.264
 20
9.09228
 30
0.0
 11
161.264
 21
11.8925
 31
0.0
  0
LINE
  8
0
 62
     0
 10
161.264
 20
11.8925
 30
0.0
 11
160.438
 21
11.8925
 31
0.0
  0
LINE
  8
0
 62
     0
 10
160.438
 20
11.8925
 30
0.0
 11
160.438
 21
15.1226
 31
0.0
  0
LINE
  8
0
 62
     0
 10
160.438
 20
15.1226
 30
0.0
 11
158.713
 21
15.1226
 31
0.0
  0
LINE
  8
0
 62
     0
 10
158.713
 20
15.1226
 30
0.0
 11
158.713
 21
16.0431
 31
0.0
  0
LINE
  8
0
 62
     0
 10
158.713
 20
16.0431
 30
0.0
 11
155.414
 21
16.0431
 31
0.0
  0
LINE
  8
0
 62
     0
 10
155.414
 20
16.0431
 30
0.0
 11
155.414
 21
15.1226
 31
0.0
  0
LINE
  8
0
 62
     0
 10
155.414
 20
15.1226
 30
0.0
 11
153.687
 21
15.1226
 31
0.0
  0
LINE
  8
0
 62
     0
 10
153.687
 20
15.1226
 30
0.0
 11
153.687
 21
11.8925
 31
0.0
  0
LINE
  8
0
 62
     0
 10
153.687
 20
11.8925
 30
0.0
 11
152.163
 21
11.8925
 31
0.0
  0
LINE
  8
0
 62
     0
 10
152.163
 20
11.8925
 30
0.0
 11
152.163
 21
12.4919
 31
0.0
  0
LINE
  8
0
 62
     0
 10
152.163
 20
12.4919
 30
0.0
 11
152.962
 21
12.4919
 31
0.0
  0
LINE
  8
0
 62
     0
 10
152.962
 20
12.4919
 30
0.0
 11
152.962
 21
15.5925
 31
0.0
  0
LINE
  8
0
 62
     0
 10
152.962
 20
15.5925
 30
0.0
 11
152.163
 21
15.5925
 31
0.0
  0
LINE
  8
0
 62
     0
 10
152.163
 20
15.5925
 30
0.0
 11
152.163
 21
16.593
 31
0.0
  0
LINE
  8
0
 62
     0
 10
152.163
 20
16.593
 30
0.0
 11
138.164
 21
16.593
 31
0.0
  0
LINE
  8
0
 62
     0
 10
4.81348
 20
16.593
 30
0.0
 11
4.81348
 21
15.5925
 31
0.0
  0
LINE
  8
0
 62
     0
 10
4.81348
 20
15.5925
 30
0.0
 11
4.01285
 21
15.5925
 31
0.0
  0
LINE
  8
0
 62
     0
 10
4.01285
 20
15.5925
 30
0.0
 11
4.01285
 21
12.4919
 31
0.0
  0
LINE
  8
0
 62
     0
 10
4.01285
 20
12.4919
 30
0.0
 11
4.81348
 21
12.4919
 31
0.0
  0
LINE
  8
0
 62
     0
 10
4.81348
 20
12.4919
 30
0.0
 11
4.81348
 21
6.69177
 31
0.0
  0
LINE
  8
0
 62
     0
 10
4.81348
 20
6.69177
 30
0.0
 11
4.01285
 21
6.69177
 31
0.0
  0
LINE
  8
0
 62
     0
 10
4.01285
 20
6.69177
 30
0.0
 11
4.01285
 21
3.59255
 31
0.0
  0
LINE
  8
0
 62
     0
 10
4.01285
 20
3.59255
 30
0.0
 11
4.81348
 21
3.59255
 31
0.0
  0
LINE
  8
0
 62
     0
 10
4.81348
 20
3.59255
 30
0.0
 11
4.81348
 21
2.59209
 31
0.0
  0
LINE
  8
0
 62
     0
 10
4.81348
 20
2.59209
 30
0.0
 11
18.813
 21
2.59209
 31
0.0
  0
LINE
  8
0
 62
     0
 10
18.813
 20
2.59209
 30
0.0
 11
18.813
 21
3.59255
 31
0.0
  0
LINE
  8
0
 62
     0
 10
18.813
 20
3.59255
 30
0.0
 11
19.6136
 21
3.59255
 31
0.0
  0
LINE
  8
0
 62
     0
 10
19.6136
 20
3.59255
 30
0.0
 11
19.6136
 21
6.69177
 31
0.0
  0
LINE
  8
0
 62
     0
 10
19.6136
 20
6.69177
 30
0.0
 11
18.813
 21
6.69177
 31
0.0
  0
LINE
  8
0
 62
     0
 10
18.813
 20
6.69177
 30
0.0
 11
18.813
 21
12.4919
 31
0.0
  0
LINE
  8
0
 62
     0
 10
18.813
 20
12.4919
 30
0.0
 11
19.6136
 21
12.4919
 31
0.0
  0
LINE
  8
0
 62
     0
 10
19.6136
 20
12.4919
 30
0.0
 11
19.6136
 21
15.5925
 31
0.0
  0
LINE
  8
0
 62
     0
 10
19.6136
 20
15.5925
 30
0.0
 11
18.813
 21
15.5925
 31
0.0
  0
LINE
  8
0
 62
     0
 10
18.813
 20
15.5925
 30
0.0
 11
18.813
 21
16.593
 31
0.0
  0
LINE
  8
0
 62
     0
 10
18.813
 20
16.593
 30
0.0
 11
4.81348
 21
16.593
 31
0.0
  0
LINE
  8
0
 62
     0
 10
28.626
 20
16.593
 30
0.0
 11
28.626
 21
15.5925
 31
0.0
  0
LINE
  8
0
 62
     0
 10
28.626
 20
15.5925
 30
0.0
 11
27.8253
 21
15.5925
 31
0.0
  0
LINE
  8
0
 62
     0
 10
27.8253
 20
15.5925
 30
0.0
 11
27.8253
 21
12.4919
 31
0.0
  0
LINE
  8
0
 62
     0
 10
27.8253
 20
12.4919
 30
0.0
 11
28.626
 21
12.4919
 31
0.0
  0
LINE
  8
0
 62
     0
 10
28.626
 20
12.4919
 30
0.0
 11
28.626
 21
6.69177
 31
0.0
  0
LINE
  8
0
 62
     0
 10
28.626
 20
6.69177
 30
0.0
 11
27.8253
 21
6.69177
 31
0.0
  0
LINE
  8
0
 62
     0
 10
27.8253
 20
6.69177
 30
0.0
 11
27.8253
 21
3.59255
 31
0.0
  0
LINE
  8
0
 62
     0
 10
27.8253
 20
3.59255
 30
0.0
 11
28.626
 21
3.59255
 31
0.0
  0
LINE
  8
0
 62
     0
 10
28.626
 20
3.59255
 30
0.0
 11
28.626
 21
2.59209
 31
0.0
  0
LINE
  8
0
 62
     0
 10
28.626
 20
2.59209
 30
0.0
 11
42.6254
 21
2.59209
 31
0.0
  0
LINE
  8
0
 62
     0
 10
42.6254
 20
2.59209
 30
0.0
 11
42.6254
 21
3.59255
 31
0.0
  0
LINE
  8
0
 62
     0
 10
42.6254
 20
3.59255
 30
0.0
 11
43.4262
 21
3.59255
 31
0.0
  0
LINE
  8
0
 62
     0
 10
43.4262
 20
3.59255
 30
0.0
 11
43.4262
 21
6.69177
 31
0.0
  0
LINE
  8
0
 62
     0
 10
43.4262
 20
6.69177
 30
0.0
 11
42.6254
 21
6.69177
 31
0.0
  0
LINE
  8
0
 62
     0
 10
42.6254
 20
6.69177
 30
0.0
 11
42.6254
 21
12.4919
 31
0.0
  0
LINE
  8
0
 62
     0
 10
42.6254
 20
12.4919
 30
0.0
 11
43.4262
 21
12.4919
 31
0.0
  0
LINE
  8
0
 62
     0
 10
43.4262
 20
12.4919
 30
0.0
 11
43.4262
 21
15.5925
 31
0.0
  0
LINE
  8
0
 62
     0
 10
43.4262
 20
15.5925
 30
0.0
 11
42.6254
 21
15.5925
 31
0.0
  0
LINE
  8
0
 62
     0
 10
42.6254
 20
15.5925
 30
0.0
 11
42.6254
 21
16.593
 31
0.0
  0
LINE
  8
0
 62
     0
 10
42.6254
 20
16.593
 30
0.0
 11
28.626
 21
16.593
 31
0.0
  0
LINE
  8
0
 62
     0
 10
52.4387
 20
16.593
 30
0.0
 11
52.4387
 21
15.5925
 31
0.0
  0
LINE
  8
0
 62
     0
 10
52.4387
 20
15.5925
 30
0.0
 11
51.6378
 21
15.5925
 31
0.0
  0
LINE
  8
0
 62
     0
 10
51.6378
 20
15.5925
 30
0.0
 11
51.6378
 21
12.4919
 31
0.0
  0
LINE
  8
0
 62
     0
 10
51.6378
 20
12.4919
 30
0.0
 11
52.4387
 21
12.4919
 31
0.0
  0
LINE
  8
0
 62
     0
 10
52.4387
 20
12.4919
 30
0.0
 11
52.4387
 21
6.69177
 31
0.0
  0
LINE
  8
0
 62
     0
 10
52.4387
 20
6.69177
 30
0.0
 11
51.6378
 21
6.69177
 31
0.0
  0
LINE
  8
0
 62
     0
 10
51.6378
 20
6.69177
 30
0.0
 11
51.6378
 21
3.59255
 31
0.0
  0
LINE
  8
0
 62
     0
 10
51.6378
 20
3.59255
 30
0.0
 11
52.4387
 21
3.59255
 31
0.0
  0
LINE
  8
0
 62
     0
 10
52.4387
 20
3.59255
 30
0.0
 11
52.4387
 21
2.59209
 31
0.0
  0
LINE
  8
0
 62
     0
 10
52.4387
 20
2.59209
 30
0.0
 11
66.4379
 21
2.59209
 31
0.0
  0
LINE
  8
0
 62
     0
 10
66.4379
 20
2.59209
 30
0.0
 11
66.4379
 21
3.59255
 31
0.0
  0
LINE
  8
0
 62
     0
 10
66.4379
 20
3.59255
 30
0.0
 11
67.2387
 21
3.59255
 31
0.0
  0
LINE
  8
0
 62
     0
 10
67.2387
 20
3.59255
 30
0.0
 11
67.2387
 21
6.69177
 31
0.0
  0
LINE
  8
0
 62
     0
 10
67.2387
 20
6.69177
 30
0.0
 11
66.4379
 21
6.69177
 31
0.0
  0
LINE
  8
0
 62
     0
 10
66.4379
 20
6.69177
 30
0.0
 11
66.4379
 21
12.4919
 31
0.0
  0
LINE
  8
0
 62
     0
 10
66.4379
 20
12.4919
 30
0.0
 11
67.2387
 21
12.4919
 31
0.0
  0
LINE
  8
0
 62
     0
 10
67.2387
 20
12.4919
 30
0.0
 11
67.2387
 21
15.5925
 31
0.0
  0
LINE
  8
0
 62
     0
 10
67.2387
 20
15.5925
 30
0.0
 11
66.4379
 21
15.5925
 31
0.0
  0
LINE
  8
0
 62
     0
 10
66.4379
 20
15.5925
 30
0.0
 11
66.4379
 21
16.593
 31
0.0
  0
LINE
  8
0
 62
     0
 10
66.4379
 20
16.593
 30
0.0
 11
52.4387
 21
16.593
 31
0.0
  0
LINE
  8
0
 62
     0
 10
171.501
 20
16.593
 30
0.0
 11
171.501
 21
15.5925
 31
0.0
  0
LINE
  8
0
 62
     0
 10
171.501
 20
15.5925
 30
0.0
 11
170.7
 21
15.5925
 31
0.0
  0
LINE
  8
0
 62
     0
 10
170.7
 20
15.5925
 30
0.0
 11
170.7
 21
12.4919
 31
0.0
  0
LINE
  8
0
 62
     0
 10
170.7
 20
12.4919
 30
0.0
 11
171.501
 21
12.4919
 31
0.0
  0
LINE
  8
0
 62
     0
 10
171.501
 20
12.4919
 30
0.0
 11
171.501
 21
6.69177
 31
0.0
  0
LINE
  8
0
 62
     0
 10
171.501
 20
6.69177
 30
0.0
 11
170.7
 21
6.69177
 31
0.0
  0
LINE
  8
0
 62
     0
 10
170.7
 20
6.69177
 30
0.0
 11
170.7
 21
3.59255
 31
0.0
  0
LINE
  8
0
 62
     0
 10
170.7
 20
3.59255
 30
0.0
 11
171.501
 21
3.59255
 31
0.0
  0
LINE
  8
0
 62
     0
 10
171.501
 20
3.59255
 30
0.0
 11
171.501
 21
2.59209
 31
0.0
  0
LINE
  8
0
 62
     0
 10
171.501
 20
2.59209
 30
0.0
 11
185.502
 21
2.59209
 31
0.0
  0
LINE
  8
0
 62
     0
 10
185.502
 20
2.59209
 30
0.0
 11
185.502
 21
3.59255
 31
0.0
  0
LINE
  8
0
 62
     0
 10
185.502
 20
3.59255
 30
0.0
 11
186.301
 21
3.59255
 31
0.0
  0
LINE
  8
0
 62
     0
 10
186.301
 20
3.59255
 30
0.0
 11
186.301
 21
6.69177
 31
0.0
  0
LINE
  8
0
 62
     0
 10
186.301
 20
6.69177
 30
0.0
 11
185.502
 21
6.69177
 31
0.0
  0
LINE
  8
0
 62
     0
 10
185.502
 20
6.69177
 30
0.0
 11
185.502
 21
12.4919
 31
0.0
  0
LINE
  8
0
 62
     0
 10
185.502
 20
12.4919
 30
0.0
 11
186.301
 21
12.4919
 31
0.0
  0
LINE
  8
0
 62
     0
 10
186.301
 20
12.4919
 30
0.0
 11
186.301
 21
15.5925
 31
0.0
  0
LINE
  8
0
 62
     0
 10
186.301
 20
15.5925
 30
0.0
 11
185.502
 21
15.5925
 31
0.0
  0
LINE
  8
0
 62
     0
 10
185.502
 20
15.5925
 30
0.0
 11
185.502
 21
16.593
 31
0.0
  0
LINE
  8
0
 62
     0
 10
185.502
 20
16.593
 30
0.0
 11
171.501
 21
16.593
 31
0.0
  0
LINE
  8
0
 62
     0
 10
195.312
 20
16.593
 30
0.0
 11
195.312
 21
15.5925
 31
0.0
  0
LINE
  8
0
 62
     0
 10
195.312
 20
15.5925
 30
0.0
 11
194.513
 21
15.5925
 31
0.0
  0
LINE
  8
0
 62
     0
 10
194.513
 20
15.5925
 30
0.0
 11
194.513
 21
12.4919
 31
0.0
  0
LINE
  8
0
 62
     0
 10
194.513
 20
12.4919
 30
0.0
 11
195.312
 21
12.4919
 31
0.0
  0
LINE
  8
0
 62
     0
 10
195.312
 20
12.4919
 30
0.0
 11
195.312
 21
6.69177
 31
0.0
  0
LINE
  8
0
 62
     0
 10
195.312
 20
6.69177
 30
0.0
 11
194.513
 21
6.69177
 31
0.0
  0
LINE
  8
0
 62
     0
 10
194.513
 20
6.69177
 30
0.0
 11
194.513
 21
3.59255
 31
0.0
  0
LINE
  8
0
 62
     0
 10
194.513
 20
3.59255
 30
0.0
 11
195.312
 21
3.59255
 31
0.0
  0
LINE
  8
0
 62
     0
 10
195.312
 20
3.59255
 30
0.0
 11
195.312
 21
2.59209
 31
0.0
  0
LINE
  8
0
 62
     0
 10
195.312
 20
2.59209
 30
0.0
 11
209.313
 21
2.59209
 31
0.0
  0
LINE
  8
0
 62
     0
 10
209.313
 20
2.59209
 30
0.0
 11
209.313
 21
3.59255
 31
0.0
  0
LINE
  8
0
 62
     0
 10
209.313
 20
3.59255
 30
0.0
 11
210.114
 21
3.59255
 31
0.0
  0
LINE
  8
0
 62
     0
 10
210.114
 20
3.59255
 30
0.0
 11
210.114
 21
6.69177
 31
0.0
  0
LINE
  8
0
 62
     0
 10
210.114
 20
6.69177
 30
0.0
 11
209.313
 21
6.69177
 31
0.0
  0
LINE
  8
0
 62
     0
 10
209.313
 20
6.69177
 30
0.0
 11
209.313
 21
12.4919
 31
0.0
  0
LINE
  8
0
 62
     0
 10
209.313
 20
12.4919
 30
0.0
 11
210.114
 21
12.4919
 31
0.0
  0
LINE
  8
0
 62
     0
 10
210.114
 20
12.4919
 30
0.0
 11
210.114
 21
15.5925
 31
0.0
  0
LINE
  8
0
 62
     0
 10
210.114
 20
15.5925
 30
0.0
 11
209.313
 21
15.5925
 31
0.0
  0
LINE
  8
0
 62
     0
 10
209.313
 20
15.5925
 30
0.0
 11
209.313
 21
16.593
 31
0.0
  0
LINE
  8
0
 62
     0
 10
209.313
 20
16.593
 30
0.0
 11
195.312
 21
16.593
 31
0.0
  0
LINE
  8
0
 62
     0
 10
219.126
 20
16.593
 30
0.0
 11
219.126
 21
15.5925
 31
0.0
  0
LINE
  8
0
 62
     0
 10
219.126
 20
15.5925
 30
0.0
 11
218.325
 21
15.5925
 31
0.0
  0
LINE
  8
0
 62
     0
 10
218.325
 20
15.5925
 30
0.0
 11
218.325
 21
12.4919
 31
0.0
  0
LINE
  8
0
 62
     0
 10
218.325
 20
12.4919
 30
0.0
 11
219.126
 21
12.4919
 31
0.0
  0
LINE
  8
0
 62
     0
 10
219.126
 20
12.4919
 30
0.0
 11
219.126
 21
6.69177
 31
0.0
  0
LINE
  8
0
 62
     0
 10
219.126
 20
6.69177
 30
0.0
 11
218.325
 21
6.69177
 31
0.0
  0
LINE
  8
0
 62
     0
 10
218.325
 20
6.69177
 30
0.0
 11
218.325
 21
3.59255
 31
0.0
  0
LINE
  8
0
 62
     0
 10
218.325
 20
3.59255
 30
0.0
 11
219.126
 21
3.59255
 31
0.0
  0
LINE
  8
0
 62
     0
 10
219.126
 20
3.59255
 30
0.0
 11
219.126
 21
2.59209
 31
0.0
  0
LINE
  8
0
 62
     0
 10
219.126
 20
2.59209
 30
0.0
 11
233.127
 21
2.59209
 31
0.0
  0
LINE
  8
0
 62
     0
 10
233.127
 20
2.59209
 30
0.0
 11
233.127
 21
3.59255
 31
0.0
  0
LINE
  8
0
 62
     0
 10
233.127
 20
3.59255
 30
0.0
 11
233.926
 21
3.59255
 31
0.0
  0
LINE
  8
0
 62
     0
 10
233.926
 20
3.59255
 30
0.0
 11
233.926
 21
6.69177
 31
0.0
  0
LINE
  8
0
 62
     0
 10
233.926
 20
6.69177
 30
0.0
 11
233.127
 21
6.69177
 31
0.0
  0
LINE
  8
0
 62
     0
 10
233.127
 20
6.69177
 30
0.0
 11
233.127
 21
12.4919
 31
0.0
  0
LINE
  8
0
 62
     0
 10
233.127
 20
12.4919
 30
0.0
 11
233.926
 21
12.4919
 31
0.0
  0
LINE
  8
0
 62
     0
 10
233.926
 20
12.4919
 30
0.0
 11
233.926
 21
15.5925
 31
0.0
  0
LINE
  8
0
 62
     0
 10
233.926
 20
15.5925
 30
0.0
 11
233.127
 21
15.5925
 31
0.0
  0
LINE
  8
0
 62
     0
 10
233.127
 20
15.5925
 30
0.0
 11
233.127
 21
16.593
 31
0.0
  0
LINE
  8
0
 62
     0
 10
233.127
 20
16.593
 30
0.0
 11
219.126
 21
16.593
 31
0.0
  0
LINE
  8
0
 62
     0
 10
242.937
 20
16.593
 30
0.0
 11
242.937
 21
15.5925
 31
0.0
  0
LINE
  8
0
 62
     0
 10
242.937
 20
15.5925
 30
0.0
 11
242.138
 21
15.5925
 31
0.0
  0
LINE
  8
0
 62
     0
 10
242.138
 20
15.5925
 30
0.0
 11
242.138
 21
12.4919
 31
0.0
  0
LINE
  8
0
 62
     0
 10
242.138
 20
12.4919
 30
0.0
 11
242.937
 21
12.4919
 31
0.0
  0
LINE
  8
0
 62
     0
 10
242.937
 20
12.4919
 30
0.0
 11
242.937
 21
6.69177
 31
0.0
  0
LINE
  8
0
 62
     0
 10
242.937
 20
6.69177
 30
0.0
 11
242.138
 21
6.69177
 31
0.0
  0
LINE
  8
0
 62
     0
 10
242.138
 20
6.69177
 30
0.0
 11
242.138
 21
3.59255
 31
0.0
  0
LINE
  8
0
 62
     0
 10
242.138
 20
3.59255
 30
0.0
 11
242.937
 21
3.59255
 31
0.0
  0
LINE
  8
0
 62
     0
 10
242.937
 20
3.59255
 30
0.0
 11
242.937
 21
2.59209
 31
0.0
  0
LINE
  8
0
 62
     0
 10
242.937
 20
2.59209
 30
0.0
 11
256.938
 21
2.59209
 31
0.0
  0
LINE
  8
0
 62
     0
 10
256.938
 20
2.59209
 30
0.0
 11
256.938
 21
3.59255
 31
0.0
  0
LINE
  8
0
 62
     0
 10
256.938
 20
3.59255
 30
0.0
 11
257.737
 21
3.59255
 31
0.0
  0
LINE
  8
0
 62
     0
 10
257.737
 20
3.59255
 30
0.0
 11
257.737
 21
6.69177
 31
0.0
  0
LINE
  8
0
 62
     0
 10
257.737
 20
6.69177
 30
0.0
 11
256.938
 21
6.69177
 31
0.0
  0
LINE
  8
0
 62
     0
 10
256.938
 20
6.69177
 30
0.0
 11
256.938
 21
12.4919
 31
0.0
  0
LINE
  8
0
 62
     0
 10
256.938
 20
12.4919
 30
0.0
 11
257.737
 21
12.4919
 31
0.0
  0
LINE
  8
0
 62
     0
 10
257.737
 20
12.4919
 30
0.0
 11
257.737
 21
15.5925
 31
0.0
  0
LINE
  8
0
 62
     0
 10
257.737
 20
15.5925
 30
0.0
 11
256.938
 21
15.5925
 31
0.0
  0
LINE
  8
0
 62
     0
 10
256.938
 20
15.5925
 30
0.0
 11
256.938
 21
16.593
 31
0.0
  0
LINE
  8
0
 62
     0
 10
256.938
 20
16.593
 30
0.0
 11
242.937
 21
16.593
 31
0.0
  0
LINE
  8
0
 62
     0
 10
266.751
 20
16.593
 30
0.0
 11
266.751
 21
15.5925
 31
0.0
  0
LINE
  8
0
 62
     0
 10
266.751
 20
15.5925
 30
0.0
 11
265.95
 21
15.5925
 31
0.0
  0
LINE
  8
0
 62
     0
 10
265.95
 20
15.5925
 30
0.0
 11
265.95
 21
12.4919
 31
0.0
  0
LINE
  8
0
 62
     0
 10
265.95
 20
12.4919
 30
0.0
 11
266.751
 21
12.4919
 31
0.0
  0
LINE
  8
0
 62
     0
 10
266.751
 20
12.4919
 30
0.0
 11
266.751
 21
6.69177
 31
0.0
  0
LINE
  8
0
 62
     0
 10
266.751
 20
6.69177
 30
0.0
 11
265.95
 21
6.69177
 31
0.0
  0
LINE
  8
0
 62
     0
 10
265.95
 20
6.69177
 30
0.0
 11
265.95
 21
3.59255
 31
0.0
  0
LINE
  8
0
 62
     0
 10
265.95
 20
3.59255
 30
0.0
 11
266.751
 21
3.59255
 31
0.0
  0
LINE
  8
0
 62
     0
 10
266.751
 20
3.59255
 30
0.0
 11
266.751
 21
2.59209
 31
0.0
  0
LINE
  8
0
 62
     0
 10
266.751
 20
2.59209
 30
0.0
 11
280.75
 21
2.59209
 31
0.0
  0
LINE
  8
0
 62
     0
 10
280.75
 20
2.59209
 30
0.0
 11
280.75
 21
3.59255
 31
0.0
  0
LINE
  8
0
 62
     0
 10
280.75
 20
3.59255
 30
0.0
 11
281.551
 21
3.59255
 31
0.0
  0
LINE
  8
0
 62
     0
 10
281.551
 20
3.59255
 30
0.0
 11
281.551
 21
6.69177
 31
0.0
  0
LINE
  8
0
 62
     0
 10
281.551
 20
6.69177
 30
0.0
 11
280.75
 21
6.69177
 31
0.0
  0
LINE
  8
0
 62
     0
 10
280.75
 20
6.69177
 30
0.0
 11
280.75
 21
12.4919
 31
0.0
  0
LINE
  8
0
 62
     0
 10
280.75
 20
12.4919
 30
0.0
 11
281.551
 21
12.4919
 31
0.0
  0
LINE
  8
0
 62
     0
 10
281.551
 20
12.4919
 30
0.0
 11
281.551
 21
15.5925
 31
0.0
  0
LINE
  8
0
 62
     0
 10
281.551
 20
15.5925
 30
0.0
 11
280.75
 21
15.5925
 31
0.0
  0
LINE
  8
0
 62
     0
 10
280.75
 20
15.5925
 30
0.0
 11
280.75
 21
16.593
 31
0.0
  0
LINE
  8
0
 62
     0
 10
280.75
 20
16.593
 30
0.0
 11
266.751
 21
16.593
 31
0.0
  0
LINE
  8
0
 62
     0
 10
190.318
 20
11.2172
 30
0.0
 11
189.902
 21
11.005
 31
0.0
  0
LINE
  8
0
 62
     0
 10
189.902
 20
11.005
 30
0.0
 11
189.568
 21
10.6729
 31
0.0
  0
LINE
  8
0
 62
     0
 10
189.568
 20
10.6729
 30
0.0
 11
189.356
 21
10.2554
 31
0.0
  0
LINE
  8
0
 62
     0
 10
189.356
 20
10.2554
 30
0.0
 11
189.282
 21
9.79096
 31
0.0
  0
LINE
  8
0
 62
     0
 10
189.282
 20
9.79096
 30
0.0
 11
189.356
 21
9.32794
 31
0.0
  0
LINE
  8
0
 62
     0
 10
189.356
 20
9.32794
 30
0.0
 11
189.568
 21
8.91039
 31
0.0
  0
LINE
  8
0
 62
     0
 10
189.568
 20
8.91039
 30
0.0
 11
189.902
 21
8.57829
 31
0.0
  0
LINE
  8
0
 62
     0
 10
189.902
 20
8.57829
 30
0.0
 11
190.318
 21
8.36468
 31
0.0
  0
LINE
  8
0
 62
     0
 10
190.318
 20
8.36468
 30
0.0
 11
190.783
 21
8.29165
 31
0.0
  0
LINE
  8
0
 62
     0
 10
190.783
 20
8.29165
 30
0.0
 11
191.247
 21
8.36468
 31
0.0
  0
LINE
  8
0
 62
     0
 10
191.247
 20
8.36468
 30
0.0
 11
191.663
 21
8.57829
 31
0.0
  0
LINE
  8
0
 62
     0
 10
191.663
 20
8.57829
 30
0.0
 11
191.996
 21
8.91039
 31
0.0
  0
LINE
  8
0
 62
     0
 10
191.996
 20
8.91039
 30
0.0
 11
192.21
 21
9.32794
 31
0.0
  0
LINE
  8
0
 62
     0
 10
192.21
 20
9.32794
 30
0.0
 11
192.282
 21
9.79096
 31
0.0
  0
LINE
  8
0
 62
     0
 10
192.282
 20
9.79096
 30
0.0
 11
192.21
 21
10.2554
 31
0.0
  0
LINE
  8
0
 62
     0
 10
192.21
 20
10.2554
 30
0.0
 11
191.996
 21
10.6729
 31
0.0
  0
LINE
  8
0
 62
     0
 10
191.996
 20
10.6729
 30
0.0
 11
191.663
 21
11.005
 31
0.0
  0
LINE
  8
0
 62
     0
 10
191.663
 20
11.005
 30
0.0
 11
191.247
 21
11.2172
 31
0.0
  0
LINE
  8
0
 62
     0
 10
191.247
 20
11.2172
 30
0.0
 11
190.783
 21
11.2916
 31
0.0
  0
LINE
  8
0
 62
     0
 10
190.783
 20
11.2916
 30
0.0
 11
190.318
 21
11.2172
 31
0.0
  0
LINE
  8
0
 62
     0
 10
14.3371
 20
35.6429
 30
0.0
 11
14.3371
 21
34.6425
 31
0.0
  0
LINE
  8
0
 62
     0
 10
14.3371
 20
34.6425
 30
0.0
 11
13.5378
 21
34.6425
 31
0.0
  0
LINE
  8
0
 62
     0
 10
13.5378
 20
34.6425
 30
0.0
 11
13.5378
 21
31.5419
 31
0.0
  0
LINE
  8
0
 62
     0
 10
13.5378
 20
31.5419
 30
0.0
 11
14.3371
 21
31.5419
 31
0.0
  0
LINE
  8
0
 62
     0
 10
14.3371
 20
31.5419
 30
0.0
 11
14.3371
 21
30.9411
 31
0.0
  0
LINE
  8
0
 62
     0
 10
14.3371
 20
30.9411
 30
0.0
 11
12.813
 21
30.9411
 31
0.0
  0
LINE
  8
0
 62
     0
 10
12.813
 20
30.9411
 30
0.0
 11
12.813
 21
34.1726
 31
0.0
  0
LINE
  8
0
 62
     0
 10
12.813
 20
34.1726
 30
0.0
 11
11.0877
 21
34.1726
 31
0.0
  0
LINE
  8
0
 62
     0
 10
11.0877
 20
34.1726
 30
0.0
 11
11.0877
 21
35.0931
 31
0.0
  0
LINE
  8
0
 62
     0
 10
11.0877
 20
35.0931
 30
0.0
 11
7.78866
 21
35.0931
 31
0.0
  0
LINE
  8
0
 62
     0
 10
7.78866
 20
35.0931
 30
0.0
 11
7.78866
 21
34.1726
 31
0.0
  0
LINE
  8
0
 62
     0
 10
7.78866
 20
34.1726
 30
0.0
 11
6.06337
 21
34.1726
 31
0.0
  0
LINE
  8
0
 62
     0
 10
6.06337
 20
34.1726
 30
0.0
 11
6.06337
 21
30.9411
 31
0.0
  0
LINE
  8
0
 62
     0
 10
6.06337
 20
30.9411
 30
0.0
 11
5.23794
 21
30.9411
 31
0.0
  0
LINE
  8
0
 62
     0
 10
5.23794
 20
30.9411
 30
0.0
 11
5.23794
 21
28.1423
 31
0.0
  0
LINE
  8
0
 62
     0
 10
5.23794
 20
28.1423
 30
0.0
 11
6.06337
 21
28.1423
 31
0.0
  0
LINE
  8
0
 62
     0
 10
6.06337
 20
28.1423
 30
0.0
 11
6.06337
 21
21.8722
 31
0.0
  0
LINE
  8
0
 62
     0
 10
6.06337
 20
21.8722
 30
0.0
 11
7.78866
 21
21.8722
 31
0.0
  0
LINE
  8
0
 62
     0
 10
7.78866
 20
21.8722
 30
0.0
 11
7.78866
 21
20.8925
 31
0.0
  0
LINE
  8
0
 62
     0
 10
7.78866
 20
20.8925
 30
0.0
 11
11.0877
 21
20.8925
 31
0.0
  0
LINE
  8
0
 62
     0
 10
11.0877
 20
20.8925
 30
0.0
 11
11.0877
 21
21.8722
 31
0.0
  0
LINE
  8
0
 62
     0
 10
11.0877
 20
21.8722
 30
0.0
 11
12.813
 21
21.8722
 31
0.0
  0
LINE
  8
0
 62
     0
 10
12.813
 20
21.8722
 30
0.0
 11
12.813
 21
26.3426
 31
0.0
  0
LINE
  8
0
 62
     0
 10
12.813
 20
26.3426
 30
0.0
 11
14.3371
 21
26.3426
 31
0.0
  0
LINE
  8
0
 62
     0
 10
14.3371
 20
26.3426
 30
0.0
 11
14.3371
 21
25.7418
 31
0.0
  0
LINE
  8
0
 62
     0
 10
14.3371
 20
25.7418
 30
0.0
 11
13.5378
 21
25.7418
 31
0.0
  0
LINE
  8
0
 62
     0
 10
13.5378
 20
25.7418
 30
0.0
 11
13.5378
 21
22.6425
 31
0.0
  0
LINE
  8
0
 62
     0
 10
13.5378
 20
22.6425
 30
0.0
 11
14.3371
 21
22.6425
 31
0.0
  0
LINE
  8
0
 62
     0
 10
14.3371
 20
22.6425
 30
0.0
 11
14.3371
 21
21.6421
 31
0.0
  0
LINE
  8
0
 62
     0
 10
14.3371
 20
21.6421
 30
0.0
 11
28.338
 21
21.6421
 31
0.0
  0
LINE
  8
0
 62
     0
 10
28.338
 20
21.6421
 30
0.0
 11
28.338
 21
22.6425
 31
0.0
  0
LINE
  8
0
 62
     0
 10
28.338
 20
22.6425
 30
0.0
 11
29.1373
 21
22.6425
 31
0.0
  0
LINE
  8
0
 62
     0
 10
29.1373
 20
22.6425
 30
0.0
 11
29.1373
 21
25.7418
 31
0.0
  0
LINE
  8
0
 62
     0
 10
29.1373
 20
25.7418
 30
0.0
 11
28.338
 21
25.7418
 31
0.0
  0
LINE
  8
0
 62
     0
 10
28.338
 20
25.7418
 30
0.0
 11
28.338
 21
26.3426
 31
0.0
  0
LINE
  8
0
 62
     0
 10
28.338
 20
26.3426
 30
0.0
 11
29.8634
 21
26.3426
 31
0.0
  0
LINE
  8
0
 62
     0
 10
29.8634
 20
26.3426
 30
0.0
 11
29.8634
 21
21.8722
 31
0.0
  0
LINE
  8
0
 62
     0
 10
29.8634
 20
21.8722
 30
0.0
 11
31.5874
 21
21.8722
 31
0.0
  0
LINE
  8
0
 62
     0
 10
31.5874
 20
21.8722
 30
0.0
 11
31.5874
 21
20.8925
 31
0.0
  0
LINE
  8
0
 62
     0
 10
31.5874
 20
20.8925
 30
0.0
 11
34.8878
 21
20.8925
 31
0.0
  0
LINE
  8
0
 62
     0
 10
34.8878
 20
20.8925
 30
0.0
 11
34.8878
 21
21.8722
 31
0.0
  0
LINE
  8
0
 62
     0
 10
34.8878
 20
21.8722
 30
0.0
 11
36.613
 21
21.8722
 31
0.0
  0
LINE
  8
0
 62
     0
 10
36.613
 20
21.8722
 30
0.0
 11
36.613
 21
28.1423
 31
0.0
  0
LINE
  8
0
 62
     0
 10
36.613
 20
28.1423
 30
0.0
 11
37.4385
 21
28.1423
 31
0.0
  0
LINE
  8
0
 62
     0
 10
37.4385
 20
28.1423
 30
0.0
 11
37.4385
 21
30.9411
 31
0.0
  0
LINE
  8
0
 62
     0
 10
37.4385
 20
30.9411
 30
0.0
 11
36.613
 21
30.9411
 31
0.0
  0
LINE
  8
0
 62
     0
 10
36.613
 20
30.9411
 30
0.0
 11
36.613
 21
34.1726
 31
0.0
  0
LINE
  8
0
 62
     0
 10
36.613
 20
34.1726
 30
0.0
 11
34.8878
 21
34.1726
 31
0.0
  0
LINE
  8
0
 62
     0
 10
34.8878
 20
34.1726
 30
0.0
 11
34.8878
 21
35.0931
 31
0.0
  0
LINE
  8
0
 62
     0
 10
34.8878
 20
35.0931
 30
0.0
 11
31.5874
 21
35.0931
 31
0.0
  0
LINE
  8
0
 62
     0
 10
31.5874
 20
35.0931
 30
0.0
 11
31.5874
 21
34.1726
 31
0.0
  0
LINE
  8
0
 62
     0
 10
31.5874
 20
34.1726
 30
0.0
 11
29.8634
 21
34.1726
 31
0.0
  0
LINE
  8
0
 62
     0
 10
29.8634
 20
34.1726
 30
0.0
 11
29.8634
 21
30.9411
 31
0.0
  0
LINE
  8
0
 62
     0
 10
29.8634
 20
30.9411
 30
0.0
 11
28.338
 21
30.9411
 31
0.0
  0
LINE
  8
0
 62
     0
 10
28.338
 20
30.9411
 30
0.0
 11
28.338
 21
31.5419
 31
0.0
  0
LINE
  8
0
 62
     0
 10
28.338
 20
31.5419
 30
0.0
 11
29.1373
 21
31.5419
 31
0.0
  0
LINE
  8
0
 62
     0
 10
29.1373
 20
31.5419
 30
0.0
 11
29.1373
 21
34.6425
 31
0.0
  0
LINE
  8
0
 62
     0
 10
29.1373
 20
34.6425
 30
0.0
 11
28.338
 21
34.6425
 31
0.0
  0
LINE
  8
0
 62
     0
 10
28.338
 20
34.6425
 30
0.0
 11
28.338
 21
35.6429
 31
0.0
  0
LINE
  8
0
 62
     0
 10
28.338
 20
35.6429
 30
0.0
 11
14.3371
 21
35.6429
 31
0.0
  0
LINE
  8
0
 62
     0
 10
252.462
 20
35.6429
 30
0.0
 11
252.462
 21
34.6425
 31
0.0
  0
LINE
  8
0
 62
     0
 10
252.462
 20
34.6425
 30
0.0
 11
251.661
 21
34.6425
 31
0.0
  0
LINE
  8
0
 62
     0
 10
251.661
 20
34.6425
 30
0.0
 11
251.661
 21
31.5419
 31
0.0
  0
LINE
  8
0
 62
     0
 10
251.661
 20
31.5419
 30
0.0
 11
252.462
 21
31.5419
 31
0.0
  0
LINE
  8
0
 62
     0
 10
252.462
 20
31.5419
 30
0.0
 11
252.462
 21
30.9411
 31
0.0
  0
LINE
  8
0
 62
     0
 10
252.462
 20
30.9411
 30
0.0
 11
250.938
 21
30.9411
 31
0.0
  0
LINE
  8
0
 62
     0
 10
250.938
 20
30.9411
 30
0.0
 11
250.938
 21
34.1726
 31
0.0
  0
LINE
  8
0
 62
     0
 10
250.938
 20
34.1726
 30
0.0
 11
249.213
 21
34.1726
 31
0.0
  0
LINE
  8
0
 62
     0
 10
249.213
 20
34.1726
 30
0.0
 11
249.213
 21
35.0931
 31
0.0
  0
LINE
  8
0
 62
     0
 10
249.213
 20
35.0931
 30
0.0
 11
245.914
 21
35.0931
 31
0.0
  0
LINE
  8
0
 62
     0
 10
245.914
 20
35.0931
 30
0.0
 11
245.914
 21
34.1726
 31
0.0
  0
LINE
  8
0
 62
     0
 10
245.914
 20
34.1726
 30
0.0
 11
244.187
 21
34.1726
 31
0.0
  0
LINE
  8
0
 62
     0
 10
244.187
 20
34.1726
 30
0.0
 11
244.187
 21
30.9411
 31
0.0
  0
LINE
  8
0
 62
     0
 10
244.187
 20
30.9411
 30
0.0
 11
243.363
 21
30.9411
 31
0.0
  0
LINE
  8
0
 62
     0
 10
243.363
 20
30.9411
 30
0.0
 11
243.363
 21
28.1423
 31
0.0
  0
LINE
  8
0
 62
     0
 10
243.363
 20
28.1423
 30
0.0
 11
244.187
 21
28.1423
 31
0.0
  0
LINE
  8
0
 62
     0
 10
244.187
 20
28.1423
 30
0.0
 11
244.187
 21
21.8722
 31
0.0
  0
LINE
  8
0
 62
     0
 10
244.187
 20
21.8722
 30
0.0
 11
245.914
 21
21.8722
 31
0.0
  0
LINE
  8
0
 62
     0
 10
245.914
 20
21.8722
 30
0.0
 11
245.914
 21
20.8925
 31
0.0
  0
LINE
  8
0
 62
     0
 10
245.914
 20
20.8925
 30
0.0
 11
249.213
 21
20.8925
 31
0.0
  0
LINE
  8
0
 62
     0
 10
249.213
 20
20.8925
 30
0.0
 11
249.213
 21
21.8722
 31
0.0
  0
LINE
  8
0
 62
     0
 10
249.213
 20
21.8722
 30
0.0
 11
250.938
 21
21.8722
 31
0.0
  0
LINE
  8
0
 62
     0
 10
250.938
 20
21.8722
 30
0.0
 11
250.938
 21
26.3426
 31
0.0
  0
LINE
  8
0
 62
     0
 10
250.938
 20
26.3426
 30
0.0
 11
252.462
 21
26.3426
 31
0.0
  0
LINE
  8
0
 62
     0
 10
252.462
 20
26.3426
 30
0.0
 11
252.462
 21
25.7418
 31
0.0
  0
LINE
  8
0
 62
     0
 10
252.462
 20
25.7418
 30
0.0
 11
251.661
 21
25.7418
 31
0.0
  0
LINE
  8
0
 62
     0
 10
251.661
 20
25.7418
 30
0.0
 11
251.661
 21
22.6425
 31
0.0
  0
LINE
  8
0
 62
     0
 10
251.661
 20
22.6425
 30
0.0
 11
252.462
 21
22.6425
 31
0.0
  0
LINE
  8
0
 62
     0
 10
252.462
 20
22.6425
 30
0.0
 11
252.462
 21
21.6421
 31
0.0
  0
LINE
  8
0
 62
     0
 10
252.462
 20
21.6421
 30
0.0
 11
266.463
 21
21.6421
 31
0.0
  0
LINE
  8
0
 62
     0
 10
266.463
 20
21.6421
 30
0.0
 11
266.463
 21
22.6425
 31
0.0
  0
LINE
  8
0
 62
     0
 10
266.463
 20
22.6425
 30
0.0
 11
267.262
 21
22.6425
 31
0.0
  0
LINE
  8
0
 62
     0
 10
267.262
 20
22.6425
 30
0.0
 11
267.262
 21
25.7418
 31
0.0
  0
LINE
  8
0
 62
     0
 10
267.262
 20
25.7418
 30
0.0
 11
266.463
 21
25.7418
 31
0.0
  0
LINE
  8
0
 62
     0
 10
266.463
 20
25.7418
 30
0.0
 11
266.463
 21
26.3426
 31
0.0
  0
LINE
  8
0
 62
     0
 10
266.463
 20
26.3426
 30
0.0
 11
267.987
 21
26.3426
 31
0.0
  0
LINE
  8
0
 62
     0
 10
267.987
 20
26.3426
 30
0.0
 11
267.987
 21
21.8722
 31
0.0
  0
LINE
  8
0
 62
     0
 10
267.987
 20
21.8722
 30
0.0
 11
269.712
 21
21.8722
 31
0.0
  0
LINE
  8
0
 62
     0
 10
269.712
 20
21.8722
 30
0.0
 11
269.712
 21
20.8925
 31
0.0
  0
LINE
  8
0
 62
     0
 10
269.712
 20
20.8925
 30
0.0
 11
273.013
 21
20.8925
 31
0.0
  0
LINE
  8
0
 62
     0
 10
273.013
 20
20.8925
 30
0.0
 11
273.013
 21
21.8722
 31
0.0
  0
LINE
  8
0
 62
     0
 10
273.013
 20
21.8722
 30
0.0
 11
274.738
 21
21.8722
 31
0.0
  0
LINE
  8
0
 62
     0
 10
274.738
 20
21.8722
 30
0.0
 11
274.738
 21
28.1423
 31
0.0
  0
LINE
  8
0
 62
     0
 10
274.738
 20
28.1423
 30
0.0
 11
275.562
 21
28.1423
 31
0.0
  0
LINE
  8
0
 62
     0
 10
275.562
 20
28.1423
 30
0.0
 11
275.562
 21
30.9411
 31
0.0
  0
LINE
  8
0
 62
     0
 10
275.562
 20
30.9411
 30
0.0
 11
274.738
 21
30.9411
 31
0.0
  0
LINE
  8
0
 62
     0
 10
274.738
 20
30.9411
 30
0.0
 11
274.738
 21
34.1726
 31
0.0
  0
LINE
  8
0
 62
     0
 10
274.738
 20
34.1726
 30
0.0
 11
273.013
 21
34.1726
 31
0.0
  0
LINE
  8
0
 62
     0
 10
273.013
 20
34.1726
 30
0.0
 11
273.013
 21
35.0931
 31
0.0
  0
LINE
  8
0
 62
     0
 10
273.013
 20
35.0931
 30
0.0
 11
269.712
 21
35.0931
 31
0.0
  0
LINE
  8
0
 62
     0
 10
269.712
 20
35.0931
 30
0.0
 11
269.712
 21
34.1726
 31
0.0
  0
LINE
  8
0
 62
     0
 10
269.712
 20
34.1726
 30
0.0
 11
267.987
 21
34.1726
 31
0.0
  0
LINE
  8
0
 62
     0
 10
267.987
 20
34.1726
 30
0.0
 11
267.987
 21
30.9411
 31
0.0
  0
LINE
  8
0
 62
     0
 10
267.987
 20
30.9411
 30
0.0
 11
266.463
 21
30.9411
 31
0.0
  0
LINE
  8
0
 62
     0
 10
266.463
 20
30.9411
 30
0.0
 11
266.463
 21
31.5419
 31
0.0
  0
LINE
  8
0
 62
     0
 10
266.463
 20
31.5419
 30
0.0
 11
267.262
 21
31.5419
 31
0.0
  0
LINE
  8
0
 62
     0
 10
267.262
 20
31.5419
 30
0.0
 11
267.262
 21
34.6425
 31
0.0
  0
LINE
  8
0
 62
     0
 10
267.262
 20
34.6425
 30
0.0
 11
266.463
 21
34.6425
 31
0.0
  0
LINE
  8
0
 62
     0
 10
266.463
 20
34.6425
 30
0.0
 11
266.463
 21
35.6429
 31
0.0
  0
LINE
  8
0
 62
     0
 10
266.463
 20
35.6429
 30
0.0
 11
252.462
 21
35.6429
 31
0.0
  0
LINE
  8
0
 62
     0
 10
45.296
 20
35.6429
 30
0.0
 11
45.296
 21
34.6425
 31
0.0
  0
LINE
  8
0
 62
     0
 10
45.296
 20
34.6425
 30
0.0
 11
44.4941
 21
34.6425
 31
0.0
  0
LINE
  8
0
 62
     0
 10
44.4941
 20
34.6425
 30
0.0
 11
44.4941
 21
31.5419
 31
0.0
  0
LINE
  8
0
 62
     0
 10
44.4941
 20
31.5419
 30
0.0
 11
45.296
 21
31.5419
 31
0.0
  0
LINE
  8
0
 62
     0
 10
45.296
 20
31.5419
 30
0.0
 11
45.296
 21
25.7418
 31
0.0
  0
LINE
  8
0
 62
     0
 10
45.296
 20
25.7418
 30
0.0
 11
44.4941
 21
25.7418
 31
0.0
  0
LINE
  8
0
 62
     0
 10
44.4941
 20
25.7418
 30
0.0
 11
44.4941
 21
22.6425
 31
0.0
  0
LINE
  8
0
 62
     0
 10
44.4941
 20
22.6425
 30
0.0
 11
45.296
 21
22.6425
 31
0.0
  0
LINE
  8
0
 62
     0
 10
45.296
 20
22.6425
 30
0.0
 11
45.296
 21
21.6421
 31
0.0
  0
LINE
  8
0
 62
     0
 10
45.296
 20
21.6421
 30
0.0
 11
59.2956
 21
21.6421
 31
0.0
  0
LINE
  8
0
 62
     0
 10
59.2956
 20
21.6421
 30
0.0
 11
59.2956
 21
22.6425
 31
0.0
  0
LINE
  8
0
 62
     0
 10
59.2956
 20
22.6425
 30
0.0
 11
60.095
 21
22.6425
 31
0.0
  0
LINE
  8
0
 62
     0
 10
60.095
 20
22.6425
 30
0.0
 11
60.095
 21
25.7418
 31
0.0
  0
LINE
  8
0
 62
     0
 10
60.095
 20
25.7418
 30
0.0
 11
59.2956
 21
25.7418
 31
0.0
  0
LINE
  8
0
 62
     0
 10
59.2956
 20
25.7418
 30
0.0
 11
59.2956
 21
31.5419
 31
0.0
  0
LINE
  8
0
 62
     0
 10
59.2956
 20
31.5419
 30
0.0
 11
60.095
 21
31.5419
 31
0.0
  0
LINE
  8
0
 62
     0
 10
60.095
 20
31.5419
 30
0.0
 11
60.095
 21
34.6425
 31
0.0
  0
LINE
  8
0
 62
     0
 10
60.095
 20
34.6425
 30
0.0
 11
59.2956
 21
34.6425
 31
0.0
  0
LINE
  8
0
 62
     0
 10
59.2956
 20
34.6425
 30
0.0
 11
59.2956
 21
35.6429
 31
0.0
  0
LINE
  8
0
 62
     0
 10
59.2956
 20
35.6429
 30
0.0
 11
45.296
 21
35.6429
 31
0.0
  0
LINE
  8
0
 62
     0
 10
64.346
 20
35.6429
 30
0.0
 11
64.346
 21
34.6425
 31
0.0
  0
LINE
  8
0
 62
     0
 10
64.346
 20
34.6425
 30
0.0
 11
63.5455
 21
34.6425
 31
0.0
  0
LINE
  8
0
 62
     0
 10
63.5455
 20
34.6425
 30
0.0
 11
63.5455
 21
31.5419
 31
0.0
  0
LINE
  8
0
 62
     0
 10
63.5455
 20
31.5419
 30
0.0
 11
64.346
 21
31.5419
 31
0.0
  0
LINE
  8
0
 62
     0
 10
64.346
 20
31.5419
 30
0.0
 11
64.346
 21
25.7418
 31
0.0
  0
LINE
  8
0
 62
     0
 10
64.346
 20
25.7418
 30
0.0
 11
63.5455
 21
25.7418
 31
0.0
  0
LINE
  8
0
 62
     0
 10
63.5455
 20
25.7418
 30
0.0
 11
63.5455
 21
22.6425
 31
0.0
  0
LINE
  8
0
 62
     0
 10
63.5455
 20
22.6425
 30
0.0
 11
64.346
 21
22.6425
 31
0.0
  0
LINE
  8
0
 62
     0
 10
64.346
 20
22.6425
 30
0.0
 11
64.346
 21
21.6421
 31
0.0
  0
LINE
  8
0
 62
     0
 10
64.346
 20
21.6421
 30
0.0
 11
78.3456
 21
21.6421
 31
0.0
  0
LINE
  8
0
 62
     0
 10
78.3456
 20
21.6421
 30
0.0
 11
78.3456
 21
22.6425
 31
0.0
  0
LINE
  8
0
 62
     0
 10
78.3456
 20
22.6425
 30
0.0
 11
79.145
 21
22.6425
 31
0.0
  0
LINE
  8
0
 62
     0
 10
79.145
 20
22.6425
 30
0.0
 11
79.145
 21
25.7418
 31
0.0
  0
LINE
  8
0
 62
     0
 10
79.145
 20
25.7418
 30
0.0
 11
78.3456
 21
25.7418
 31
0.0
  0
LINE
  8
0
 62
     0
 10
78.3456
 20
25.7418
 30
0.0
 11
78.3456
 21
31.5419
 31
0.0
  0
LINE
  8
0
 62
     0
 10
78.3456
 20
31.5419
 30
0.0
 11
79.145
 21
31.5419
 31
0.0
  0
LINE
  8
0
 62
     0
 10
79.145
 20
31.5419
 30
0.0
 11
79.145
 21
34.6425
 31
0.0
  0
LINE
  8
0
 62
     0
 10
79.145
 20
34.6425
 30
0.0
 11
78.3456
 21
34.6425
 31
0.0
  0
LINE
  8
0
 62
     0
 10
78.3456
 20
34.6425
 30
0.0
 11
78.3456
 21
35.6429
 31
0.0
  0
LINE
  8
0
 62
     0
 10
78.3456
 20
35.6429
 30
0.0
 11
64.346
 21
35.6429
 31
0.0
  0
LINE
  8
0
 62
     0
 10
83.396
 20
35.6429
 30
0.0
 11
83.396
 21
34.6425
 31
0.0
  0
LINE
  8
0
 62
     0
 10
83.396
 20
34.6425
 30
0.0
 11
82.5955
 21
34.6425
 31
0.0
  0
LINE
  8
0
 62
     0
 10
82.5955
 20
34.6425
 30
0.0
 11
82.5955
 21
31.5419
 31
0.0
  0
LINE
  8
0
 62
     0
 10
82.5955
 20
31.5419
 30
0.0
 11
83.396
 21
31.5419
 31
0.0
  0
LINE
  8
0
 62
     0
 10
83.396
 20
31.5419
 30
0.0
 11
83.396
 21
25.7418
 31
0.0
  0
LINE
  8
0
 62
     0
 10
83.396
 20
25.7418
 30
0.0
 11
82.5955
 21
25.7418
 31
0.0
  0
LINE
  8
0
 62
     0
 10
82.5955
 20
25.7418
 30
0.0
 11
82.5955
 21
22.6425
 31
0.0
  0
LINE
  8
0
 62
     0
 10
82.5955
 20
22.6425
 30
0.0
 11
83.396
 21
22.6425
 31
0.0
  0
LINE
  8
0
 62
     0
 10
83.396
 20
22.6425
 30
0.0
 11
83.396
 21
21.6421
 31
0.0
  0
LINE
  8
0
 62
     0
 10
83.396
 20
21.6421
 30
0.0
 11
97.3956
 21
21.6421
 31
0.0
  0
LINE
  8
0
 62
     0
 10
97.3956
 20
21.6421
 30
0.0
 11
97.3956
 21
22.6425
 31
0.0
  0
LINE
  8
0
 62
     0
 10
97.3956
 20
22.6425
 30
0.0
 11
98.195
 21
22.6425
 31
0.0
  0
LINE
  8
0
 62
     0
 10
98.195
 20
22.6425
 30
0.0
 11
98.195
 21
25.7418
 31
0.0
  0
LINE
  8
0
 62
     0
 10
98.195
 20
25.7418
 30
0.0
 11
97.3956
 21
25.7418
 31
0.0
  0
LINE
  8
0
 62
     0
 10
97.3956
 20
25.7418
 30
0.0
 11
97.3956
 21
31.5419
 31
0.0
  0
LINE
  8
0
 62
     0
 10
97.3956
 20
31.5419
 30
0.0
 11
98.195
 21
31.5419
 31
0.0
  0
LINE
  8
0
 62
     0
 10
98.195
 20
31.5419
 30
0.0
 11
98.195
 21
34.6425
 31
0.0
  0
LINE
  8
0
 62
     0
 10
98.195
 20
34.6425
 30
0.0
 11
97.3956
 21
34.6425
 31
0.0
  0
LINE
  8
0
 62
     0
 10
97.3956
 20
34.6425
 30
0.0
 11
97.3956
 21
35.6429
 31
0.0
  0
LINE
  8
0
 62
     0
 10
97.3956
 20
35.6429
 30
0.0
 11
83.396
 21
35.6429
 31
0.0
  0
LINE
  8
0
 62
     0
 10
102.445
 20
35.6429
 30
0.0
 11
102.445
 21
34.6425
 31
0.0
  0
LINE
  8
0
 62
     0
 10
102.445
 20
34.6425
 30
0.0
 11
101.646
 21
34.6425
 31
0.0
  0
LINE
  8
0
 62
     0
 10
101.646
 20
34.6425
 30
0.0
 11
101.646
 21
31.5419
 31
0.0
  0
LINE
  8
0
 62
     0
 10
101.646
 20
31.5419
 30
0.0
 11
102.445
 21
31.5419
 31
0.0
  0
LINE
  8
0
 62
     0
 10
102.445
 20
31.5419
 30
0.0
 11
102.445
 21
25.7418
 31
0.0
  0
LINE
  8
0
 62
     0
 10
102.445
 20
25.7418
 30
0.0
 11
101.646
 21
25.7418
 31
0.0
  0
LINE
  8
0
 62
     0
 10
101.646
 20
25.7418
 30
0.0
 11
101.646
 21
22.6425
 31
0.0
  0
LINE
  8
0
 62
     0
 10
101.646
 20
22.6425
 30
0.0
 11
102.445
 21
22.6425
 31
0.0
  0
LINE
  8
0
 62
     0
 10
102.445
 20
22.6425
 30
0.0
 11
102.445
 21
21.6421
 31
0.0
  0
LINE
  8
0
 62
     0
 10
102.445
 20
21.6421
 30
0.0
 11
116.444
 21
21.6421
 31
0.0
  0
LINE
  8
0
 62
     0
 10
116.444
 20
21.6421
 30
0.0
 11
116.444
 21
22.6425
 31
0.0
  0
LINE
  8
0
 62
     0
 10
116.444
 20
22.6425
 30
0.0
 11
117.245
 21
22.6425
 31
0.0
  0
LINE
  8
0
 62
     0
 10
117.245
 20
22.6425
 30
0.0
 11
117.245
 21
25.7418
 31
0.0
  0
LINE
  8
0
 62
     0
 10
117.245
 20
25.7418
 30
0.0
 11
116.444
 21
25.7418
 31
0.0
  0
LINE
  8
0
 62
     0
 10
116.444
 20
25.7418
 30
0.0
 11
116.444
 21
31.5419
 31
0.0
  0
LINE
  8
0
 62
     0
 10
116.444
 20
31.5419
 30
0.0
 11
117.245
 21
31.5419
 31
0.0
  0
LINE
  8
0
 62
     0
 10
117.245
 20
31.5419
 30
0.0
 11
117.245
 21
34.6425
 31
0.0
  0
LINE
  8
0
 62
     0
 10
117.245
 20
34.6425
 30
0.0
 11
116.444
 21
34.6425
 31
0.0
  0
LINE
  8
0
 62
     0
 10
116.444
 20
34.6425
 30
0.0
 11
116.444
 21
35.6429
 31
0.0
  0
LINE
  8
0
 62
     0
 10
116.444
 20
35.6429
 30
0.0
 11
102.445
 21
35.6429
 31
0.0
  0
LINE
  8
0
 62
     0
 10
121.496
 20
35.6429
 30
0.0
 11
121.496
 21
34.6425
 31
0.0
  0
LINE
  8
0
 62
     0
 10
121.496
 20
34.6425
 30
0.0
 11
120.694
 21
34.6425
 31
0.0
  0
LINE
  8
0
 62
     0
 10
120.694
 20
34.6425
 30
0.0
 11
120.694
 21
31.5419
 31
0.0
  0
LINE
  8
0
 62
     0
 10
120.694
 20
31.5419
 30
0.0
 11
121.496
 21
31.5419
 31
0.0
  0
LINE
  8
0
 62
     0
 10
121.496
 20
31.5419
 30
0.0
 11
121.496
 21
25.7418
 31
0.0
  0
LINE
  8
0
 62
     0
 10
121.496
 20
25.7418
 30
0.0
 11
120.694
 21
25.7418
 31
0.0
  0
LINE
  8
0
 62
     0
 10
120.694
 20
25.7418
 30
0.0
 11
120.694
 21
22.6425
 31
0.0
  0
LINE
  8
0
 62
     0
 10
120.694
 20
22.6425
 30
0.0
 11
121.496
 21
22.6425
 31
0.0
  0
LINE
  8
0
 62
     0
 10
121.496
 20
22.6425
 30
0.0
 11
121.496
 21
21.6421
 31
0.0
  0
LINE
  8
0
 62
     0
 10
121.496
 20
21.6421
 30
0.0
 11
135.496
 21
21.6421
 31
0.0
  0
LINE
  8
0
 62
     0
 10
135.496
 20
21.6421
 30
0.0
 11
135.496
 21
22.6425
 31
0.0
  0
LINE
  8
0
 62
     0
 10
135.496
 20
22.6425
 30
0.0
 11
136.295
 21
22.6425
 31
0.0
  0
LINE
  8
0
 62
     0
 10
136.295
 20
22.6425
 30
0.0
 11
136.295
 21
25.7418
 31
0.0
  0
LINE
  8
0
 62
     0
 10
136.295
 20
25.7418
 30
0.0
 11
135.496
 21
25.7418
 31
0.0
  0
LINE
  8
0
 62
     0
 10
135.496
 20
25.7418
 30
0.0
 11
135.496
 21
31.5419
 31
0.0
  0
LINE
  8
0
 62
     0
 10
135.496
 20
31.5419
 30
0.0
 11
136.295
 21
31.5419
 31
0.0
  0
LINE
  8
0
 62
     0
 10
136.295
 20
31.5419
 30
0.0
 11
136.295
 21
34.6425
 31
0.0
  0
LINE
  8
0
 62
     0
 10
136.295
 20
34.6425
 30
0.0
 11
135.496
 21
34.6425
 31
0.0
  0
LINE
  8
0
 62
     0
 10
135.496
 20
34.6425
 30
0.0
 11
135.496
 21
35.6429
 31
0.0
  0
LINE
  8
0
 62
     0
 10
135.496
 20
35.6429
 30
0.0
 11
121.496
 21
35.6429
 31
0.0
  0
LINE
  8
0
 62
     0
 10
140.545
 20
35.6429
 30
0.0
 11
140.545
 21
34.6425
 31
0.0
  0
LINE
  8
0
 62
     0
 10
140.545
 20
34.6425
 30
0.0
 11
139.746
 21
34.6425
 31
0.0
  0
LINE
  8
0
 62
     0
 10
139.746
 20
34.6425
 30
0.0
 11
139.746
 21
31.5419
 31
0.0
  0
LINE
  8
0
 62
     0
 10
139.746
 20
31.5419
 30
0.0
 11
140.545
 21
31.5419
 31
0.0
  0
LINE
  8
0
 62
     0
 10
140.545
 20
31.5419
 30
0.0
 11
140.545
 21
25.7418
 31
0.0
  0
LINE
  8
0
 62
     0
 10
140.545
 20
25.7418
 30
0.0
 11
139.746
 21
25.7418
 31
0.0
  0
LINE
  8
0
 62
     0
 10
139.746
 20
25.7418
 30
0.0
 11
139.746
 21
22.6425
 31
0.0
  0
LINE
  8
0
 62
     0
 10
139.746
 20
22.6425
 30
0.0
 11
140.545
 21
22.6425
 31
0.0
  0
LINE
  8
0
 62
     0
 10
140.545
 20
22.6425
 30
0.0
 11
140.545
 21
21.6421
 31
0.0
  0
LINE
  8
0
 62
     0
 10
140.545
 20
21.6421
 30
0.0
 11
154.544
 21
21.6421
 31
0.0
  0
LINE
  8
0
 62
     0
 10
154.544
 20
21.6421
 30
0.0
 11
154.544
 21
22.6425
 31
0.0
  0
LINE
  8
0
 62
     0
 10
154.544
 20
22.6425
 30
0.0
 11
155.345
 21
22.6425
 31
0.0
  0
LINE
  8
0
 62
     0
 10
155.345
 20
22.6425
 30
0.0
 11
155.345
 21
25.7418
 31
0.0
  0
LINE
  8
0
 62
     0
 10
155.345
 20
25.7418
 30
0.0
 11
154.544
 21
25.7418
 31
0.0
  0
LINE
  8
0
 62
     0
 10
154.544
 20
25.7418
 30
0.0
 11
154.544
 21
31.5419
 31
0.0
  0
LINE
  8
0
 62
     0
 10
154.544
 20
31.5419
 30
0.0
 11
155.345
 21
31.5419
 31
0.0
  0
LINE
  8
0
 62
     0
 10
155.345
 20
31.5419
 30
0.0
 11
155.345
 21
34.6425
 31
0.0
  0
LINE
  8
0
 62
     0
 10
155.345
 20
34.6425
 30
0.0
 11
154.544
 21
34.6425
 31
0.0
  0
LINE
  8
0
 62
     0
 10
154.544
 20
34.6425
 30
0.0
 11
154.544
 21
35.6429
 31
0.0
  0
LINE
  8
0
 62
     0
 10
154.544
 20
35.6429
 30
0.0
 11
140.545
 21
35.6429
 31
0.0
  0
LINE
  8
0
 62
     0
 10
159.596
 20
35.6429
 30
0.0
 11
159.596
 21
34.6425
 31
0.0
  0
LINE
  8
0
 62
     0
 10
159.596
 20
34.6425
 30
0.0
 11
158.794
 21
34.6425
 31
0.0
  0
LINE
  8
0
 62
     0
 10
158.794
 20
34.6425
 30
0.0
 11
158.794
 21
31.5419
 31
0.0
  0
LINE
  8
0
 62
     0
 10
158.794
 20
31.5419
 30
0.0
 11
159.596
 21
31.5419
 31
0.0
  0
LINE
  8
0
 62
     0
 10
159.596
 20
31.5419
 30
0.0
 11
159.596
 21
25.7418
 31
0.0
  0
LINE
  8
0
 62
     0
 10
159.596
 20
25.7418
 30
0.0
 11
158.794
 21
25.7418
 31
0.0
  0
LINE
  8
0
 62
     0
 10
158.794
 20
25.7418
 30
0.0
 11
158.794
 21
22.6425
 31
0.0
  0
LINE
  8
0
 62
     0
 10
158.794
 20
22.6425
 30
0.0
 11
159.596
 21
22.6425
 31
0.0
  0
LINE
  8
0
 62
     0
 10
159.596
 20
22.6425
 30
0.0
 11
159.596
 21
21.6421
 31
0.0
  0
LINE
  8
0
 62
     0
 10
159.596
 20
21.6421
 30
0.0
 11
173.596
 21
21.6421
 31
0.0
  0
LINE
  8
0
 62
     0
 10
173.596
 20
21.6421
 30
0.0
 11
173.596
 21
22.6425
 31
0.0
  0
LINE
  8
0
 62
     0
 10
173.596
 20
22.6425
 30
0.0
 11
174.395
 21
22.6425
 31
0.0
  0
LINE
  8
0
 62
     0
 10
174.395
 20
22.6425
 30
0.0
 11
174.395
 21
25.7418
 31
0.0
  0
LINE
  8
0
 62
     0
 10
174.395
 20
25.7418
 30
0.0
 11
173.596
 21
25.7418
 31
0.0
  0
LINE
  8
0
 62
     0
 10
173.596
 20
25.7418
 30
0.0
 11
173.596
 21
31.5419
 31
0.0
  0
LINE
  8
0
 62
     0
 10
173.596
 20
31.5419
 30
0.0
 11
174.395
 21
31.5419
 31
0.0
  0
LINE
  8
0
 62
     0
 10
174.395
 20
31.5419
 30
0.0
 11
174.395
 21
34.6425
 31
0.0
  0
LINE
  8
0
 62
     0
 10
174.395
 20
34.6425
 30
0.0
 11
173.596
 21
34.6425
 31
0.0
  0
LINE
  8
0
 62
     0
 10
173.596
 20
34.6425
 30
0.0
 11
173.596
 21
35.6429
 31
0.0
  0
LINE
  8
0
 62
     0
 10
173.596
 20
35.6429
 30
0.0
 11
159.596
 21
35.6429
 31
0.0
  0
LINE
  8
0
 62
     0
 10
178.646
 20
35.6429
 30
0.0
 11
178.646
 21
34.6425
 31
0.0
  0
LINE
  8
0
 62
     0
 10
178.646
 20
34.6425
 30
0.0
 11
177.846
 21
34.6425
 31
0.0
  0
LINE
  8
0
 62
     0
 10
177.846
 20
34.6425
 30
0.0
 11
177.846
 21
31.5419
 31
0.0
  0
LINE
  8
0
 62
     0
 10
177.846
 20
31.5419
 30
0.0
 11
178.646
 21
31.5419
 31
0.0
  0
LINE
  8
0
 62
     0
 10
178.646
 20
31.5419
 30
0.0
 11
178.646
 21
25.7418
 31
0.0
  0
LINE
  8
0
 62
     0
 10
178.646
 20
25.7418
 30
0.0
 11
177.846
 21
25.7418
 31
0.0
  0
LINE
  8
0
 62
     0
 10
177.846
 20
25.7418
 30
0.0
 11
177.846
 21
22.6425
 31
0.0
  0
LINE
  8
0
 62
     0
 10
177.846
 20
22.6425
 30
0.0
 11
178.646
 21
22.6425
 31
0.0
  0
LINE
  8
0
 62
     0
 10
178.646
 20
22.6425
 30
0.0
 11
178.646
 21
21.6421
 31
0.0
  0
LINE
  8
0
 62
     0
 10
178.646
 20
21.6421
 30
0.0
 11
192.646
 21
21.6421
 31
0.0
  0
LINE
  8
0
 62
     0
 10
192.646
 20
21.6421
 30
0.0
 11
192.646
 21
22.6425
 31
0.0
  0
LINE
  8
0
 62
     0
 10
192.646
 20
22.6425
 30
0.0
 11
193.445
 21
22.6425
 31
0.0
  0
LINE
  8
0
 62
     0
 10
193.445
 20
22.6425
 30
0.0
 11
193.445
 21
25.7418
 31
0.0
  0
LINE
  8
0
 62
     0
 10
193.445
 20
25.7418
 30
0.0
 11
192.646
 21
25.7418
 31
0.0
  0
LINE
  8
0
 62
     0
 10
192.646
 20
25.7418
 30
0.0
 11
192.646
 21
31.5419
 31
0.0
  0
LINE
  8
0
 62
     0
 10
192.646
 20
31.5419
 30
0.0
 11
193.445
 21
31.5419
 31
0.0
  0
LINE
  8
0
 62
     0
 10
193.445
 20
31.5419
 30
0.0
 11
193.445
 21
34.6425
 31
0.0
  0
LINE
  8
0
 62
     0
 10
193.445
 20
34.6425
 30
0.0
 11
192.646
 21
34.6425
 31
0.0
  0
LINE
  8
0
 62
     0
 10
192.646
 20
34.6425
 30
0.0
 11
192.646
 21
35.6429
 31
0.0
  0
LINE
  8
0
 62
     0
 10
192.646
 20
35.6429
 30
0.0
 11
178.646
 21
35.6429
 31
0.0
  0
LINE
  8
0
 62
     0
 10
197.695
 20
35.6429
 30
0.0
 11
197.695
 21
34.6425
 31
0.0
  0
LINE
  8
0
 62
     0
 10
197.695
 20
34.6425
 30
0.0
 11
196.896
 21
34.6425
 31
0.0
  0
LINE
  8
0
 62
     0
 10
196.896
 20
34.6425
 30
0.0
 11
196.896
 21
31.5419
 31
0.0
  0
LINE
  8
0
 62
     0
 10
196.896
 20
31.5419
 30
0.0
 11
197.695
 21
31.5419
 31
0.0
  0
LINE
  8
0
 62
     0
 10
197.695
 20
31.5419
 30
0.0
 11
197.695
 21
25.7418
 31
0.0
  0
LINE
  8
0
 62
     0
 10
197.695
 20
25.7418
 30
0.0
 11
196.896
 21
25.7418
 31
0.0
  0
LINE
  8
0
 62
     0
 10
196.896
 20
25.7418
 30
0.0
 11
196.896
 21
22.6425
 31
0.0
  0
LINE
  8
0
 62
     0
 10
196.896
 20
22.6425
 30
0.0
 11
197.695
 21
22.6425
 31
0.0
  0
LINE
  8
0
 62
     0
 10
197.695
 20
22.6425
 30
0.0
 11
197.695
 21
21.6421
 31
0.0
  0
LINE
  8
0
 62
     0
 10
197.695
 20
21.6421
 30
0.0
 11
211.694
 21
21.6421
 31
0.0
  0
LINE
  8
0
 62
     0
 10
211.694
 20
21.6421
 30
0.0
 11
211.694
 21
22.6425
 31
0.0
  0
LINE
  8
0
 62
     0
 10
211.694
 20
22.6425
 30
0.0
 11
212.495
 21
22.6425
 31
0.0
  0
LINE
  8
0
 62
     0
 10
212.495
 20
22.6425
 30
0.0
 11
212.495
 21
25.7418
 31
0.0
  0
LINE
  8
0
 62
     0
 10
212.495
 20
25.7418
 30
0.0
 11
211.694
 21
25.7418
 31
0.0
  0
LINE
  8
0
 62
     0
 10
211.694
 20
25.7418
 30
0.0
 11
211.694
 21
31.5419
 31
0.0
  0
LINE
  8
0
 62
     0
 10
211.694
 20
31.5419
 30
0.0
 11
212.495
 21
31.5419
 31
0.0
  0
LINE
  8
0
 62
     0
 10
212.495
 20
31.5419
 30
0.0
 11
212.495
 21
34.6425
 31
0.0
  0
LINE
  8
0
 62
     0
 10
212.495
 20
34.6425
 30
0.0
 11
211.694
 21
34.6425
 31
0.0
  0
LINE
  8
0
 62
     0
 10
211.694
 20
34.6425
 30
0.0
 11
211.694
 21
35.6429
 31
0.0
  0
LINE
  8
0
 62
     0
 10
211.694
 20
35.6429
 30
0.0
 11
197.695
 21
35.6429
 31
0.0
  0
LINE
  8
0
 62
     0
 10
216.746
 20
35.6429
 30
0.0
 11
216.746
 21
34.6425
 31
0.0
  0
LINE
  8
0
 62
     0
 10
216.746
 20
34.6425
 30
0.0
 11
215.944
 21
34.6425
 31
0.0
  0
LINE
  8
0
 62
     0
 10
215.944
 20
34.6425
 30
0.0
 11
215.944
 21
31.5419
 31
0.0
  0
LINE
  8
0
 62
     0
 10
215.944
 20
31.5419
 30
0.0
 11
216.746
 21
31.5419
 31
0.0
  0
LINE
  8
0
 62
     0
 10
216.746
 20
31.5419
 30
0.0
 11
216.746
 21
25.7418
 31
0.0
  0
LINE
  8
0
 62
     0
 10
216.746
 20
25.7418
 30
0.0
 11
215.944
 21
25.7418
 31
0.0
  0
LINE
  8
0
 62
     0
 10
215.944
 20
25.7418
 30
0.0
 11
215.944
 21
22.6425
 31
0.0
  0
LINE
  8
0
 62
     0
 10
215.944
 20
22.6425
 30
0.0
 11
216.746
 21
22.6425
 31
0.0
  0
LINE
  8
0
 62
     0
 10
216.746
 20
22.6425
 30
0.0
 11
216.746
 21
21.6421
 31
0.0
  0
LINE
  8
0
 62
     0
 10
216.746
 20
21.6421
 30
0.0
 11
230.746
 21
21.6421
 31
0.0
  0
LINE
  8
0
 62
     0
 10
230.746
 20
21.6421
 30
0.0
 11
230.746
 21
22.6425
 31
0.0
  0
LINE
  8
0
 62
     0
 10
230.746
 20
22.6425
 30
0.0
 11
231.545
 21
22.6425
 31
0.0
  0
LINE
  8
0
 62
     0
 10
231.545
 20
22.6425
 30
0.0
 11
231.545
 21
25.7418
 31
0.0
  0
LINE
  8
0
 62
     0
 10
231.545
 20
25.7418
 30
0.0
 11
230.746
 21
25.7418
 31
0.0
  0
LINE
  8
0
 62
     0
 10
230.746
 20
25.7418
 30
0.0
 11
230.746
 21
31.5419
 31
0.0
  0
LINE
  8
0
 62
     0
 10
230.746
 20
31.5419
 30
0.0
 11
231.545
 21
31.5419
 31
0.0
  0
LINE
  8
0
 62
     0
 10
231.545
 20
31.5419
 30
0.0
 11
231.545
 21
34.6425
 31
0.0
  0
LINE
  8
0
 62
     0
 10
231.545
 20
34.6425
 30
0.0
 11
230.746
 21
34.6425
 31
0.0
  0
LINE
  8
0
 62
     0
 10
230.746
 20
34.6425
 30
0.0
 11
230.746
 21
35.6429
 31
0.0
  0
LINE
  8
0
 62
     0
 10
230.746
 20
35.6429
 30
0.0
 11
216.746
 21
35.6429
 31
0.0
  0
LINE
  8
0
 62
     0
 10
257.225
 20
54.6915
 30
0.0
 11
257.225
 21
53.691
 31
0.0
  0
LINE
  8
0
 62
     0
 10
257.225
 20
53.691
 30
0.0
 11
256.425
 21
53.691
 31
0.0
  0
LINE
  8
0
 62
     0
 10
256.425
 20
53.691
 30
0.0
 11
256.425
 21
50.5919
 31
0.0
  0
LINE
  8
0
 62
     0
 10
256.425
 20
50.5919
 30
0.0
 11
257.225
 21
50.5919
 31
0.0
  0
LINE
  8
0
 62
     0
 10
257.225
 20
50.5919
 30
0.0
 11
257.225
 21
49.9925
 31
0.0
  0
LINE
  8
0
 62
     0
 10
257.225
 20
49.9925
 30
0.0
 11
255.7
 21
49.9925
 31
0.0
  0
LINE
  8
0
 62
     0
 10
255.7
 20
49.9925
 30
0.0
 11
255.7
 21
53.2211
 31
0.0
  0
LINE
  8
0
 62
     0
 10
255.7
 20
53.2211
 30
0.0
 11
253.974
 21
53.2211
 31
0.0
  0
LINE
  8
0
 62
     0
 10
253.974
 20
53.2211
 30
0.0
 11
253.974
 21
54.1433
 31
0.0
  0
LINE
  8
0
 62
     0
 10
253.974
 20
54.1433
 30
0.0
 11
250.676
 21
54.1433
 31
0.0
  0
LINE
  8
0
 62
     0
 10
250.676
 20
54.1433
 30
0.0
 11
250.676
 21
53.2211
 31
0.0
  0
LINE
  8
0
 62
     0
 10
250.676
 20
53.2211
 30
0.0
 11
248.951
 21
53.2211
 31
0.0
  0
LINE
  8
0
 62
     0
 10
248.951
 20
53.2211
 30
0.0
 11
248.951
 21
49.9925
 31
0.0
  0
LINE
  8
0
 62
     0
 10
248.951
 20
49.9925
 30
0.0
 11
248.127
 21
49.9925
 31
0.0
  0
LINE
  8
0
 62
     0
 10
248.127
 20
49.9925
 30
0.0
 11
248.127
 21
47.1911
 31
0.0
  0
LINE
  8
0
 62
     0
 10
248.127
 20
47.1911
 30
0.0
 11
248.951
 21
47.1911
 31
0.0
  0
LINE
  8
0
 62
     0
 10
248.951
 20
47.1911
 30
0.0
 11
248.951
 21
40.9222
 31
0.0
  0
LINE
  8
0
 62
     0
 10
248.951
 20
40.9222
 30
0.0
 11
250.676
 21
40.9222
 31
0.0
  0
LINE
  8
0
 62
     0
 10
250.676
 20
40.9222
 30
0.0
 11
250.676
 21
39.9411
 31
0.0
  0
LINE
  8
0
 62
     0
 10
250.676
 20
39.9411
 30
0.0
 11
253.974
 21
39.9411
 31
0.0
  0
LINE
  8
0
 62
     0
 10
253.974
 20
39.9411
 30
0.0
 11
253.974
 21
40.9222
 31
0.0
  0
LINE
  8
0
 62
     0
 10
253.974
 20
40.9222
 30
0.0
 11
255.7
 21
40.9222
 31
0.0
  0
LINE
  8
0
 62
     0
 10
255.7
 20
40.9222
 30
0.0
 11
255.7
 21
45.3926
 31
0.0
  0
LINE
  8
0
 62
     0
 10
255.7
 20
45.3926
 30
0.0
 11
257.225
 21
45.3926
 31
0.0
  0
LINE
  8
0
 62
     0
 10
257.225
 20
45.3926
 30
0.0
 11
257.225
 21
44.7918
 31
0.0
  0
LINE
  8
0
 62
     0
 10
257.225
 20
44.7918
 30
0.0
 11
256.425
 21
44.7918
 31
0.0
  0
LINE
  8
0
 62
     0
 10
256.425
 20
44.7918
 30
0.0
 11
256.425
 21
41.6913
 31
0.0
  0
LINE
  8
0
 62
     0
 10
256.425
 20
41.6913
 30
0.0
 11
257.225
 21
41.6913
 31
0.0
  0
LINE
  8
0
 62
     0
 10
257.225
 20
41.6913
 30
0.0
 11
257.225
 21
40.6922
 31
0.0
  0
LINE
  8
0
 62
     0
 10
257.225
 20
40.6922
 30
0.0
 11
271.225
 21
40.6922
 31
0.0
  0
LINE
  8
0
 62
     0
 10
271.225
 20
40.6922
 30
0.0
 11
271.225
 21
41.6913
 31
0.0
  0
LINE
  8
0
 62
     0
 10
271.225
 20
41.6913
 30
0.0
 11
272.026
 21
41.6913
 31
0.0
  0
LINE
  8
0
 62
     0
 10
272.026
 20
41.6913
 30
0.0
 11
272.026
 21
44.7918
 31
0.0
  0
LINE
  8
0
 62
     0
 10
272.026
 20
44.7918
 30
0.0
 11
271.225
 21
44.7918
 31
0.0
  0
LINE
  8
0
 62
     0
 10
271.225
 20
44.7918
 30
0.0
 11
271.225
 21
45.3926
 31
0.0
  0
LINE
  8
0
 62
     0
 10
271.225
 20
45.3926
 30
0.0
 11
272.751
 21
45.3926
 31
0.0
  0
LINE
  8
0
 62
     0
 10
272.751
 20
45.3926
 30
0.0
 11
272.751
 21
40.9222
 31
0.0
  0
LINE
  8
0
 62
     0
 10
272.751
 20
40.9222
 30
0.0
 11
274.475
 21
40.9222
 31
0.0
  0
LINE
  8
0
 62
     0
 10
274.475
 20
40.9222
 30
0.0
 11
274.475
 21
39.9411
 31
0.0
  0
LINE
  8
0
 62
     0
 10
274.475
 20
39.9411
 30
0.0
 11
277.775
 21
39.9411
 31
0.0
  0
LINE
  8
0
 62
     0
 10
277.775
 20
39.9411
 30
0.0
 11
277.775
 21
40.9222
 31
0.0
  0
LINE
  8
0
 62
     0
 10
277.775
 20
40.9222
 30
0.0
 11
279.501
 21
40.9222
 31
0.0
  0
LINE
  8
0
 62
     0
 10
279.501
 20
40.9222
 30
0.0
 11
279.501
 21
47.1911
 31
0.0
  0
LINE
  8
0
 62
     0
 10
279.501
 20
47.1911
 30
0.0
 11
280.326
 21
47.1911
 31
0.0
  0
LINE
  8
0
 62
     0
 10
280.326
 20
47.1911
 30
0.0
 11
280.326
 21
49.9925
 31
0.0
  0
LINE
  8
0
 62
     0
 10
280.326
 20
49.9925
 30
0.0
 11
279.501
 21
49.9925
 31
0.0
  0
LINE
  8
0
 62
     0
 10
279.501
 20
49.9925
 30
0.0
 11
279.501
 21
53.2211
 31
0.0
  0
LINE
  8
0
 62
     0
 10
279.501
 20
53.2211
 30
0.0
 11
277.775
 21
53.2211
 31
0.0
  0
LINE
  8
0
 62
     0
 10
277.775
 20
53.2211
 30
0.0
 11
277.775
 21
54.1433
 31
0.0
  0
LINE
  8
0
 62
     0
 10
277.775
 20
54.1433
 30
0.0
 11
274.475
 21
54.1433
 31
0.0
  0
LINE
  8
0
 62
     0
 10
274.475
 20
54.1433
 30
0.0
 11
274.475
 21
53.2211
 31
0.0
  0
LINE
  8
0
 62
     0
 10
274.475
 20
53.2211
 30
0.0
 11
272.751
 21
53.2211
 31
0.0
  0
LINE
  8
0
 62
     0
 10
272.751
 20
53.2211
 30
0.0
 11
272.751
 21
49.9925
 31
0.0
  0
LINE
  8
0
 62
     0
 10
272.751
 20
49.9925
 30
0.0
 11
271.225
 21
49.9925
 31
0.0
  0
LINE
  8
0
 62
     0
 10
271.225
 20
49.9925
 30
0.0
 11
271.225
 21
50.5919
 31
0.0
  0
LINE
  8
0
 62
     0
 10
271.225
 20
50.5919
 30
0.0
 11
272.026
 21
50.5919
 31
0.0
  0
LINE
  8
0
 62
     0
 10
272.026
 20
50.5919
 30
0.0
 11
272.026
 21
53.691
 31
0.0
  0
LINE
  8
0
 62
     0
 10
272.026
 20
53.691
 30
0.0
 11
271.225
 21
53.691
 31
0.0
  0
LINE
  8
0
 62
     0
 10
271.225
 20
53.691
 30
0.0
 11
271.225
 21
54.6915
 31
0.0
  0
LINE
  8
0
 62
     0
 10
271.225
 20
54.6915
 30
0.0
 11
257.225
 21
54.6915
 31
0.0
  0
LINE
  8
0
 62
     0
 10
9.57598
 20
54.6915
 30
0.0
 11
9.57598
 21
53.691
 31
0.0
  0
LINE
  8
0
 62
     0
 10
9.57598
 20
53.691
 30
0.0
 11
8.77672
 21
53.691
 31
0.0
  0
LINE
  8
0
 62
     0
 10
8.77672
 20
53.691
 30
0.0
 11
8.77672
 21
50.5919
 31
0.0
  0
LINE
  8
0
 62
     0
 10
8.77672
 20
50.5919
 30
0.0
 11
9.57598
 21
50.5919
 31
0.0
  0
LINE
  8
0
 62
     0
 10
9.57598
 20
50.5919
 30
0.0
 11
9.57598
 21
44.7918
 31
0.0
  0
LINE
  8
0
 62
     0
 10
9.57598
 20
44.7918
 30
0.0
 11
8.77672
 21
44.7918
 31
0.0
  0
LINE
  8
0
 62
     0
 10
8.77672
 20
44.7918
 30
0.0
 11
8.77672
 21
41.6913
 31
0.0
  0
LINE
  8
0
 62
     0
 10
8.77672
 20
41.6913
 30
0.0
 11
9.57598
 21
41.6913
 31
0.0
  0
LINE
  8
0
 62
     0
 10
9.57598
 20
41.6913
 30
0.0
 11
9.57598
 21
40.6922
 31
0.0
  0
LINE
  8
0
 62
     0
 10
9.57598
 20
40.6922
 30
0.0
 11
23.5768
 21
40.6922
 31
0.0
  0
LINE
  8
0
 62
     0
 10
23.5768
 20
40.6922
 30
0.0
 11
23.5768
 21
41.6913
 31
0.0
  0
LINE
  8
0
 62
     0
 10
23.5768
 20
41.6913
 30
0.0
 11
24.3761
 21
41.6913
 31
0.0
  0
LINE
  8
0
 62
     0
 10
24.3761
 20
41.6913
 30
0.0
 11
24.3761
 21
44.7918
 31
0.0
  0
LINE
  8
0
 62
     0
 10
24.3761
 20
44.7918
 30
0.0
 11
23.5768
 21
44.7918
 31
0.0
  0
LINE
  8
0
 62
     0
 10
23.5768
 20
44.7918
 30
0.0
 11
23.5768
 21
50.5919
 31
0.0
  0
LINE
  8
0
 62
     0
 10
23.5768
 20
50.5919
 30
0.0
 11
24.3761
 21
50.5919
 31
0.0
  0
LINE
  8
0
 62
     0
 10
24.3761
 20
50.5919
 30
0.0
 11
24.3761
 21
53.691
 31
0.0
  0
LINE
  8
0
 62
     0
 10
24.3761
 20
53.691
 30
0.0
 11
23.5768
 21
53.691
 31
0.0
  0
LINE
  8
0
 62
     0
 10
23.5768
 20
53.691
 30
0.0
 11
23.5768
 21
54.6915
 31
0.0
  0
LINE
  8
0
 62
     0
 10
23.5768
 20
54.6915
 30
0.0
 11
9.57598
 21
54.6915
 31
0.0
  0
LINE
  8
0
 62
     0
 10
35.771
 20
54.6915
 30
0.0
 11
35.771
 21
53.691
 31
0.0
  0
LINE
  8
0
 62
     0
 10
35.771
 20
53.691
 30
0.0
 11
34.9705
 21
53.691
 31
0.0
  0
LINE
  8
0
 62
     0
 10
34.9705
 20
53.691
 30
0.0
 11
34.9705
 21
50.5919
 31
0.0
  0
LINE
  8
0
 62
     0
 10
34.9705
 20
50.5919
 30
0.0
 11
35.771
 21
50.5919
 31
0.0
  0
LINE
  8
0
 62
     0
 10
35.771
 20
50.5919
 30
0.0
 11
35.771
 21
44.7918
 31
0.0
  0
LINE
  8
0
 62
     0
 10
35.771
 20
44.7918
 30
0.0
 11
34.9705
 21
44.7918
 31
0.0
  0
LINE
  8
0
 62
     0
 10
34.9705
 20
44.7918
 30
0.0
 11
34.9705
 21
41.6913
 31
0.0
  0
LINE
  8
0
 62
     0
 10
34.9705
 20
41.6913
 30
0.0
 11
35.771
 21
41.6913
 31
0.0
  0
LINE
  8
0
 62
     0
 10
35.771
 20
41.6913
 30
0.0
 11
35.771
 21
40.6922
 31
0.0
  0
LINE
  8
0
 62
     0
 10
35.771
 20
40.6922
 30
0.0
 11
49.7706
 21
40.6922
 31
0.0
  0
LINE
  8
0
 62
     0
 10
49.7706
 20
40.6922
 30
0.0
 11
49.7706
 21
41.6913
 31
0.0
  0
LINE
  8
0
 62
     0
 10
49.7706
 20
41.6913
 30
0.0
 11
50.5686
 21
41.6913
 31
0.0
  0
LINE
  8
0
 62
     0
 10
50.5686
 20
41.6913
 30
0.0
 11
50.5686
 21
44.7918
 31
0.0
  0
LINE
  8
0
 62
     0
 10
50.5686
 20
44.7918
 30
0.0
 11
49.7706
 21
44.7918
 31
0.0
  0
LINE
  8
0
 62
     0
 10
49.7706
 20
44.7918
 30
0.0
 11
49.7706
 21
50.5919
 31
0.0
  0
LINE
  8
0
 62
     0
 10
49.7706
 20
50.5919
 30
0.0
 11
50.5686
 21
50.5919
 31
0.0
  0
LINE
  8
0
 62
     0
 10
50.5686
 20
50.5919
 30
0.0
 11
50.5686
 21
53.691
 31
0.0
  0
LINE
  8
0
 62
     0
 10
50.5686
 20
53.691
 30
0.0
 11
49.7706
 21
53.691
 31
0.0
  0
LINE
  8
0
 62
     0
 10
49.7706
 20
53.691
 30
0.0
 11
49.7706
 21
54.6915
 31
0.0
  0
LINE
  8
0
 62
     0
 10
49.7706
 20
54.6915
 30
0.0
 11
35.771
 21
54.6915
 31
0.0
  0
LINE
  8
0
 62
     0
 10
54.8185
 20
54.6915
 30
0.0
 11
54.8185
 21
53.691
 31
0.0
  0
LINE
  8
0
 62
     0
 10
54.8185
 20
53.691
 30
0.0
 11
54.0205
 21
53.691
 31
0.0
  0
LINE
  8
0
 62
     0
 10
54.0205
 20
53.691
 30
0.0
 11
54.0205
 21
50.5919
 31
0.0
  0
LINE
  8
0
 62
     0
 10
54.0205
 20
50.5919
 30
0.0
 11
54.8185
 21
50.5919
 31
0.0
  0
LINE
  8
0
 62
     0
 10
54.8185
 20
50.5919
 30
0.0
 11
54.8185
 21
44.7918
 31
0.0
  0
LINE
  8
0
 62
     0
 10
54.8185
 20
44.7918
 30
0.0
 11
54.0205
 21
44.7918
 31
0.0
  0
LINE
  8
0
 62
     0
 10
54.0205
 20
44.7918
 30
0.0
 11
54.0205
 21
41.6913
 31
0.0
  0
LINE
  8
0
 62
     0
 10
54.0205
 20
41.6913
 30
0.0
 11
54.8185
 21
41.6913
 31
0.0
  0
LINE
  8
0
 62
     0
 10
54.8185
 20
41.6913
 30
0.0
 11
54.8185
 21
40.6922
 31
0.0
  0
LINE
  8
0
 62
     0
 10
54.8185
 20
40.6922
 30
0.0
 11
68.8192
 21
40.6922
 31
0.0
  0
LINE
  8
0
 62
     0
 10
68.8192
 20
40.6922
 30
0.0
 11
68.8192
 21
41.6913
 31
0.0
  0
LINE
  8
0
 62
     0
 10
68.8192
 20
41.6913
 30
0.0
 11
69.62
 21
41.6913
 31
0.0
  0
LINE
  8
0
 62
     0
 10
69.62
 20
41.6913
 30
0.0
 11
69.62
 21
44.7918
 31
0.0
  0
LINE
  8
0
 62
     0
 10
69.62
 20
44.7918
 30
0.0
 11
68.8192
 21
44.7918
 31
0.0
  0
LINE
  8
0
 62
     0
 10
68.8192
 20
44.7918
 30
0.0
 11
68.8192
 21
50.5919
 31
0.0
  0
LINE
  8
0
 62
     0
 10
68.8192
 20
50.5919
 30
0.0
 11
69.62
 21
50.5919
 31
0.0
  0
LINE
  8
0
 62
     0
 10
69.62
 20
50.5919
 30
0.0
 11
69.62
 21
53.691
 31
0.0
  0
LINE
  8
0
 62
     0
 10
69.62
 20
53.691
 30
0.0
 11
68.8192
 21
53.691
 31
0.0
  0
LINE
  8
0
 62
     0
 10
68.8192
 20
53.691
 30
0.0
 11
68.8192
 21
54.6915
 31
0.0
  0
LINE
  8
0
 62
     0
 10
68.8192
 20
54.6915
 30
0.0
 11
54.8185
 21
54.6915
 31
0.0
  0
LINE
  8
0
 62
     0
 10
73.8699
 20
54.6915
 30
0.0
 11
73.8699
 21
53.691
 31
0.0
  0
LINE
  8
0
 62
     0
 10
73.8699
 20
53.691
 30
0.0
 11
73.0691
 21
53.691
 31
0.0
  0
LINE
  8
0
 62
     0
 10
73.0691
 20
53.691
 30
0.0
 11
73.0691
 21
50.5919
 31
0.0
  0
LINE
  8
0
 62
     0
 10
73.0691
 20
50.5919
 30
0.0
 11
73.8699
 21
50.5919
 31
0.0
  0
LINE
  8
0
 62
     0
 10
73.8699
 20
50.5919
 30
0.0
 11
73.8699
 21
44.7918
 31
0.0
  0
LINE
  8
0
 62
     0
 10
73.8699
 20
44.7918
 30
0.0
 11
73.0691
 21
44.7918
 31
0.0
  0
LINE
  8
0
 62
     0
 10
73.0691
 20
44.7918
 30
0.0
 11
73.0691
 21
41.6913
 31
0.0
  0
LINE
  8
0
 62
     0
 10
73.0691
 20
41.6913
 30
0.0
 11
73.8699
 21
41.6913
 31
0.0
  0
LINE
  8
0
 62
     0
 10
73.8699
 20
41.6913
 30
0.0
 11
73.8699
 21
40.6922
 31
0.0
  0
LINE
  8
0
 62
     0
 10
73.8699
 20
40.6922
 30
0.0
 11
87.8692
 21
40.6922
 31
0.0
  0
LINE
  8
0
 62
     0
 10
87.8692
 20
40.6922
 30
0.0
 11
87.8692
 21
41.6913
 31
0.0
  0
LINE
  8
0
 62
     0
 10
87.8692
 20
41.6913
 30
0.0
 11
88.67
 21
41.6913
 31
0.0
  0
LINE
  8
0
 62
     0
 10
88.67
 20
41.6913
 30
0.0
 11
88.67
 21
44.7918
 31
0.0
  0
LINE
  8
0
 62
     0
 10
88.67
 20
44.7918
 30
0.0
 11
87.8692
 21
44.7918
 31
0.0
  0
LINE
  8
0
 62
     0
 10
87.8692
 20
44.7918
 30
0.0
 11
87.8692
 21
50.5919
 31
0.0
  0
LINE
  8
0
 62
     0
 10
87.8692
 20
50.5919
 30
0.0
 11
88.67
 21
50.5919
 31
0.0
  0
LINE
  8
0
 62
     0
 10
88.67
 20
50.5919
 30
0.0
 11
88.67
 21
53.691
 31
0.0
  0
LINE
  8
0
 62
     0
 10
88.67
 20
53.691
 30
0.0
 11
87.8692
 21
53.691
 31
0.0
  0
LINE
  8
0
 62
     0
 10
87.8692
 20
53.691
 30
0.0
 11
87.8692
 21
54.6915
 31
0.0
  0
LINE
  8
0
 62
     0
 10
87.8692
 20
54.6915
 30
0.0
 11
73.8699
 21
54.6915
 31
0.0
  0
LINE
  8
0
 62
     0
 10
92.9199
 20
54.6915
 30
0.0
 11
92.9199
 21
53.691
 31
0.0
  0
LINE
  8
0
 62
     0
 10
92.9199
 20
53.691
 30
0.0
 11
92.1191
 21
53.691
 31
0.0
  0
LINE
  8
0
 62
     0
 10
92.1191
 20
53.691
 30
0.0
 11
92.1191
 21
50.5919
 31
0.0
  0
LINE
  8
0
 62
     0
 10
92.1191
 20
50.5919
 30
0.0
 11
92.9199
 21
50.5919
 31
0.0
  0
LINE
  8
0
 62
     0
 10
92.9199
 20
50.5919
 30
0.0
 11
92.9199
 21
44.7918
 31
0.0
  0
LINE
  8
0
 62
     0
 10
92.9199
 20
44.7918
 30
0.0
 11
92.1191
 21
44.7918
 31
0.0
  0
LINE
  8
0
 62
     0
 10
92.1191
 20
44.7918
 30
0.0
 11
92.1191
 21
41.6913
 31
0.0
  0
LINE
  8
0
 62
     0
 10
92.1191
 20
41.6913
 30
0.0
 11
92.9199
 21
41.6913
 31
0.0
  0
LINE
  8
0
 62
     0
 10
92.9199
 20
41.6913
 30
0.0
 11
92.9199
 21
40.6922
 31
0.0
  0
LINE
  8
0
 62
     0
 10
92.9199
 20
40.6922
 30
0.0
 11
106.919
 21
40.6922
 31
0.0
  0
LINE
  8
0
 62
     0
 10
106.919
 20
40.6922
 30
0.0
 11
106.919
 21
41.6913
 31
0.0
  0
LINE
  8
0
 62
     0
 10
106.919
 20
41.6913
 30
0.0
 11
107.719
 21
41.6913
 31
0.0
  0
LINE
  8
0
 62
     0
 10
107.719
 20
41.6913
 30
0.0
 11
107.719
 21
44.7918
 31
0.0
  0
LINE
  8
0
 62
     0
 10
107.719
 20
44.7918
 30
0.0
 11
106.919
 21
44.7918
 31
0.0
  0
LINE
  8
0
 62
     0
 10
106.919
 20
44.7918
 30
0.0
 11
106.919
 21
50.5919
 31
0.0
  0
LINE
  8
0
 62
     0
 10
106.919
 20
50.5919
 30
0.0
 11
107.719
 21
50.5919
 31
0.0
  0
LINE
  8
0
 62
     0
 10
107.719
 20
50.5919
 30
0.0
 11
107.719
 21
53.691
 31
0.0
  0
LINE
  8
0
 62
     0
 10
107.719
 20
53.691
 30
0.0
 11
106.919
 21
53.691
 31
0.0
  0
LINE
  8
0
 62
     0
 10
106.919
 20
53.691
 30
0.0
 11
106.919
 21
54.6915
 31
0.0
  0
LINE
  8
0
 62
     0
 10
106.919
 20
54.6915
 30
0.0
 11
92.9199
 21
54.6915
 31
0.0
  0
LINE
  8
0
 62
     0
 10
111.968
 20
54.6915
 30
0.0
 11
111.968
 21
53.691
 31
0.0
  0
LINE
  8
0
 62
     0
 10
111.968
 20
53.691
 30
0.0
 11
111.169
 21
53.691
 31
0.0
  0
LINE
  8
0
 62
     0
 10
111.169
 20
53.691
 30
0.0
 11
111.169
 21
50.5919
 31
0.0
  0
LINE
  8
0
 62
     0
 10
111.169
 20
50.5919
 30
0.0
 11
111.968
 21
50.5919
 31
0.0
  0
LINE
  8
0
 62
     0
 10
111.968
 20
50.5919
 30
0.0
 11
111.968
 21
44.7918
 31
0.0
  0
LINE
  8
0
 62
     0
 10
111.968
 20
44.7918
 30
0.0
 11
111.169
 21
44.7918
 31
0.0
  0
LINE
  8
0
 62
     0
 10
111.169
 20
44.7918
 30
0.0
 11
111.169
 21
41.6913
 31
0.0
  0
LINE
  8
0
 62
     0
 10
111.169
 20
41.6913
 30
0.0
 11
111.968
 21
41.6913
 31
0.0
  0
LINE
  8
0
 62
     0
 10
111.968
 20
41.6913
 30
0.0
 11
111.968
 21
40.6922
 31
0.0
  0
LINE
  8
0
 62
     0
 10
111.968
 20
40.6922
 30
0.0
 11
125.971
 21
40.6922
 31
0.0
  0
LINE
  8
0
 62
     0
 10
125.971
 20
40.6922
 30
0.0
 11
125.971
 21
41.6913
 31
0.0
  0
LINE
  8
0
 62
     0
 10
125.971
 20
41.6913
 30
0.0
 11
126.77
 21
41.6913
 31
0.0
  0
LINE
  8
0
 62
     0
 10
126.77
 20
41.6913
 30
0.0
 11
126.77
 21
44.7918
 31
0.0
  0
LINE
  8
0
 62
     0
 10
126.77
 20
44.7918
 30
0.0
 11
125.971
 21
44.7918
 31
0.0
  0
LINE
  8
0
 62
     0
 10
125.971
 20
44.7918
 30
0.0
 11
125.971
 21
50.5919
 31
0.0
  0
LINE
  8
0
 62
     0
 10
125.971
 20
50.5919
 30
0.0
 11
126.77
 21
50.5919
 31
0.0
  0
LINE
  8
0
 62
     0
 10
126.77
 20
50.5919
 30
0.0
 11
126.77
 21
53.691
 31
0.0
  0
LINE
  8
0
 62
     0
 10
126.77
 20
53.691
 30
0.0
 11
125.971
 21
53.691
 31
0.0
  0
LINE
  8
0
 62
     0
 10
125.971
 20
53.691
 30
0.0
 11
125.971
 21
54.6915
 31
0.0
  0
LINE
  8
0
 62
     0
 10
125.971
 20
54.6915
 30
0.0
 11
111.968
 21
54.6915
 31
0.0
  0
LINE
  8
0
 62
     0
 10
131.02
 20
54.6915
 30
0.0
 11
131.02
 21
53.691
 31
0.0
  0
LINE
  8
0
 62
     0
 10
131.02
 20
53.691
 30
0.0
 11
130.219
 21
53.691
 31
0.0
  0
LINE
  8
0
 62
     0
 10
130.219
 20
53.691
 30
0.0
 11
130.219
 21
50.5919
 31
0.0
  0
LINE
  8
0
 62
     0
 10
130.219
 20
50.5919
 30
0.0
 11
131.02
 21
50.5919
 31
0.0
  0
LINE
  8
0
 62
     0
 10
131.02
 20
50.5919
 30
0.0
 11
131.02
 21
44.7918
 31
0.0
  0
LINE
  8
0
 62
     0
 10
131.02
 20
44.7918
 30
0.0
 11
130.219
 21
44.7918
 31
0.0
  0
LINE
  8
0
 62
     0
 10
130.219
 20
44.7918
 30
0.0
 11
130.219
 21
41.6913
 31
0.0
  0
LINE
  8
0
 62
     0
 10
130.219
 20
41.6913
 30
0.0
 11
131.02
 21
41.6913
 31
0.0
  0
LINE
  8
0
 62
     0
 10
131.02
 20
41.6913
 30
0.0
 11
131.02
 21
40.6922
 31
0.0
  0
LINE
  8
0
 62
     0
 10
131.02
 20
40.6922
 30
0.0
 11
145.019
 21
40.6922
 31
0.0
  0
LINE
  8
0
 62
     0
 10
145.019
 20
40.6922
 30
0.0
 11
145.019
 21
41.6913
 31
0.0
  0
LINE
  8
0
 62
     0
 10
145.019
 20
41.6913
 30
0.0
 11
145.82
 21
41.6913
 31
0.0
  0
LINE
  8
0
 62
     0
 10
145.82
 20
41.6913
 30
0.0
 11
145.82
 21
44.7918
 31
0.0
  0
LINE
  8
0
 62
     0
 10
145.82
 20
44.7918
 30
0.0
 11
145.019
 21
44.7918
 31
0.0
  0
LINE
  8
0
 62
     0
 10
145.019
 20
44.7918
 30
0.0
 11
145.019
 21
50.5919
 31
0.0
  0
LINE
  8
0
 62
     0
 10
145.019
 20
50.5919
 30
0.0
 11
145.82
 21
50.5919
 31
0.0
  0
LINE
  8
0
 62
     0
 10
145.82
 20
50.5919
 30
0.0
 11
145.82
 21
53.691
 31
0.0
  0
LINE
  8
0
 62
     0
 10
145.82
 20
53.691
 30
0.0
 11
145.019
 21
53.691
 31
0.0
  0
LINE
  8
0
 62
     0
 10
145.019
 20
53.691
 30
0.0
 11
145.019
 21
54.6915
 31
0.0
  0
LINE
  8
0
 62
     0
 10
145.019
 20
54.6915
 30
0.0
 11
131.02
 21
54.6915
 31
0.0
  0
LINE
  8
0
 62
     0
 10
150.07
 20
54.6915
 30
0.0
 11
150.07
 21
53.691
 31
0.0
  0
LINE
  8
0
 62
     0
 10
150.07
 20
53.691
 30
0.0
 11
149.269
 21
53.691
 31
0.0
  0
LINE
  8
0
 62
     0
 10
149.269
 20
53.691
 30
0.0
 11
149.269
 21
50.5919
 31
0.0
  0
LINE
  8
0
 62
     0
 10
149.269
 20
50.5919
 30
0.0
 11
150.07
 21
50.5919
 31
0.0
  0
LINE
  8
0
 62
     0
 10
150.07
 20
50.5919
 30
0.0
 11
150.07
 21
44.7918
 31
0.0
  0
LINE
  8
0
 62
     0
 10
150.07
 20
44.7918
 30
0.0
 11
149.269
 21
44.7918
 31
0.0
  0
LINE
  8
0
 62
     0
 10
149.269
 20
44.7918
 30
0.0
 11
149.269
 21
41.6913
 31
0.0
  0
LINE
  8
0
 62
     0
 10
149.269
 20
41.6913
 30
0.0
 11
150.07
 21
41.6913
 31
0.0
  0
LINE
  8
0
 62
     0
 10
150.07
 20
41.6913
 30
0.0
 11
150.07
 21
40.6922
 31
0.0
  0
LINE
  8
0
 62
     0
 10
150.07
 20
40.6922
 30
0.0
 11
164.069
 21
40.6922
 31
0.0
  0
LINE
  8
0
 62
     0
 10
164.069
 20
40.6922
 30
0.0
 11
164.069
 21
41.6913
 31
0.0
  0
LINE
  8
0
 62
     0
 10
164.069
 20
41.6913
 30
0.0
 11
164.87
 21
41.6913
 31
0.0
  0
LINE
  8
0
 62
     0
 10
164.87
 20
41.6913
 30
0.0
 11
164.87
 21
44.7918
 31
0.0
  0
LINE
  8
0
 62
     0
 10
164.87
 20
44.7918
 30
0.0
 11
164.069
 21
44.7918
 31
0.0
  0
LINE
  8
0
 62
     0
 10
164.069
 20
44.7918
 30
0.0
 11
164.069
 21
50.5919
 31
0.0
  0
LINE
  8
0
 62
     0
 10
164.069
 20
50.5919
 30
0.0
 11
164.87
 21
50.5919
 31
0.0
  0
LINE
  8
0
 62
     0
 10
164.87
 20
50.5919
 30
0.0
 11
164.87
 21
53.691
 31
0.0
  0
LINE
  8
0
 62
     0
 10
164.87
 20
53.691
 30
0.0
 11
164.069
 21
53.691
 31
0.0
  0
LINE
  8
0
 62
     0
 10
164.069
 20
53.691
 30
0.0
 11
164.069
 21
54.6915
 31
0.0
  0
LINE
  8
0
 62
     0
 10
164.069
 20
54.6915
 30
0.0
 11
150.07
 21
54.6915
 31
0.0
  0
LINE
  8
0
 62
     0
 10
169.121
 20
54.6915
 30
0.0
 11
169.121
 21
53.691
 31
0.0
  0
LINE
  8
0
 62
     0
 10
169.121
 20
53.691
 30
0.0
 11
168.319
 21
53.691
 31
0.0
  0
LINE
  8
0
 62
     0
 10
168.319
 20
53.691
 30
0.0
 11
168.319
 21
50.5919
 31
0.0
  0
LINE
  8
0
 62
     0
 10
168.319
 20
50.5919
 30
0.0
 11
169.121
 21
50.5919
 31
0.0
  0
LINE
  8
0
 62
     0
 10
169.121
 20
50.5919
 30
0.0
 11
169.121
 21
44.7918
 31
0.0
  0
LINE
  8
0
 62
     0
 10
169.121
 20
44.7918
 30
0.0
 11
168.319
 21
44.7918
 31
0.0
  0
LINE
  8
0
 62
     0
 10
168.319
 20
44.7918
 30
0.0
 11
168.319
 21
41.6913
 31
0.0
  0
LINE
  8
0
 62
     0
 10
168.319
 20
41.6913
 30
0.0
 11
169.121
 21
41.6913
 31
0.0
  0
LINE
  8
0
 62
     0
 10
169.121
 20
41.6913
 30
0.0
 11
169.121
 21
40.6922
 31
0.0
  0
LINE
  8
0
 62
     0
 10
169.121
 20
40.6922
 30
0.0
 11
183.121
 21
40.6922
 31
0.0
  0
LINE
  8
0
 62
     0
 10
183.121
 20
40.6922
 30
0.0
 11
183.121
 21
41.6913
 31
0.0
  0
LINE
  8
0
 62
     0
 10
183.121
 20
41.6913
 30
0.0
 11
183.92
 21
41.6913
 31
0.0
  0
LINE
  8
0
 62
     0
 10
183.92
 20
41.6913
 30
0.0
 11
183.92
 21
44.7918
 31
0.0
  0
LINE
  8
0
 62
     0
 10
183.92
 20
44.7918
 30
0.0
 11
183.121
 21
44.7918
 31
0.0
  0
LINE
  8
0
 62
     0
 10
183.121
 20
44.7918
 30
0.0
 11
183.121
 21
50.5919
 31
0.0
  0
LINE
  8
0
 62
     0
 10
183.121
 20
50.5919
 30
0.0
 11
183.92
 21
50.5919
 31
0.0
  0
LINE
  8
0
 62
     0
 10
183.92
 20
50.5919
 30
0.0
 11
183.92
 21
53.691
 31
0.0
  0
LINE
  8
0
 62
     0
 10
183.92
 20
53.691
 30
0.0
 11
183.121
 21
53.691
 31
0.0
  0
LINE
  8
0
 62
     0
 10
183.121
 20
53.691
 30
0.0
 11
183.121
 21
54.6915
 31
0.0
  0
LINE
  8
0
 62
     0
 10
183.121
 20
54.6915
 30
0.0
 11
169.121
 21
54.6915
 31
0.0
  0
LINE
  8
0
 62
     0
 10
188.17
 20
54.6915
 30
0.0
 11
188.17
 21
53.691
 31
0.0
  0
LINE
  8
0
 62
     0
 10
188.17
 20
53.691
 30
0.0
 11
187.371
 21
53.691
 31
0.0
  0
LINE
  8
0
 62
     0
 10
187.371
 20
53.691
 30
0.0
 11
187.371
 21
50.5919
 31
0.0
  0
LINE
  8
0
 62
     0
 10
187.371
 20
50.5919
 30
0.0
 11
188.17
 21
50.5919
 31
0.0
  0
LINE
  8
0
 62
     0
 10
188.17
 20
50.5919
 30
0.0
 11
188.17
 21
44.7918
 31
0.0
  0
LINE
  8
0
 62
     0
 10
188.17
 20
44.7918
 30
0.0
 11
187.371
 21
44.7918
 31
0.0
  0
LINE
  8
0
 62
     0
 10
187.371
 20
44.7918
 30
0.0
 11
187.371
 21
41.6913
 31
0.0
  0
LINE
  8
0
 62
     0
 10
187.371
 20
41.6913
 30
0.0
 11
188.17
 21
41.6913
 31
0.0
  0
LINE
  8
0
 62
     0
 10
188.17
 20
41.6913
 30
0.0
 11
188.17
 21
40.6922
 31
0.0
  0
LINE
  8
0
 62
     0
 10
188.17
 20
40.6922
 30
0.0
 11
202.169
 21
40.6922
 31
0.0
  0
LINE
  8
0
 62
     0
 10
202.169
 20
40.6922
 30
0.0
 11
202.169
 21
41.6913
 31
0.0
  0
LINE
  8
0
 62
     0
 10
202.169
 20
41.6913
 30
0.0
 11
202.97
 21
41.6913
 31
0.0
  0
LINE
  8
0
 62
     0
 10
202.97
 20
41.6913
 30
0.0
 11
202.97
 21
44.7918
 31
0.0
  0
LINE
  8
0
 62
     0
 10
202.97
 20
44.7918
 30
0.0
 11
202.169
 21
44.7918
 31
0.0
  0
LINE
  8
0
 62
     0
 10
202.169
 20
44.7918
 30
0.0
 11
202.169
 21
50.5919
 31
0.0
  0
LINE
  8
0
 62
     0
 10
202.169
 20
50.5919
 30
0.0
 11
202.97
 21
50.5919
 31
0.0
  0
LINE
  8
0
 62
     0
 10
202.97
 20
50.5919
 30
0.0
 11
202.97
 21
53.691
 31
0.0
  0
LINE
  8
0
 62
     0
 10
202.97
 20
53.691
 30
0.0
 11
202.169
 21
53.691
 31
0.0
  0
LINE
  8
0
 62
     0
 10
202.169
 20
53.691
 30
0.0
 11
202.169
 21
54.6915
 31
0.0
  0
LINE
  8
0
 62
     0
 10
202.169
 20
54.6915
 30
0.0
 11
188.17
 21
54.6915
 31
0.0
  0
LINE
  8
0
 62
     0
 10
207.221
 20
54.6915
 30
0.0
 11
207.221
 21
53.691
 31
0.0
  0
LINE
  8
0
 62
     0
 10
207.221
 20
53.691
 30
0.0
 11
206.419
 21
53.691
 31
0.0
  0
LINE
  8
0
 62
     0
 10
206.419
 20
53.691
 30
0.0
 11
206.419
 21
50.5919
 31
0.0
  0
LINE
  8
0
 62
     0
 10
206.419
 20
50.5919
 30
0.0
 11
207.221
 21
50.5919
 31
0.0
  0
LINE
  8
0
 62
     0
 10
207.221
 20
50.5919
 30
0.0
 11
207.221
 21
44.7918
 31
0.0
  0
LINE
  8
0
 62
     0
 10
207.221
 20
44.7918
 30
0.0
 11
206.419
 21
44.7918
 31
0.0
  0
LINE
  8
0
 62
     0
 10
206.419
 20
44.7918
 30
0.0
 11
206.419
 21
41.6913
 31
0.0
  0
LINE
  8
0
 62
     0
 10
206.419
 20
41.6913
 30
0.0
 11
207.221
 21
41.6913
 31
0.0
  0
LINE
  8
0
 62
     0
 10
207.221
 20
41.6913
 30
0.0
 11
207.221
 21
40.6922
 31
0.0
  0
LINE
  8
0
 62
     0
 10
207.221
 20
40.6922
 30
0.0
 11
221.221
 21
40.6922
 31
0.0
  0
LINE
  8
0
 62
     0
 10
221.221
 20
40.6922
 30
0.0
 11
221.221
 21
41.6913
 31
0.0
  0
LINE
  8
0
 62
     0
 10
221.221
 20
41.6913
 30
0.0
 11
222.02
 21
41.6913
 31
0.0
  0
LINE
  8
0
 62
     0
 10
222.02
 20
41.6913
 30
0.0
 11
222.02
 21
44.7918
 31
0.0
  0
LINE
  8
0
 62
     0
 10
222.02
 20
44.7918
 30
0.0
 11
221.221
 21
44.7918
 31
0.0
  0
LINE
  8
0
 62
     0
 10
221.221
 20
44.7918
 30
0.0
 11
221.221
 21
50.5919
 31
0.0
  0
LINE
  8
0
 62
     0
 10
221.221
 20
50.5919
 30
0.0
 11
222.02
 21
50.5919
 31
0.0
  0
LINE
  8
0
 62
     0
 10
222.02
 20
50.5919
 30
0.0
 11
222.02
 21
53.691
 31
0.0
  0
LINE
  8
0
 62
     0
 10
222.02
 20
53.691
 30
0.0
 11
221.221
 21
53.691
 31
0.0
  0
LINE
  8
0
 62
     0
 10
221.221
 20
53.691
 30
0.0
 11
221.221
 21
54.6915
 31
0.0
  0
LINE
  8
0
 62
     0
 10
221.221
 20
54.6915
 30
0.0
 11
207.221
 21
54.6915
 31
0.0
  0
LINE
  8
0
 62
     0
 10
226.271
 20
54.6915
 30
0.0
 11
226.271
 21
53.691
 31
0.0
  0
LINE
  8
0
 62
     0
 10
226.271
 20
53.691
 30
0.0
 11
225.471
 21
53.691
 31
0.0
  0
LINE
  8
0
 62
     0
 10
225.471
 20
53.691
 30
0.0
 11
225.471
 21
50.5919
 31
0.0
  0
LINE
  8
0
 62
     0
 10
225.471
 20
50.5919
 30
0.0
 11
226.271
 21
50.5919
 31
0.0
  0
LINE
  8
0
 62
     0
 10
226.271
 20
50.5919
 30
0.0
 11
226.271
 21
44.7918
 31
0.0
  0
LINE
  8
0
 62
     0
 10
226.271
 20
44.7918
 30
0.0
 11
225.471
 21
44.7918
 31
0.0
  0
LINE
  8
0
 62
     0
 10
225.471
 20
44.7918
 30
0.0
 11
225.471
 21
41.6913
 31
0.0
  0
LINE
  8
0
 62
     0
 10
225.471
 20
41.6913
 30
0.0
 11
226.271
 21
41.6913
 31
0.0
  0
LINE
  8
0
 62
     0
 10
226.271
 20
41.6913
 30
0.0
 11
226.271
 21
40.6922
 31
0.0
  0
LINE
  8
0
 62
     0
 10
226.271
 20
40.6922
 30
0.0
 11
240.271
 21
40.6922
 31
0.0
  0
LINE
  8
0
 62
     0
 10
240.271
 20
40.6922
 30
0.0
 11
240.271
 21
41.6913
 31
0.0
  0
LINE
  8
0
 62
     0
 10
240.271
 20
41.6913
 30
0.0
 11
241.07
 21
41.6913
 31
0.0
  0
LINE
  8
0
 62
     0
 10
241.07
 20
41.6913
 30
0.0
 11
241.07
 21
44.7918
 31
0.0
  0
LINE
  8
0
 62
     0
 10
241.07
 20
44.7918
 30
0.0
 11
240.271
 21
44.7918
 31
0.0
  0
LINE
  8
0
 62
     0
 10
240.271
 20
44.7918
 30
0.0
 11
240.271
 21
50.5919
 31
0.0
  0
LINE
  8
0
 62
     0
 10
240.271
 20
50.5919
 30
0.0
 11
241.07
 21
50.5919
 31
0.0
  0
LINE
  8
0
 62
     0
 10
241.07
 20
50.5919
 30
0.0
 11
241.07
 21
53.691
 31
0.0
  0
LINE
  8
0
 62
     0
 10
241.07
 20
53.691
 30
0.0
 11
240.271
 21
53.691
 31
0.0
  0
LINE
  8
0
 62
     0
 10
240.271
 20
53.691
 30
0.0
 11
240.271
 21
54.6915
 31
0.0
  0
LINE
  8
0
 62
     0
 10
240.271
 20
54.6915
 30
0.0
 11
226.271
 21
54.6915
 31
0.0
  0
LINE
  8
0
 62
     0
 10
128.02
 20
49.1172
 30
0.0
 11
127.601
 21
48.9052
 31
0.0
  0
LINE
  8
0
 62
     0
 10
127.601
 20
48.9052
 30
0.0
 11
127.27
 21
48.5733
 31
0.0
  0
LINE
  8
0
 62
     0
 10
127.27
 20
48.5733
 30
0.0
 11
127.056
 21
48.1542
 31
0.0
  0
LINE
  8
0
 62
     0
 10
127.056
 20
48.1542
 30
0.0
 11
126.983
 21
47.6913
 31
0.0
  0
LINE
  8
0
 62
     0
 10
126.983
 20
47.6913
 30
0.0
 11
127.056
 21
47.2281
 31
0.0
  0
LINE
  8
0
 62
     0
 10
127.056
 20
47.2281
 30
0.0
 11
127.27
 21
46.8094
 31
0.0
  0
LINE
  8
0
 62
     0
 10
127.27
 20
46.8094
 30
0.0
 11
127.601
 21
46.4771
 31
0.0
  0
LINE
  8
0
 62
     0
 10
127.601
 20
46.4771
 30
0.0
 11
128.02
 21
46.265
 31
0.0
  0
LINE
  8
0
 62
     0
 10
128.02
 20
46.265
 30
0.0
 11
128.484
 21
46.1906
 31
0.0
  0
LINE
  8
0
 62
     0
 10
128.484
 20
46.1906
 30
0.0
 11
128.947
 21
46.265
 31
0.0
  0
LINE
  8
0
 62
     0
 10
128.947
 20
46.265
 30
0.0
 11
129.365
 21
46.4771
 31
0.0
  0
LINE
  8
0
 62
     0
 10
129.365
 20
46.4771
 30
0.0
 11
129.697
 21
46.8094
 31
0.0
  0
LINE
  8
0
 62
     0
 10
129.697
 20
46.8094
 30
0.0
 11
129.909
 21
47.2281
 31
0.0
  0
LINE
  8
0
 62
     0
 10
129.909
 20
47.2281
 30
0.0
 11
129.983
 21
47.6913
 31
0.0
  0
LINE
  8
0
 62
     0
 10
129.983
 20
47.6913
 30
0.0
 11
129.909
 21
48.1542
 31
0.0
  0
LINE
  8
0
 62
     0
 10
129.909
 20
48.1542
 30
0.0
 11
129.697
 21
48.5733
 31
0.0
  0
LINE
  8
0
 62
     0
 10
129.697
 20
48.5733
 30
0.0
 11
129.365
 21
48.9052
 31
0.0
  0
LINE
  8
0
 62
     0
 10
129.365
 20
48.9052
 30
0.0
 11
128.947
 21
49.1172
 31
0.0
  0
LINE
  8
0
 62
     0
 10
128.947
 20
49.1172
 30
0.0
 11
128.484
 21
49.1906
 31
0.0
  0
LINE
  8
0
 62
     0
 10
128.484
 20
49.1906
 30
0.0
 11
128.02
 21
49.1172
 31
0.0
  0
LINE
  8
0
 62
     0
 10
7.1961
 20
73.7429
 30
0.0
 11
7.1961
 21
72.7424
 31
0.0
  0
LINE
  8
0
 62
     0
 10
7.1961
 20
72.7424
 30
0.0
 11
6.39547
 21
72.7424
 31
0.0
  0
LINE
  8
0
 62
     0
 10
6.39547
 20
72.7424
 30
0.0
 11
6.39547
 21
69.6419
 31
0.0
  0
LINE
  8
0
 62
     0
 10
6.39547
 20
69.6419
 30
0.0
 11
7.1961
 21
69.6419
 31
0.0
  0
LINE
  8
0
 62
     0
 10
7.1961
 20
69.6419
 30
0.0
 11
7.1961
 21
63.8433
 31
0.0
  0
LINE
  8
0
 62
     0
 10
7.1961
 20
63.8433
 30
0.0
 11
6.39547
 21
63.8433
 31
0.0
  0
LINE
  8
0
 62
     0
 10
6.39547
 20
63.8433
 30
0.0
 11
6.39547
 21
60.7427
 31
0.0
  0
LINE
  8
0
 62
     0
 10
6.39547
 20
60.7427
 30
0.0
 11
7.1961
 21
60.7427
 31
0.0
  0
LINE
  8
0
 62
     0
 10
7.1961
 20
60.7427
 30
0.0
 11
7.1961
 21
59.7422
 31
0.0
  0
LINE
  8
0
 62
     0
 10
7.1961
 20
59.7422
 30
0.0
 11
21.1956
 21
59.7422
 31
0.0
  0
LINE
  8
0
 62
     0
 10
21.1956
 20
59.7422
 30
0.0
 11
21.1956
 21
60.7427
 31
0.0
  0
LINE
  8
0
 62
     0
 10
21.1956
 20
60.7427
 30
0.0
 11
21.9949
 21
60.7427
 31
0.0
  0
LINE
  8
0
 62
     0
 10
21.9949
 20
60.7427
 30
0.0
 11
21.9949
 21
63.8433
 31
0.0
  0
LINE
  8
0
 62
     0
 10
21.9949
 20
63.8433
 30
0.0
 11
21.1956
 21
63.8433
 31
0.0
  0
LINE
  8
0
 62
     0
 10
21.1956
 20
63.8433
 30
0.0
 11
21.1956
 21
69.6419
 31
0.0
  0
LINE
  8
0
 62
     0
 10
21.1956
 20
69.6419
 30
0.0
 11
21.9949
 21
69.6419
 31
0.0
  0
LINE
  8
0
 62
     0
 10
21.9949
 20
69.6419
 30
0.0
 11
21.9949
 21
72.7424
 31
0.0
  0
LINE
  8
0
 62
     0
 10
21.9949
 20
72.7424
 30
0.0
 11
21.1956
 21
72.7424
 31
0.0
  0
LINE
  8
0
 62
     0
 10
21.1956
 20
72.7424
 30
0.0
 11
21.1956
 21
73.7429
 31
0.0
  0
LINE
  8
0
 62
     0
 10
21.1956
 20
73.7429
 30
0.0
 11
7.1961
 21
73.7429
 31
0.0
  0
LINE
  8
0
 62
     0
 10
31.0059
 20
73.7429
 30
0.0
 11
31.0059
 21
72.7424
 31
0.0
  0
LINE
  8
0
 62
     0
 10
31.0059
 20
72.7424
 30
0.0
 11
30.2066
 21
72.7424
 31
0.0
  0
LINE
  8
0
 62
     0
 10
30.2066
 20
72.7424
 30
0.0
 11
30.2066
 21
69.6419
 31
0.0
  0
LINE
  8
0
 62
     0
 10
30.2066
 20
69.6419
 30
0.0
 11
31.0059
 21
69.6419
 31
0.0
  0
LINE
  8
0
 62
     0
 10
31.0059
 20
69.6419
 30
0.0
 11
31.0059
 21
63.8433
 31
0.0
  0
LINE
  8
0
 62
     0
 10
31.0059
 20
63.8433
 30
0.0
 11
30.2066
 21
63.8433
 31
0.0
  0
LINE
  8
0
 62
     0
 10
30.2066
 20
63.8433
 30
0.0
 11
30.2066
 21
60.7427
 31
0.0
  0
LINE
  8
0
 62
     0
 10
30.2066
 20
60.7427
 30
0.0
 11
31.0059
 21
60.7427
 31
0.0
  0
LINE
  8
0
 62
     0
 10
31.0059
 20
60.7427
 30
0.0
 11
31.0059
 21
59.7422
 31
0.0
  0
LINE
  8
0
 62
     0
 10
31.0059
 20
59.7422
 30
0.0
 11
45.0067
 21
59.7422
 31
0.0
  0
LINE
  8
0
 62
     0
 10
45.0067
 20
59.7422
 30
0.0
 11
45.0067
 21
60.7427
 31
0.0
  0
LINE
  8
0
 62
     0
 10
45.0067
 20
60.7427
 30
0.0
 11
45.8075
 21
60.7427
 31
0.0
  0
LINE
  8
0
 62
     0
 10
45.8075
 20
60.7427
 30
0.0
 11
45.8075
 21
63.8433
 31
0.0
  0
LINE
  8
0
 62
     0
 10
45.8075
 20
63.8433
 30
0.0
 11
45.0067
 21
63.8433
 31
0.0
  0
LINE
  8
0
 62
     0
 10
45.0067
 20
63.8433
 30
0.0
 11
45.0067
 21
69.6419
 31
0.0
  0
LINE
  8
0
 62
     0
 10
45.0067
 20
69.6419
 30
0.0
 11
45.8075
 21
69.6419
 31
0.0
  0
LINE
  8
0
 62
     0
 10
45.8075
 20
69.6419
 30
0.0
 11
45.8075
 21
72.7424
 31
0.0
  0
LINE
  8
0
 62
     0
 10
45.8075
 20
72.7424
 30
0.0
 11
45.0067
 21
72.7424
 31
0.0
  0
LINE
  8
0
 62
     0
 10
45.0067
 20
72.7424
 30
0.0
 11
45.0067
 21
73.7429
 31
0.0
  0
LINE
  8
0
 62
     0
 10
45.0067
 20
73.7429
 30
0.0
 11
31.0059
 21
73.7429
 31
0.0
  0
LINE
  8
0
 62
     0
 10
50.0574
 20
73.7429
 30
0.0
 11
50.0574
 21
72.7424
 31
0.0
  0
LINE
  8
0
 62
     0
 10
50.0574
 20
72.7424
 30
0.0
 11
49.2566
 21
72.7424
 31
0.0
  0
LINE
  8
0
 62
     0
 10
49.2566
 20
72.7424
 30
0.0
 11
49.2566
 21
69.6419
 31
0.0
  0
LINE
  8
0
 62
     0
 10
49.2566
 20
69.6419
 30
0.0
 11
50.0574
 21
69.6419
 31
0.0
  0
LINE
  8
0
 62
     0
 10
50.0574
 20
69.6419
 30
0.0
 11
50.0574
 21
63.8433
 31
0.0
  0
LINE
  8
0
 62
     0
 10
50.0574
 20
63.8433
 30
0.0
 11
49.2566
 21
63.8433
 31
0.0
  0
LINE
  8
0
 62
     0
 10
49.2566
 20
63.8433
 30
0.0
 11
49.2566
 21
60.7427
 31
0.0
  0
LINE
  8
0
 62
     0
 10
49.2566
 20
60.7427
 30
0.0
 11
50.0574
 21
60.7427
 31
0.0
  0
LINE
  8
0
 62
     0
 10
50.0574
 20
60.7427
 30
0.0
 11
50.0574
 21
59.7422
 31
0.0
  0
LINE
  8
0
 62
     0
 10
50.0574
 20
59.7422
 30
0.0
 11
64.0581
 21
59.7422
 31
0.0
  0
LINE
  8
0
 62
     0
 10
64.0581
 20
59.7422
 30
0.0
 11
64.0581
 21
60.7427
 31
0.0
  0
LINE
  8
0
 62
     0
 10
64.0581
 20
60.7427
 30
0.0
 11
64.8575
 21
60.7427
 31
0.0
  0
LINE
  8
0
 62
     0
 10
64.8575
 20
60.7427
 30
0.0
 11
64.8575
 21
63.8433
 31
0.0
  0
LINE
  8
0
 62
     0
 10
64.8575
 20
63.8433
 30
0.0
 11
64.0581
 21
63.8433
 31
0.0
  0
LINE
  8
0
 62
     0
 10
64.0581
 20
63.8433
 30
0.0
 11
64.0581
 21
69.6419
 31
0.0
  0
LINE
  8
0
 62
     0
 10
64.0581
 20
69.6419
 30
0.0
 11
64.8575
 21
69.6419
 31
0.0
  0
LINE
  8
0
 62
     0
 10
64.8575
 20
69.6419
 30
0.0
 11
64.8575
 21
72.7424
 31
0.0
  0
LINE
  8
0
 62
     0
 10
64.8575
 20
72.7424
 30
0.0
 11
64.0581
 21
72.7424
 31
0.0
  0
LINE
  8
0
 62
     0
 10
64.0581
 20
72.7424
 30
0.0
 11
64.0581
 21
73.7429
 31
0.0
  0
LINE
  8
0
 62
     0
 10
64.0581
 20
73.7429
 30
0.0
 11
50.0574
 21
73.7429
 31
0.0
  0
LINE
  8
0
 62
     0
 10
69.1074
 20
73.7429
 30
0.0
 11
69.1074
 21
72.7424
 31
0.0
  0
LINE
  8
0
 62
     0
 10
69.1074
 20
72.7424
 30
0.0
 11
68.308
 21
72.7424
 31
0.0
  0
LINE
  8
0
 62
     0
 10
68.308
 20
72.7424
 30
0.0
 11
68.308
 21
69.6419
 31
0.0
  0
LINE
  8
0
 62
     0
 10
68.308
 20
69.6419
 30
0.0
 11
69.1074
 21
69.6419
 31
0.0
  0
LINE
  8
0
 62
     0
 10
69.1074
 20
69.6419
 30
0.0
 11
69.1074
 21
63.8433
 31
0.0
  0
LINE
  8
0
 62
     0
 10
69.1074
 20
63.8433
 30
0.0
 11
68.308
 21
63.8433
 31
0.0
  0
LINE
  8
0
 62
     0
 10
68.308
 20
63.8433
 30
0.0
 11
68.308
 21
60.7427
 31
0.0
  0
LINE
  8
0
 62
     0
 10
68.308
 20
60.7427
 30
0.0
 11
69.1074
 21
60.7427
 31
0.0
  0
LINE
  8
0
 62
     0
 10
69.1074
 20
60.7427
 30
0.0
 11
69.1074
 21
59.7422
 31
0.0
  0
LINE
  8
0
 62
     0
 10
69.1074
 20
59.7422
 30
0.0
 11
83.1081
 21
59.7422
 31
0.0
  0
LINE
  8
0
 62
     0
 10
83.1081
 20
59.7422
 30
0.0
 11
83.1081
 21
60.7427
 31
0.0
  0
LINE
  8
0
 62
     0
 10
83.1081
 20
60.7427
 30
0.0
 11
83.9075
 21
60.7427
 31
0.0
  0
LINE
  8
0
 62
     0
 10
83.9075
 20
60.7427
 30
0.0
 11
83.9075
 21
63.8433
 31
0.0
  0
LINE
  8
0
 62
     0
 10
83.9075
 20
63.8433
 30
0.0
 11
83.1081
 21
63.8433
 31
0.0
  0
LINE
  8
0
 62
     0
 10
83.1081
 20
63.8433
 30
0.0
 11
83.1081
 21
69.6419
 31
0.0
  0
LINE
  8
0
 62
     0
 10
83.1081
 20
69.6419
 30
0.0
 11
83.9075
 21
69.6419
 31
0.0
  0
LINE
  8
0
 62
     0
 10
83.9075
 20
69.6419
 30
0.0
 11
83.9075
 21
72.7424
 31
0.0
  0
LINE
  8
0
 62
     0
 10
83.9075
 20
72.7424
 30
0.0
 11
83.1081
 21
72.7424
 31
0.0
  0
LINE
  8
0
 62
     0
 10
83.1081
 20
72.7424
 30
0.0
 11
83.1081
 21
73.7429
 31
0.0
  0
LINE
  8
0
 62
     0
 10
83.1081
 20
73.7429
 30
0.0
 11
69.1074
 21
73.7429
 31
0.0
  0
LINE
  8
0
 62
     0
 10
88.1574
 20
73.7429
 30
0.0
 11
88.1574
 21
72.7424
 31
0.0
  0
LINE
  8
0
 62
     0
 10
88.1574
 20
72.7424
 30
0.0
 11
87.358
 21
72.7424
 31
0.0
  0
LINE
  8
0
 62
     0
 10
87.358
 20
72.7424
 30
0.0
 11
87.358
 21
69.6419
 31
0.0
  0
LINE
  8
0
 62
     0
 10
87.358
 20
69.6419
 30
0.0
 11
88.1574
 21
69.6419
 31
0.0
  0
LINE
  8
0
 62
     0
 10
88.1574
 20
69.6419
 30
0.0
 11
88.1574
 21
63.8433
 31
0.0
  0
LINE
  8
0
 62
     0
 10
88.1574
 20
63.8433
 30
0.0
 11
87.358
 21
63.8433
 31
0.0
  0
LINE
  8
0
 62
     0
 10
87.358
 20
63.8433
 30
0.0
 11
87.358
 21
60.7427
 31
0.0
  0
LINE
  8
0
 62
     0
 10
87.358
 20
60.7427
 30
0.0
 11
88.1574
 21
60.7427
 31
0.0
  0
LINE
  8
0
 62
     0
 10
88.1574
 20
60.7427
 30
0.0
 11
88.1574
 21
59.7422
 31
0.0
  0
LINE
  8
0
 62
     0
 10
88.1574
 20
59.7422
 30
0.0
 11
102.158
 21
59.7422
 31
0.0
  0
LINE
  8
0
 62
     0
 10
102.158
 20
59.7422
 30
0.0
 11
102.158
 21
60.7427
 31
0.0
  0
LINE
  8
0
 62
     0
 10
102.158
 20
60.7427
 30
0.0
 11
102.956
 21
60.7427
 31
0.0
  0
LINE
  8
0
 62
     0
 10
102.956
 20
60.7427
 30
0.0
 11
102.956
 21
63.8433
 31
0.0
  0
LINE
  8
0
 62
     0
 10
102.956
 20
63.8433
 30
0.0
 11
102.158
 21
63.8433
 31
0.0
  0
LINE
  8
0
 62
     0
 10
102.158
 20
63.8433
 30
0.0
 11
102.158
 21
69.6419
 31
0.0
  0
LINE
  8
0
 62
     0
 10
102.158
 20
69.6419
 30
0.0
 11
102.956
 21
69.6419
 31
0.0
  0
LINE
  8
0
 62
     0
 10
102.956
 20
69.6419
 30
0.0
 11
102.956
 21
72.7424
 31
0.0
  0
LINE
  8
0
 62
     0
 10
102.956
 20
72.7424
 30
0.0
 11
102.158
 21
72.7424
 31
0.0
  0
LINE
  8
0
 62
     0
 10
102.158
 20
72.7424
 30
0.0
 11
102.158
 21
73.7429
 31
0.0
  0
LINE
  8
0
 62
     0
 10
102.158
 20
73.7429
 30
0.0
 11
88.1574
 21
73.7429
 31
0.0
  0
LINE
  8
0
 62
     0
 10
107.206
 20
73.7429
 30
0.0
 11
107.206
 21
72.7424
 31
0.0
  0
LINE
  8
0
 62
     0
 10
107.206
 20
72.7424
 30
0.0
 11
106.408
 21
72.7424
 31
0.0
  0
LINE
  8
0
 62
     0
 10
106.408
 20
72.7424
 30
0.0
 11
106.408
 21
69.6419
 31
0.0
  0
LINE
  8
0
 62
     0
 10
106.408
 20
69.6419
 30
0.0
 11
107.206
 21
69.6419
 31
0.0
  0
LINE
  8
0
 62
     0
 10
107.206
 20
69.6419
 30
0.0
 11
107.206
 21
63.8433
 31
0.0
  0
LINE
  8
0
 62
     0
 10
107.206
 20
63.8433
 30
0.0
 11
106.408
 21
63.8433
 31
0.0
  0
LINE
  8
0
 62
     0
 10
106.408
 20
63.8433
 30
0.0
 11
106.408
 21
60.7427
 31
0.0
  0
LINE
  8
0
 62
     0
 10
106.408
 20
60.7427
 30
0.0
 11
107.206
 21
60.7427
 31
0.0
  0
LINE
  8
0
 62
     0
 10
107.206
 20
60.7427
 30
0.0
 11
107.206
 21
59.7422
 31
0.0
  0
LINE
  8
0
 62
     0
 10
107.206
 20
59.7422
 30
0.0
 11
121.207
 21
59.7422
 31
0.0
  0
LINE
  8
0
 62
     0
 10
121.207
 20
59.7422
 30
0.0
 11
121.207
 21
60.7427
 31
0.0
  0
LINE
  8
0
 62
     0
 10
121.207
 20
60.7427
 30
0.0
 11
122.007
 21
60.7427
 31
0.0
  0
LINE
  8
0
 62
     0
 10
122.007
 20
60.7427
 30
0.0
 11
122.007
 21
63.8433
 31
0.0
  0
LINE
  8
0
 62
     0
 10
122.007
 20
63.8433
 30
0.0
 11
121.207
 21
63.8433
 31
0.0
  0
LINE
  8
0
 62
     0
 10
121.207
 20
63.8433
 30
0.0
 11
121.207
 21
69.6419
 31
0.0
  0
LINE
  8
0
 62
     0
 10
121.207
 20
69.6419
 30
0.0
 11
122.007
 21
69.6419
 31
0.0
  0
LINE
  8
0
 62
     0
 10
122.007
 20
69.6419
 30
0.0
 11
122.007
 21
72.7424
 31
0.0
  0
LINE
  8
0
 62
     0
 10
122.007
 20
72.7424
 30
0.0
 11
121.207
 21
72.7424
 31
0.0
  0
LINE
  8
0
 62
     0
 10
121.207
 20
72.7424
 30
0.0
 11
121.207
 21
73.7429
 31
0.0
  0
LINE
  8
0
 62
     0
 10
121.207
 20
73.7429
 30
0.0
 11
107.206
 21
73.7429
 31
0.0
  0
LINE
  8
0
 62
     0
 10
126.257
 20
73.7429
 30
0.0
 11
126.257
 21
72.7424
 31
0.0
  0
LINE
  8
0
 62
     0
 10
126.257
 20
72.7424
 30
0.0
 11
125.457
 21
72.7424
 31
0.0
  0
LINE
  8
0
 62
     0
 10
125.457
 20
72.7424
 30
0.0
 11
125.457
 21
69.6419
 31
0.0
  0
LINE
  8
0
 62
     0
 10
125.457
 20
69.6419
 30
0.0
 11
126.257
 21
69.6419
 31
0.0
  0
LINE
  8
0
 62
     0
 10
126.257
 20
69.6419
 30
0.0
 11
126.257
 21
63.8433
 31
0.0
  0
LINE
  8
0
 62
     0
 10
126.257
 20
63.8433
 30
0.0
 11
125.457
 21
63.8433
 31
0.0
  0
LINE
  8
0
 62
     0
 10
125.457
 20
63.8433
 30
0.0
 11
125.457
 21
60.7427
 31
0.0
  0
LINE
  8
0
 62
     0
 10
125.457
 20
60.7427
 30
0.0
 11
126.257
 21
60.7427
 31
0.0
  0
LINE
  8
0
 62
     0
 10
126.257
 20
60.7427
 30
0.0
 11
126.257
 21
59.7422
 31
0.0
  0
LINE
  8
0
 62
     0
 10
126.257
 20
59.7422
 30
0.0
 11
140.258
 21
59.7422
 31
0.0
  0
LINE
  8
0
 62
     0
 10
140.258
 20
59.7422
 30
0.0
 11
140.258
 21
60.7427
 31
0.0
  0
LINE
  8
0
 62
     0
 10
140.258
 20
60.7427
 30
0.0
 11
141.056
 21
60.7427
 31
0.0
  0
LINE
  8
0
 62
     0
 10
141.056
 20
60.7427
 30
0.0
 11
141.056
 21
63.8433
 31
0.0
  0
LINE
  8
0
 62
     0
 10
141.056
 20
63.8433
 30
0.0
 11
140.258
 21
63.8433
 31
0.0
  0
LINE
  8
0
 62
     0
 10
140.258
 20
63.8433
 30
0.0
 11
140.258
 21
69.6419
 31
0.0
  0
LINE
  8
0
 62
     0
 10
140.258
 20
69.6419
 30
0.0
 11
141.056
 21
69.6419
 31
0.0
  0
LINE
  8
0
 62
     0
 10
141.056
 20
69.6419
 30
0.0
 11
141.056
 21
72.7424
 31
0.0
  0
LINE
  8
0
 62
     0
 10
141.056
 20
72.7424
 30
0.0
 11
140.258
 21
72.7424
 31
0.0
  0
LINE
  8
0
 62
     0
 10
140.258
 20
72.7424
 30
0.0
 11
140.258
 21
73.7429
 31
0.0
  0
LINE
  8
0
 62
     0
 10
140.258
 20
73.7429
 30
0.0
 11
126.257
 21
73.7429
 31
0.0
  0
LINE
  8
0
 62
     0
 10
145.306
 20
73.7429
 30
0.0
 11
145.306
 21
72.7424
 31
0.0
  0
LINE
  8
0
 62
     0
 10
145.306
 20
72.7424
 30
0.0
 11
144.508
 21
72.7424
 31
0.0
  0
LINE
  8
0
 62
     0
 10
144.508
 20
72.7424
 30
0.0
 11
144.508
 21
69.6419
 31
0.0
  0
LINE
  8
0
 62
     0
 10
144.508
 20
69.6419
 30
0.0
 11
145.306
 21
69.6419
 31
0.0
  0
LINE
  8
0
 62
     0
 10
145.306
 20
69.6419
 30
0.0
 11
145.306
 21
63.8433
 31
0.0
  0
LINE
  8
0
 62
     0
 10
145.306
 20
63.8433
 30
0.0
 11
144.508
 21
63.8433
 31
0.0
  0
LINE
  8
0
 62
     0
 10
144.508
 20
63.8433
 30
0.0
 11
144.508
 21
60.7427
 31
0.0
  0
LINE
  8
0
 62
     0
 10
144.508
 20
60.7427
 30
0.0
 11
145.306
 21
60.7427
 31
0.0
  0
LINE
  8
0
 62
     0
 10
145.306
 20
60.7427
 30
0.0
 11
145.306
 21
59.7422
 31
0.0
  0
LINE
  8
0
 62
     0
 10
145.306
 20
59.7422
 30
0.0
 11
159.307
 21
59.7422
 31
0.0
  0
LINE
  8
0
 62
     0
 10
159.307
 20
59.7422
 30
0.0
 11
159.307
 21
60.7427
 31
0.0
  0
LINE
  8
0
 62
     0
 10
159.307
 20
60.7427
 30
0.0
 11
160.107
 21
60.7427
 31
0.0
  0
LINE
  8
0
 62
     0
 10
160.107
 20
60.7427
 30
0.0
 11
160.107
 21
63.8433
 31
0.0
  0
LINE
  8
0
 62
     0
 10
160.107
 20
63.8433
 30
0.0
 11
159.307
 21
63.8433
 31
0.0
  0
LINE
  8
0
 62
     0
 10
159.307
 20
63.8433
 30
0.0
 11
159.307
 21
69.6419
 31
0.0
  0
LINE
  8
0
 62
     0
 10
159.307
 20
69.6419
 30
0.0
 11
160.107
 21
69.6419
 31
0.0
  0
LINE
  8
0
 62
     0
 10
160.107
 20
69.6419
 30
0.0
 11
160.107
 21
72.7424
 31
0.0
  0
LINE
  8
0
 62
     0
 10
160.107
 20
72.7424
 30
0.0
 11
159.307
 21
72.7424
 31
0.0
  0
LINE
  8
0
 62
     0
 10
159.307
 20
72.7424
 30
0.0
 11
159.307
 21
73.7429
 31
0.0
  0
LINE
  8
0
 62
     0
 10
159.307
 20
73.7429
 30
0.0
 11
145.306
 21
73.7429
 31
0.0
  0
LINE
  8
0
 62
     0
 10
164.357
 20
73.7429
 30
0.0
 11
164.357
 21
72.7424
 31
0.0
  0
LINE
  8
0
 62
     0
 10
164.357
 20
72.7424
 30
0.0
 11
163.557
 21
72.7424
 31
0.0
  0
LINE
  8
0
 62
     0
 10
163.557
 20
72.7424
 30
0.0
 11
163.557
 21
69.6419
 31
0.0
  0
LINE
  8
0
 62
     0
 10
163.557
 20
69.6419
 30
0.0
 11
164.357
 21
69.6419
 31
0.0
  0
LINE
  8
0
 62
     0
 10
164.357
 20
69.6419
 30
0.0
 11
164.357
 21
63.8433
 31
0.0
  0
LINE
  8
0
 62
     0
 10
164.357
 20
63.8433
 30
0.0
 11
163.557
 21
63.8433
 31
0.0
  0
LINE
  8
0
 62
     0
 10
163.557
 20
63.8433
 30
0.0
 11
163.557
 21
60.7427
 31
0.0
  0
LINE
  8
0
 62
     0
 10
163.557
 20
60.7427
 30
0.0
 11
164.357
 21
60.7427
 31
0.0
  0
LINE
  8
0
 62
     0
 10
164.357
 20
60.7427
 30
0.0
 11
164.357
 21
59.7422
 31
0.0
  0
LINE
  8
0
 62
     0
 10
164.357
 20
59.7422
 30
0.0
 11
178.358
 21
59.7422
 31
0.0
  0
LINE
  8
0
 62
     0
 10
178.358
 20
59.7422
 30
0.0
 11
178.358
 21
60.7427
 31
0.0
  0
LINE
  8
0
 62
     0
 10
178.358
 20
60.7427
 30
0.0
 11
179.157
 21
60.7427
 31
0.0
  0
LINE
  8
0
 62
     0
 10
179.157
 20
60.7427
 30
0.0
 11
179.157
 21
63.8433
 31
0.0
  0
LINE
  8
0
 62
     0
 10
179.157
 20
63.8433
 30
0.0
 11
178.358
 21
63.8433
 31
0.0
  0
LINE
  8
0
 62
     0
 10
178.358
 20
63.8433
 30
0.0
 11
178.358
 21
69.6419
 31
0.0
  0
LINE
  8
0
 62
     0
 10
178.358
 20
69.6419
 30
0.0
 11
179.157
 21
69.6419
 31
0.0
  0
LINE
  8
0
 62
     0
 10
179.157
 20
69.6419
 30
0.0
 11
179.157
 21
72.7424
 31
0.0
  0
LINE
  8
0
 62
     0
 10
179.157
 20
72.7424
 30
0.0
 11
178.358
 21
72.7424
 31
0.0
  0
LINE
  8
0
 62
     0
 10
178.358
 20
72.7424
 30
0.0
 11
178.358
 21
73.7429
 31
0.0
  0
LINE
  8
0
 62
     0
 10
178.358
 20
73.7429
 30
0.0
 11
164.357
 21
73.7429
 31
0.0
  0
LINE
  8
0
 62
     0
 10
183.407
 20
73.7429
 30
0.0
 11
183.407
 21
72.7424
 31
0.0
  0
LINE
  8
0
 62
     0
 10
183.407
 20
72.7424
 30
0.0
 11
182.608
 21
72.7424
 31
0.0
  0
LINE
  8
0
 62
     0
 10
182.608
 20
72.7424
 30
0.0
 11
182.608
 21
69.6419
 31
0.0
  0
LINE
  8
0
 62
     0
 10
182.608
 20
69.6419
 30
0.0
 11
183.407
 21
69.6419
 31
0.0
  0
LINE
  8
0
 62
     0
 10
183.407
 20
69.6419
 30
0.0
 11
183.407
 21
63.8433
 31
0.0
  0
LINE
  8
0
 62
     0
 10
183.407
 20
63.8433
 30
0.0
 11
182.608
 21
63.8433
 31
0.0
  0
LINE
  8
0
 62
     0
 10
182.608
 20
63.8433
 30
0.0
 11
182.608
 21
60.7427
 31
0.0
  0
LINE
  8
0
 62
     0
 10
182.608
 20
60.7427
 30
0.0
 11
183.407
 21
60.7427
 31
0.0
  0
LINE
  8
0
 62
     0
 10
183.407
 20
60.7427
 30
0.0
 11
183.407
 21
59.7422
 31
0.0
  0
LINE
  8
0
 62
     0
 10
183.407
 20
59.7422
 30
0.0
 11
197.408
 21
59.7422
 31
0.0
  0
LINE
  8
0
 62
     0
 10
197.408
 20
59.7422
 30
0.0
 11
197.408
 21
60.7427
 31
0.0
  0
LINE
  8
0
 62
     0
 10
197.408
 20
60.7427
 30
0.0
 11
198.206
 21
60.7427
 31
0.0
  0
LINE
  8
0
 62
     0
 10
198.206
 20
60.7427
 30
0.0
 11
198.206
 21
63.8433
 31
0.0
  0
LINE
  8
0
 62
     0
 10
198.206
 20
63.8433
 30
0.0
 11
197.408
 21
63.8433
 31
0.0
  0
LINE
  8
0
 62
     0
 10
197.408
 20
63.8433
 30
0.0
 11
197.408
 21
69.6419
 31
0.0
  0
LINE
  8
0
 62
     0
 10
197.408
 20
69.6419
 30
0.0
 11
198.206
 21
69.6419
 31
0.0
  0
LINE
  8
0
 62
     0
 10
198.206
 20
69.6419
 30
0.0
 11
198.206
 21
72.7424
 31
0.0
  0
LINE
  8
0
 62
     0
 10
198.206
 20
72.7424
 30
0.0
 11
197.408
 21
72.7424
 31
0.0
  0
LINE
  8
0
 62
     0
 10
197.408
 20
72.7424
 30
0.0
 11
197.408
 21
73.7429
 31
0.0
  0
LINE
  8
0
 62
     0
 10
197.408
 20
73.7429
 30
0.0
 11
183.407
 21
73.7429
 31
0.0
  0
LINE
  8
0
 62
     0
 10
202.456
 20
73.7429
 30
0.0
 11
202.456
 21
72.7424
 31
0.0
  0
LINE
  8
0
 62
     0
 10
202.456
 20
72.7424
 30
0.0
 11
201.658
 21
72.7424
 31
0.0
  0
LINE
  8
0
 62
     0
 10
201.658
 20
72.7424
 30
0.0
 11
201.658
 21
69.6419
 31
0.0
  0
LINE
  8
0
 62
     0
 10
201.658
 20
69.6419
 30
0.0
 11
202.456
 21
69.6419
 31
0.0
  0
LINE
  8
0
 62
     0
 10
202.456
 20
69.6419
 30
0.0
 11
202.456
 21
63.8433
 31
0.0
  0
LINE
  8
0
 62
     0
 10
202.456
 20
63.8433
 30
0.0
 11
201.658
 21
63.8433
 31
0.0
  0
LINE
  8
0
 62
     0
 10
201.658
 20
63.8433
 30
0.0
 11
201.658
 21
60.7427
 31
0.0
  0
LINE
  8
0
 62
     0
 10
201.658
 20
60.7427
 30
0.0
 11
202.456
 21
60.7427
 31
0.0
  0
LINE
  8
0
 62
     0
 10
202.456
 20
60.7427
 30
0.0
 11
202.456
 21
59.7422
 31
0.0
  0
LINE
  8
0
 62
     0
 10
202.456
 20
59.7422
 30
0.0
 11
216.457
 21
59.7422
 31
0.0
  0
LINE
  8
0
 62
     0
 10
216.457
 20
59.7422
 30
0.0
 11
216.457
 21
60.7427
 31
0.0
  0
LINE
  8
0
 62
     0
 10
216.457
 20
60.7427
 30
0.0
 11
217.257
 21
60.7427
 31
0.0
  0
LINE
  8
0
 62
     0
 10
217.257
 20
60.7427
 30
0.0
 11
217.257
 21
63.8433
 31
0.0
  0
LINE
  8
0
 62
     0
 10
217.257
 20
63.8433
 30
0.0
 11
216.457
 21
63.8433
 31
0.0
  0
LINE
  8
0
 62
     0
 10
216.457
 20
63.8433
 30
0.0
 11
216.457
 21
69.6419
 31
0.0
  0
LINE
  8
0
 62
     0
 10
216.457
 20
69.6419
 30
0.0
 11
217.257
 21
69.6419
 31
0.0
  0
LINE
  8
0
 62
     0
 10
217.257
 20
69.6419
 30
0.0
 11
217.257
 21
72.7424
 31
0.0
  0
LINE
  8
0
 62
     0
 10
217.257
 20
72.7424
 30
0.0
 11
216.457
 21
72.7424
 31
0.0
  0
LINE
  8
0
 62
     0
 10
216.457
 20
72.7424
 30
0.0
 11
216.457
 21
73.7429
 31
0.0
  0
LINE
  8
0
 62
     0
 10
216.457
 20
73.7429
 30
0.0
 11
202.456
 21
73.7429
 31
0.0
  0
LINE
  8
0
 62
     0
 10
221.507
 20
73.7429
 30
0.0
 11
221.507
 21
72.7424
 31
0.0
  0
LINE
  8
0
 62
     0
 10
221.507
 20
72.7424
 30
0.0
 11
220.707
 21
72.7424
 31
0.0
  0
LINE
  8
0
 62
     0
 10
220.707
 20
72.7424
 30
0.0
 11
220.707
 21
69.6419
 31
0.0
  0
LINE
  8
0
 62
     0
 10
220.707
 20
69.6419
 30
0.0
 11
221.507
 21
69.6419
 31
0.0
  0
LINE
  8
0
 62
     0
 10
221.507
 20
69.6419
 30
0.0
 11
221.507
 21
63.8433
 31
0.0
  0
LINE
  8
0
 62
     0
 10
221.507
 20
63.8433
 30
0.0
 11
220.707
 21
63.8433
 31
0.0
  0
LINE
  8
0
 62
     0
 10
220.707
 20
63.8433
 30
0.0
 11
220.707
 21
60.7427
 31
0.0
  0
LINE
  8
0
 62
     0
 10
220.707
 20
60.7427
 30
0.0
 11
221.507
 21
60.7427
 31
0.0
  0
LINE
  8
0
 62
     0
 10
221.507
 20
60.7427
 30
0.0
 11
221.507
 21
59.7422
 31
0.0
  0
LINE
  8
0
 62
     0
 10
221.507
 20
59.7422
 30
0.0
 11
235.508
 21
59.7422
 31
0.0
  0
LINE
  8
0
 62
     0
 10
235.508
 20
59.7422
 30
0.0
 11
235.508
 21
60.7427
 31
0.0
  0
LINE
  8
0
 62
     0
 10
235.508
 20
60.7427
 30
0.0
 11
236.306
 21
60.7427
 31
0.0
  0
LINE
  8
0
 62
     0
 10
236.306
 20
60.7427
 30
0.0
 11
236.306
 21
63.8433
 31
0.0
  0
LINE
  8
0
 62
     0
 10
236.306
 20
63.8433
 30
0.0
 11
235.508
 21
63.8433
 31
0.0
  0
LINE
  8
0
 62
     0
 10
235.508
 20
63.8433
 30
0.0
 11
235.508
 21
69.6419
 31
0.0
  0
LINE
  8
0
 62
     0
 10
235.508
 20
69.6419
 30
0.0
 11
236.306
 21
69.6419
 31
0.0
  0
LINE
  8
0
 62
     0
 10
236.306
 20
69.6419
 30
0.0
 11
236.306
 21
72.7424
 31
0.0
  0
LINE
  8
0
 62
     0
 10
236.306
 20
72.7424
 30
0.0
 11
235.508
 21
72.7424
 31
0.0
  0
LINE
  8
0
 62
     0
 10
235.508
 20
72.7424
 30
0.0
 11
235.508
 21
73.7429
 31
0.0
  0
LINE
  8
0
 62
     0
 10
235.508
 20
73.7429
 30
0.0
 11
221.507
 21
73.7429
 31
0.0
  0
LINE
  8
0
 62
     0
 10
240.556
 20
73.7429
 30
0.0
 11
240.556
 21
72.7424
 31
0.0
  0
LINE
  8
0
 62
     0
 10
240.556
 20
72.7424
 30
0.0
 11
239.758
 21
72.7424
 31
0.0
  0
LINE
  8
0
 62
     0
 10
239.758
 20
72.7424
 30
0.0
 11
239.758
 21
69.6419
 31
0.0
  0
LINE
  8
0
 62
     0
 10
239.758
 20
69.6419
 30
0.0
 11
240.556
 21
69.6419
 31
0.0
  0
LINE
  8
0
 62
     0
 10
240.556
 20
69.6419
 30
0.0
 11
240.556
 21
63.8433
 31
0.0
  0
LINE
  8
0
 62
     0
 10
240.556
 20
63.8433
 30
0.0
 11
239.758
 21
63.8433
 31
0.0
  0
LINE
  8
0
 62
     0
 10
239.758
 20
63.8433
 30
0.0
 11
239.758
 21
60.7427
 31
0.0
  0
LINE
  8
0
 62
     0
 10
239.758
 20
60.7427
 30
0.0
 11
240.556
 21
60.7427
 31
0.0
  0
LINE
  8
0
 62
     0
 10
240.556
 20
60.7427
 30
0.0
 11
240.556
 21
59.7422
 31
0.0
  0
LINE
  8
0
 62
     0
 10
240.556
 20
59.7422
 30
0.0
 11
254.557
 21
59.7422
 31
0.0
  0
LINE
  8
0
 62
     0
 10
254.557
 20
59.7422
 30
0.0
 11
254.557
 21
60.7427
 31
0.0
  0
LINE
  8
0
 62
     0
 10
254.557
 20
60.7427
 30
0.0
 11
255.356
 21
60.7427
 31
0.0
  0
LINE
  8
0
 62
     0
 10
255.356
 20
60.7427
 30
0.0
 11
255.356
 21
63.8433
 31
0.0
  0
LINE
  8
0
 62
     0
 10
255.356
 20
63.8433
 30
0.0
 11
254.557
 21
63.8433
 31
0.0
  0
LINE
  8
0
 62
     0
 10
254.557
 20
63.8433
 30
0.0
 11
254.557
 21
69.6419
 31
0.0
  0
LINE
  8
0
 62
     0
 10
254.557
 20
69.6419
 30
0.0
 11
255.356
 21
69.6419
 31
0.0
  0
LINE
  8
0
 62
     0
 10
255.356
 20
69.6419
 30
0.0
 11
255.356
 21
72.7424
 31
0.0
  0
LINE
  8
0
 62
     0
 10
255.356
 20
72.7424
 30
0.0
 11
254.557
 21
72.7424
 31
0.0
  0
LINE
  8
0
 62
     0
 10
254.557
 20
72.7424
 30
0.0
 11
254.557
 21
73.7429
 31
0.0
  0
LINE
  8
0
 62
     0
 10
254.557
 20
73.7429
 30
0.0
 11
240.556
 21
73.7429
 31
0.0
  0
LINE
  8
0
 62
     0
 10
264.37
 20
73.7429
 30
0.0
 11
264.37
 21
72.7424
 31
0.0
  0
LINE
  8
0
 62
     0
 10
264.37
 20
72.7424
 30
0.0
 11
263.569
 21
72.7424
 31
0.0
  0
LINE
  8
0
 62
     0
 10
263.569
 20
72.7424
 30
0.0
 11
263.569
 21
69.6419
 31
0.0
  0
LINE
  8
0
 62
     0
 10
263.569
 20
69.6419
 30
0.0
 11
264.37
 21
69.6419
 31
0.0
  0
LINE
  8
0
 62
     0
 10
264.37
 20
69.6419
 30
0.0
 11
264.37
 21
63.8433
 31
0.0
  0
LINE
  8
0
 62
     0
 10
264.37
 20
63.8433
 30
0.0
 11
263.569
 21
63.8433
 31
0.0
  0
LINE
  8
0
 62
     0
 10
263.569
 20
63.8433
 30
0.0
 11
263.569
 21
60.7427
 31
0.0
  0
LINE
  8
0
 62
     0
 10
263.569
 20
60.7427
 30
0.0
 11
264.37
 21
60.7427
 31
0.0
  0
LINE
  8
0
 62
     0
 10
264.37
 20
60.7427
 30
0.0
 11
264.37
 21
59.7422
 31
0.0
  0
LINE
  8
0
 62
     0
 10
264.37
 20
59.7422
 30
0.0
 11
278.369
 21
59.7422
 31
0.0
  0
LINE
  8
0
 62
     0
 10
278.369
 20
59.7422
 30
0.0
 11
278.369
 21
60.7427
 31
0.0
  0
LINE
  8
0
 62
     0
 10
278.369
 20
60.7427
 30
0.0
 11
279.17
 21
60.7427
 31
0.0
  0
LINE
  8
0
 62
     0
 10
279.17
 20
60.7427
 30
0.0
 11
279.17
 21
63.8433
 31
0.0
  0
LINE
  8
0
 62
     0
 10
279.17
 20
63.8433
 30
0.0
 11
278.369
 21
63.8433
 31
0.0
  0
LINE
  8
0
 62
     0
 10
278.369
 20
63.8433
 30
0.0
 11
278.369
 21
69.6419
 31
0.0
  0
LINE
  8
0
 62
     0
 10
278.369
 20
69.6419
 30
0.0
 11
279.17
 21
69.6419
 31
0.0
  0
LINE
  8
0
 62
     0
 10
279.17
 20
69.6419
 30
0.0
 11
279.17
 21
72.7424
 31
0.0
  0
LINE
  8
0
 62
     0
 10
279.17
 20
72.7424
 30
0.0
 11
278.369
 21
72.7424
 31
0.0
  0
LINE
  8
0
 62
     0
 10
278.369
 20
72.7424
 30
0.0
 11
278.369
 21
73.7429
 31
0.0
  0
LINE
  8
0
 62
     0
 10
278.369
 20
73.7429
 30
0.0
 11
264.37
 21
73.7429
 31
0.0
  0
LINE
  8
0
 62
     0
 10
25.0197
 20
68.519
 30
0.0
 11
24.6021
 21
68.3038
 31
0.0
  0
LINE
  8
0
 62
     0
 10
24.6021
 20
68.3038
 30
0.0
 11
24.27
 21
67.9746
 31
0.0
  0
LINE
  8
0
 62
     0
 10
24.27
 20
67.9746
 30
0.0
 11
24.055
 21
67.5569
 31
0.0
  0
LINE
  8
0
 62
     0
 10
24.055
 20
67.5569
 30
0.0
 11
23.9834
 21
67.0913
 31
0.0
  0
LINE
  8
0
 62
     0
 10
23.9834
 20
67.0913
 30
0.0
 11
24.055
 21
66.6281
 31
0.0
  0
LINE
  8
0
 62
     0
 10
24.055
 20
66.6281
 30
0.0
 11
24.27
 21
66.2093
 31
0.0
  0
LINE
  8
0
 62
     0
 10
24.27
 20
66.2093
 30
0.0
 11
24.6021
 21
65.877
 31
0.0
  0
LINE
  8
0
 62
     0
 10
24.6021
 20
65.877
 30
0.0
 11
25.0197
 21
65.665
 31
0.0
  0
LINE
  8
0
 62
     0
 10
25.0197
 20
65.665
 30
0.0
 11
25.4841
 21
65.5906
 31
0.0
  0
LINE
  8
0
 62
     0
 10
25.4841
 20
65.5906
 30
0.0
 11
25.9471
 21
65.665
 31
0.0
  0
LINE
  8
0
 62
     0
 10
25.9471
 20
65.665
 30
0.0
 11
26.3633
 21
65.877
 31
0.0
  0
LINE
  8
0
 62
     0
 10
26.3633
 20
65.877
 30
0.0
 11
26.6967
 21
66.2093
 31
0.0
  0
LINE
  8
0
 62
     0
 10
26.6967
 20
66.2093
 30
0.0
 11
26.9089
 21
66.6281
 31
0.0
  0
LINE
  8
0
 62
     0
 10
26.9089
 20
66.6281
 30
0.0
 11
26.9834
 21
67.0913
 31
0.0
  0
LINE
  8
0
 62
     0
 10
26.9834
 20
67.0913
 30
0.0
 11
26.9089
 21
67.5569
 31
0.0
  0
LINE
  8
0
 62
     0
 10
26.9089
 20
67.5569
 30
0.0
 11
26.6967
 21
67.9746
 31
0.0
  0
LINE
  8
0
 62
     0
 10
26.6967
 20
67.9746
 30
0.0
 11
26.3633
 21
68.3038
 31
0.0
  0
LINE
  8
0
 62
     0
 10
26.3633
 20
68.3038
 30
0.0
 11
25.9471
 21
68.519
 31
0.0
  0
LINE
  8
0
 62
     0
 10
25.9471
 20
68.519
 30
0.0
 11
25.4841
 21
68.592
 31
0.0
  0
LINE
  8
0
 62
     0
 10
25.4841
 20
68.592
 30
0.0
 11
25.0197
 21
68.519
 31
0.0
  0
LINE
  8
0
 62
     0
 10
259.869
 20
68.519
 30
0.0
 11
259.45
 21
68.3038
 31
0.0
  0
LINE
  8
0
 62
     0
 10
259.45
 20
68.3038
 30
0.0
 11
259.118
 21
67.9746
 31
0.0
  0
LINE
  8
0
 62
     0
 10
259.118
 20
67.9746
 30
0.0
 11
258.906
 21
67.5569
 31
0.0
  0
LINE
  8
0
 62
     0
 10
258.906
 20
67.5569
 30
0.0
 11
258.833
 21
67.0913
 31
0.0
  0
LINE
  8
0
 62
     0
 10
258.833
 20
67.0913
 30
0.0
 11
258.906
 21
66.6281
 31
0.0
  0
LINE
  8
0
 62
     0
 10
258.906
 20
66.6281
 30
0.0
 11
259.118
 21
66.2093
 31
0.0
  0
LINE
  8
0
 62
     0
 10
259.118
 20
66.2093
 30
0.0
 11
259.45
 21
65.877
 31
0.0
  0
LINE
  8
0
 62
     0
 10
259.45
 20
65.877
 30
0.0
 11
259.869
 21
65.665
 31
0.0
  0
LINE
  8
0
 62
     0
 10
259.869
 20
65.665
 30
0.0
 11
260.332
 21
65.5906
 31
0.0
  0
LINE
  8
0
 62
     0
 10
260.332
 20
65.5906
 30
0.0
 11
260.795
 21
65.665
 31
0.0
  0
LINE
  8
0
 62
     0
 10
260.795
 20
65.665
 30
0.0
 11
261.214
 21
65.877
 31
0.0
  0
LINE
  8
0
 62
     0
 10
261.214
 20
65.877
 30
0.0
 11
261.546
 21
66.2093
 31
0.0
  0
LINE
  8
0
 62
     0
 10
261.546
 20
66.2093
 30
0.0
 11
261.758
 21
66.6281
 31
0.0
  0
LINE
  8
0
 62
     0
 10
261.758
 20
66.6281
 30
0.0
 11
261.833
 21
67.0913
 31
0.0
  0
LINE
  8
0
 62
     0
 10
261.833
 20
67.0913
 30
0.0
 11
261.758
 21
67.5569
 31
0.0
  0
LINE
  8
0
 62
     0
 10
261.758
 20
67.5569
 30
0.0
 11
261.546
 21
67.9746
 31
0.0
  0
LINE
  8
0
 62
     0
 10
261.546
 20
67.9746
 30
0.0
 11
261.214
 21
68.3038
 31
0.0
  0
LINE
  8
0
 62
     0
 10
261.214
 20
68.3038
 30
0.0
 11
260.795
 21
68.519
 31
0.0
  0
LINE
  8
0
 62
     0
 10
260.795
 20
68.519
 30
0.0
 11
260.332
 21
68.592
 31
0.0
  0
LINE
  8
0
 62
     0
 10
260.332
 20
68.592
 30
0.0
 11
259.869
 21
68.519
 31
0.0
  0
LINE
  8
0
 62
     0
 10
259.606
 20
92.7929
 30
0.0
 11
259.606
 21
91.7924
 31
0.0
  0
LINE
  8
0
 62
     0
 10
259.606
 20
91.7924
 30
0.0
 11
258.807
 21
91.7924
 31
0.0
  0
LINE
  8
0
 62
     0
 10
258.807
 20
91.7924
 30
0.0
 11
258.807
 21
88.6919
 31
0.0
  0
LINE
  8
0
 62
     0
 10
258.807
 20
88.6919
 30
0.0
 11
259.606
 21
88.6919
 31
0.0
  0
LINE
  8
0
 62
     0
 10
259.606
 20
88.6919
 30
0.0
 11
259.606
 21
88.0925
 31
0.0
  0
LINE
  8
0
 62
     0
 10
259.606
 20
88.0925
 30
0.0
 11
258.082
 21
88.0925
 31
0.0
  0
LINE
  8
0
 62
     0
 10
258.082
 20
88.0925
 30
0.0
 11
258.082
 21
91.3225
 31
0.0
  0
LINE
  8
0
 62
     0
 10
258.082
 20
91.3225
 30
0.0
 11
256.357
 21
91.3225
 31
0.0
  0
LINE
  8
0
 62
     0
 10
256.357
 20
91.3225
 30
0.0
 11
256.357
 21
92.2433
 31
0.0
  0
LINE
  8
0
 62
     0
 10
256.357
 20
92.2433
 30
0.0
 11
253.056
 21
92.2433
 31
0.0
  0
LINE
  8
0
 62
     0
 10
253.056
 20
92.2433
 30
0.0
 11
253.056
 21
91.3225
 31
0.0
  0
LINE
  8
0
 62
     0
 10
253.056
 20
91.3225
 30
0.0
 11
251.332
 21
91.3225
 31
0.0
  0
LINE
  8
0
 62
     0
 10
251.332
 20
91.3225
 30
0.0
 11
251.332
 21
88.0925
 31
0.0
  0
LINE
  8
0
 62
     0
 10
251.332
 20
88.0925
 30
0.0
 11
250.508
 21
88.0925
 31
0.0
  0
LINE
  8
0
 62
     0
 10
250.508
 20
88.0925
 30
0.0
 11
250.508
 21
85.2921
 31
0.0
  0
LINE
  8
0
 62
     0
 10
250.508
 20
85.2921
 30
0.0
 11
251.332
 21
85.2921
 31
0.0
  0
LINE
  8
0
 62
     0
 10
251.332
 20
85.2921
 30
0.0
 11
251.332
 21
79.0208
 31
0.0
  0
LINE
  8
0
 62
     0
 10
251.332
 20
79.0208
 30
0.0
 11
253.056
 21
79.0208
 31
0.0
  0
LINE
  8
0
 62
     0
 10
253.056
 20
79.0208
 30
0.0
 11
253.056
 21
78.0426
 31
0.0
  0
LINE
  8
0
 62
     0
 10
253.056
 20
78.0426
 30
0.0
 11
256.357
 21
78.0426
 31
0.0
  0
LINE
  8
0
 62
     0
 10
256.357
 20
78.0426
 30
0.0
 11
256.357
 21
79.0208
 31
0.0
  0
LINE
  8
0
 62
     0
 10
256.357
 20
79.0208
 30
0.0
 11
258.082
 21
79.0208
 31
0.0
  0
LINE
  8
0
 62
     0
 10
258.082
 20
79.0208
 30
0.0
 11
258.082
 21
83.4926
 31
0.0
  0
LINE
  8
0
 62
     0
 10
258.082
 20
83.4926
 30
0.0
 11
259.606
 21
83.4926
 31
0.0
  0
LINE
  8
0
 62
     0
 10
259.606
 20
83.4926
 30
0.0
 11
259.606
 21
82.8933
 31
0.0
  0
LINE
  8
0
 62
     0
 10
259.606
 20
82.8933
 30
0.0
 11
258.807
 21
82.8933
 31
0.0
  0
LINE
  8
0
 62
     0
 10
258.807
 20
82.8933
 30
0.0
 11
258.807
 21
79.7927
 31
0.0
  0
LINE
  8
0
 62
     0
 10
258.807
 20
79.7927
 30
0.0
 11
259.606
 21
79.7927
 31
0.0
  0
LINE
  8
0
 62
     0
 10
259.606
 20
79.7927
 30
0.0
 11
259.606
 21
78.7922
 31
0.0
  0
LINE
  8
0
 62
     0
 10
259.606
 20
78.7922
 30
0.0
 11
273.607
 21
78.7922
 31
0.0
  0
LINE
  8
0
 62
     0
 10
273.607
 20
78.7922
 30
0.0
 11
273.607
 21
79.7927
 31
0.0
  0
LINE
  8
0
 62
     0
 10
273.607
 20
79.7927
 30
0.0
 11
274.406
 21
79.7927
 31
0.0
  0
LINE
  8
0
 62
     0
 10
274.406
 20
79.7927
 30
0.0
 11
274.406
 21
82.8933
 31
0.0
  0
LINE
  8
0
 62
     0
 10
274.406
 20
82.8933
 30
0.0
 11
273.607
 21
82.8933
 31
0.0
  0
LINE
  8
0
 62
     0
 10
273.607
 20
82.8933
 30
0.0
 11
273.607
 21
83.4926
 31
0.0
  0
LINE
  8
0
 62
     0
 10
273.607
 20
83.4926
 30
0.0
 11
275.131
 21
83.4926
 31
0.0
  0
LINE
  8
0
 62
     0
 10
275.131
 20
83.4926
 30
0.0
 11
275.131
 21
79.0208
 31
0.0
  0
LINE
  8
0
 62
     0
 10
275.131
 20
79.0208
 30
0.0
 11
276.856
 21
79.0208
 31
0.0
  0
LINE
  8
0
 62
     0
 10
276.856
 20
79.0208
 30
0.0
 11
276.856
 21
78.0426
 31
0.0
  0
LINE
  8
0
 62
     0
 10
276.856
 20
78.0426
 30
0.0
 11
280.157
 21
78.0426
 31
0.0
  0
LINE
  8
0
 62
     0
 10
280.157
 20
78.0426
 30
0.0
 11
280.157
 21
79.0208
 31
0.0
  0
LINE
  8
0
 62
     0
 10
280.157
 20
79.0208
 30
0.0
 11
281.882
 21
79.0208
 31
0.0
  0
LINE
  8
0
 62
     0
 10
281.882
 20
79.0208
 30
0.0
 11
281.882
 21
85.2921
 31
0.0
  0
LINE
  8
0
 62
     0
 10
281.882
 20
85.2921
 30
0.0
 11
282.706
 21
85.2921
 31
0.0
  0
LINE
  8
0
 62
     0
 10
282.706
 20
85.2921
 30
0.0
 11
282.706
 21
88.0925
 31
0.0
  0
LINE
  8
0
 62
     0
 10
282.706
 20
88.0925
 30
0.0
 11
281.882
 21
88.0925
 31
0.0
  0
LINE
  8
0
 62
     0
 10
281.882
 20
88.0925
 30
0.0
 11
281.882
 21
91.3225
 31
0.0
  0
LINE
  8
0
 62
     0
 10
281.882
 20
91.3225
 30
0.0
 11
280.157
 21
91.3225
 31
0.0
  0
LINE
  8
0
 62
     0
 10
280.157
 20
91.3225
 30
0.0
 11
280.157
 21
92.2433
 31
0.0
  0
LINE
  8
0
 62
     0
 10
280.157
 20
92.2433
 30
0.0
 11
276.856
 21
92.2433
 31
0.0
  0
LINE
  8
0
 62
     0
 10
276.856
 20
92.2433
 30
0.0
 11
276.856
 21
91.3225
 31
0.0
  0
LINE
  8
0
 62
     0
 10
276.856
 20
91.3225
 30
0.0
 11
275.131
 21
91.3225
 31
0.0
  0
LINE
  8
0
 62
     0
 10
275.131
 20
91.3225
 30
0.0
 11
275.131
 21
88.0925
 31
0.0
  0
LINE
  8
0
 62
     0
 10
275.131
 20
88.0925
 30
0.0
 11
273.607
 21
88.0925
 31
0.0
  0
LINE
  8
0
 62
     0
 10
273.607
 20
88.0925
 30
0.0
 11
273.607
 21
88.6919
 31
0.0
  0
LINE
  8
0
 62
     0
 10
273.607
 20
88.6919
 30
0.0
 11
274.406
 21
88.6919
 31
0.0
  0
LINE
  8
0
 62
     0
 10
274.406
 20
88.6919
 30
0.0
 11
274.406
 21
91.7924
 31
0.0
  0
LINE
  8
0
 62
     0
 10
274.406
 20
91.7924
 30
0.0
 11
273.607
 21
91.7924
 31
0.0
  0
LINE
  8
0
 62
     0
 10
273.607
 20
91.7924
 30
0.0
 11
273.607
 21
92.7929
 31
0.0
  0
LINE
  8
0
 62
     0
 10
273.607
 20
92.7929
 30
0.0
 11
259.606
 21
92.7929
 31
0.0
  0
LINE
  8
0
 62
     0
 10
2.43224
 20
92.7929
 30
0.0
 11
2.43224
 21
91.7924
 31
0.0
  0
LINE
  8
0
 62
     0
 10
2.43224
 20
91.7924
 30
0.0
 11
1.63298
 21
91.7924
 31
0.0
  0
LINE
  8
0
 62
     0
 10
1.63298
 20
91.7924
 30
0.0
 11
1.63298
 21
88.6919
 31
0.0
  0
LINE
  8
0
 62
     0
 10
1.63298
 20
88.6919
 30
0.0
 11
2.43224
 21
88.6919
 31
0.0
  0
LINE
  8
0
 62
     0
 10
2.43224
 20
88.6919
 30
0.0
 11
2.43224
 21
82.8933
 31
0.0
  0
LINE
  8
0
 62
     0
 10
2.43224
 20
82.8933
 30
0.0
 11
1.63298
 21
82.8933
 31
0.0
  0
LINE
  8
0
 62
     0
 10
1.63298
 20
82.8933
 30
0.0
 11
1.63298
 21
79.7927
 31
0.0
  0
LINE
  8
0
 62
     0
 10
1.63298
 20
79.7927
 30
0.0
 11
2.43224
 21
79.7927
 31
0.0
  0
LINE
  8
0
 62
     0
 10
2.43224
 20
79.7927
 30
0.0
 11
2.43224
 21
78.7922
 31
0.0
  0
LINE
  8
0
 62
     0
 10
2.43224
 20
78.7922
 30
0.0
 11
16.4331
 21
78.7922
 31
0.0
  0
LINE
  8
0
 62
     0
 10
16.4331
 20
78.7922
 30
0.0
 11
16.4331
 21
79.7927
 31
0.0
  0
LINE
  8
0
 62
     0
 10
16.4331
 20
79.7927
 30
0.0
 11
17.2324
 21
79.7927
 31
0.0
  0
LINE
  8
0
 62
     0
 10
17.2324
 20
79.7927
 30
0.0
 11
17.2324
 21
82.8933
 31
0.0
  0
LINE
  8
0
 62
     0
 10
17.2324
 20
82.8933
 30
0.0
 11
16.4331
 21
82.8933
 31
0.0
  0
LINE
  8
0
 62
     0
 10
16.4331
 20
82.8933
 30
0.0
 11
16.4331
 21
88.6919
 31
0.0
  0
LINE
  8
0
 62
     0
 10
16.4331
 20
88.6919
 30
0.0
 11
17.2324
 21
88.6919
 31
0.0
  0
LINE
  8
0
 62
     0
 10
17.2324
 20
88.6919
 30
0.0
 11
17.2324
 21
91.7924
 31
0.0
  0
LINE
  8
0
 62
     0
 10
17.2324
 20
91.7924
 30
0.0
 11
16.4331
 21
91.7924
 31
0.0
  0
LINE
  8
0
 62
     0
 10
16.4331
 20
91.7924
 30
0.0
 11
16.4331
 21
92.7929
 31
0.0
  0
LINE
  8
0
 62
     0
 10
16.4331
 20
92.7929
 30
0.0
 11
2.43224
 21
92.7929
 31
0.0
  0
LINE
  8
0
 62
     0
 10
21.4822
 20
92.7929
 30
0.0
 11
21.4822
 21
91.7924
 31
0.0
  0
LINE
  8
0
 62
     0
 10
21.4822
 20
91.7924
 30
0.0
 11
20.683
 21
91.7924
 31
0.0
  0
LINE
  8
0
 62
     0
 10
20.683
 20
91.7924
 30
0.0
 11
20.683
 21
88.6919
 31
0.0
  0
LINE
  8
0
 62
     0
 10
20.683
 20
88.6919
 30
0.0
 11
21.4822
 21
88.6919
 31
0.0
  0
LINE
  8
0
 62
     0
 10
21.4822
 20
88.6919
 30
0.0
 11
21.4822
 21
82.8933
 31
0.0
  0
LINE
  8
0
 62
     0
 10
21.4822
 20
82.8933
 30
0.0
 11
20.683
 21
82.8933
 31
0.0
  0
LINE
  8
0
 62
     0
 10
20.683
 20
82.8933
 30
0.0
 11
20.683
 21
79.7927
 31
0.0
  0
LINE
  8
0
 62
     0
 10
20.683
 20
79.7927
 30
0.0
 11
21.4822
 21
79.7927
 31
0.0
  0
LINE
  8
0
 62
     0
 10
21.4822
 20
79.7927
 30
0.0
 11
21.4822
 21
78.7922
 31
0.0
  0
LINE
  8
0
 62
     0
 10
21.4822
 20
78.7922
 30
0.0
 11
35.4831
 21
78.7922
 31
0.0
  0
LINE
  8
0
 62
     0
 10
35.4831
 20
78.7922
 30
0.0
 11
35.4831
 21
79.7927
 31
0.0
  0
LINE
  8
0
 62
     0
 10
35.4831
 20
79.7927
 30
0.0
 11
36.2825
 21
79.7927
 31
0.0
  0
LINE
  8
0
 62
     0
 10
36.2825
 20
79.7927
 30
0.0
 11
36.2825
 21
82.8933
 31
0.0
  0
LINE
  8
0
 62
     0
 10
36.2825
 20
82.8933
 30
0.0
 11
35.4831
 21
82.8933
 31
0.0
  0
LINE
  8
0
 62
     0
 10
35.4831
 20
82.8933
 30
0.0
 11
35.4831
 21
88.6919
 31
0.0
  0
LINE
  8
0
 62
     0
 10
35.4831
 20
88.6919
 30
0.0
 11
36.2825
 21
88.6919
 31
0.0
  0
LINE
  8
0
 62
     0
 10
36.2825
 20
88.6919
 30
0.0
 11
36.2825
 21
91.7924
 31
0.0
  0
LINE
  8
0
 62
     0
 10
36.2825
 20
91.7924
 30
0.0
 11
35.4831
 21
91.7924
 31
0.0
  0
LINE
  8
0
 62
     0
 10
35.4831
 20
91.7924
 30
0.0
 11
35.4831
 21
92.7929
 31
0.0
  0
LINE
  8
0
 62
     0
 10
35.4831
 20
92.7929
 30
0.0
 11
21.4822
 21
92.7929
 31
0.0
  0
LINE
  8
0
 62
     0
 10
40.5324
 20
92.7929
 30
0.0
 11
40.5324
 21
91.7924
 31
0.0
  0
LINE
  8
0
 62
     0
 10
40.5324
 20
91.7924
 30
0.0
 11
39.733
 21
91.7924
 31
0.0
  0
LINE
  8
0
 62
     0
 10
39.733
 20
91.7924
 30
0.0
 11
39.733
 21
88.6919
 31
0.0
  0
LINE
  8
0
 62
     0
 10
39.733
 20
88.6919
 30
0.0
 11
40.5324
 21
88.6919
 31
0.0
  0
LINE
  8
0
 62
     0
 10
40.5324
 20
88.6919
 30
0.0
 11
40.5324
 21
82.8933
 31
0.0
  0
LINE
  8
0
 62
     0
 10
40.5324
 20
82.8933
 30
0.0
 11
39.733
 21
82.8933
 31
0.0
  0
LINE
  8
0
 62
     0
 10
39.733
 20
82.8933
 30
0.0
 11
39.733
 21
79.7927
 31
0.0
  0
LINE
  8
0
 62
     0
 10
39.733
 20
79.7927
 30
0.0
 11
40.5324
 21
79.7927
 31
0.0
  0
LINE
  8
0
 62
     0
 10
40.5324
 20
79.7927
 30
0.0
 11
40.5324
 21
78.7922
 31
0.0
  0
LINE
  8
0
 62
     0
 10
40.5324
 20
78.7922
 30
0.0
 11
54.5331
 21
78.7922
 31
0.0
  0
LINE
  8
0
 62
     0
 10
54.5331
 20
78.7922
 30
0.0
 11
54.5331
 21
79.7927
 31
0.0
  0
LINE
  8
0
 62
     0
 10
54.5331
 20
79.7927
 30
0.0
 11
55.3311
 21
79.7927
 31
0.0
  0
LINE
  8
0
 62
     0
 10
55.3311
 20
79.7927
 30
0.0
 11
55.3311
 21
82.8933
 31
0.0
  0
LINE
  8
0
 62
     0
 10
55.3311
 20
82.8933
 30
0.0
 11
54.5331
 21
82.8933
 31
0.0
  0
LINE
  8
0
 62
     0
 10
54.5331
 20
82.8933
 30
0.0
 11
54.5331
 21
88.6919
 31
0.0
  0
LINE
  8
0
 62
     0
 10
54.5331
 20
88.6919
 30
0.0
 11
55.3311
 21
88.6919
 31
0.0
  0
LINE
  8
0
 62
     0
 10
55.3311
 20
88.6919
 30
0.0
 11
55.3311
 21
91.7924
 31
0.0
  0
LINE
  8
0
 62
     0
 10
55.3311
 20
91.7924
 30
0.0
 11
54.5331
 21
91.7924
 31
0.0
  0
LINE
  8
0
 62
     0
 10
54.5331
 20
91.7924
 30
0.0
 11
54.5331
 21
92.7929
 31
0.0
  0
LINE
  8
0
 62
     0
 10
54.5331
 20
92.7929
 30
0.0
 11
40.5324
 21
92.7929
 31
0.0
  0
LINE
  8
0
 62
     0
 10
59.581
 20
92.7929
 30
0.0
 11
59.581
 21
91.7924
 31
0.0
  0
LINE
  8
0
 62
     0
 10
59.581
 20
91.7924
 30
0.0
 11
58.783
 21
91.7924
 31
0.0
  0
LINE
  8
0
 62
     0
 10
58.783
 20
91.7924
 30
0.0
 11
58.783
 21
88.6919
 31
0.0
  0
LINE
  8
0
 62
     0
 10
58.783
 20
88.6919
 30
0.0
 11
59.581
 21
88.6919
 31
0.0
  0
LINE
  8
0
 62
     0
 10
59.581
 20
88.6919
 30
0.0
 11
59.581
 21
82.8933
 31
0.0
  0
LINE
  8
0
 62
     0
 10
59.581
 20
82.8933
 30
0.0
 11
58.783
 21
82.8933
 31
0.0
  0
LINE
  8
0
 62
     0
 10
58.783
 20
82.8933
 30
0.0
 11
58.783
 21
79.7927
 31
0.0
  0
LINE
  8
0
 62
     0
 10
58.783
 20
79.7927
 30
0.0
 11
59.581
 21
79.7927
 31
0.0
  0
LINE
  8
0
 62
     0
 10
59.581
 20
79.7927
 30
0.0
 11
59.581
 21
78.7922
 31
0.0
  0
LINE
  8
0
 62
     0
 10
59.581
 20
78.7922
 30
0.0
 11
73.5817
 21
78.7922
 31
0.0
  0
LINE
  8
0
 62
     0
 10
73.5817
 20
78.7922
 30
0.0
 11
73.5817
 21
79.7927
 31
0.0
  0
LINE
  8
0
 62
     0
 10
73.5817
 20
79.7927
 30
0.0
 11
74.3825
 21
79.7927
 31
0.0
  0
LINE
  8
0
 62
     0
 10
74.3825
 20
79.7927
 30
0.0
 11
74.3825
 21
82.8933
 31
0.0
  0
LINE
  8
0
 62
     0
 10
74.3825
 20
82.8933
 30
0.0
 11
73.5817
 21
82.8933
 31
0.0
  0
LINE
  8
0
 62
     0
 10
73.5817
 20
82.8933
 30
0.0
 11
73.5817
 21
88.6919
 31
0.0
  0
LINE
  8
0
 62
     0
 10
73.5817
 20
88.6919
 30
0.0
 11
74.3825
 21
88.6919
 31
0.0
  0
LINE
  8
0
 62
     0
 10
74.3825
 20
88.6919
 30
0.0
 11
74.3825
 21
91.7924
 31
0.0
  0
LINE
  8
0
 62
     0
 10
74.3825
 20
91.7924
 30
0.0
 11
73.5817
 21
91.7924
 31
0.0
  0
LINE
  8
0
 62
     0
 10
73.5817
 20
91.7924
 30
0.0
 11
73.5817
 21
92.7929
 31
0.0
  0
LINE
  8
0
 62
     0
 10
73.5817
 20
92.7929
 30
0.0
 11
59.581
 21
92.7929
 31
0.0
  0
LINE
  8
0
 62
     0
 10
78.6324
 20
92.7929
 30
0.0
 11
78.6324
 21
91.7924
 31
0.0
  0
LINE
  8
0
 62
     0
 10
78.6324
 20
91.7924
 30
0.0
 11
77.8316
 21
91.7924
 31
0.0
  0
LINE
  8
0
 62
     0
 10
77.8316
 20
91.7924
 30
0.0
 11
77.8316
 21
88.6919
 31
0.0
  0
LINE
  8
0
 62
     0
 10
77.8316
 20
88.6919
 30
0.0
 11
78.6324
 21
88.6919
 31
0.0
  0
LINE
  8
0
 62
     0
 10
78.6324
 20
88.6919
 30
0.0
 11
78.6324
 21
82.8933
 31
0.0
  0
LINE
  8
0
 62
     0
 10
78.6324
 20
82.8933
 30
0.0
 11
77.8316
 21
82.8933
 31
0.0
  0
LINE
  8
0
 62
     0
 10
77.8316
 20
82.8933
 30
0.0
 11
77.8316
 21
79.7927
 31
0.0
  0
LINE
  8
0
 62
     0
 10
77.8316
 20
79.7927
 30
0.0
 11
78.6324
 21
79.7927
 31
0.0
  0
LINE
  8
0
 62
     0
 10
78.6324
 20
79.7927
 30
0.0
 11
78.6324
 21
78.7922
 31
0.0
  0
LINE
  8
0
 62
     0
 10
78.6324
 20
78.7922
 30
0.0
 11
92.6331
 21
78.7922
 31
0.0
  0
LINE
  8
0
 62
     0
 10
92.6331
 20
78.7922
 30
0.0
 11
92.6331
 21
79.7927
 31
0.0
  0
LINE
  8
0
 62
     0
 10
92.6331
 20
79.7927
 30
0.0
 11
93.4325
 21
79.7927
 31
0.0
  0
LINE
  8
0
 62
     0
 10
93.4325
 20
79.7927
 30
0.0
 11
93.4325
 21
82.8933
 31
0.0
  0
LINE
  8
0
 62
     0
 10
93.4325
 20
82.8933
 30
0.0
 11
92.6331
 21
82.8933
 31
0.0
  0
LINE
  8
0
 62
     0
 10
92.6331
 20
82.8933
 30
0.0
 11
92.6331
 21
88.6919
 31
0.0
  0
LINE
  8
0
 62
     0
 10
92.6331
 20
88.6919
 30
0.0
 11
93.4325
 21
88.6919
 31
0.0
  0
LINE
  8
0
 62
     0
 10
93.4325
 20
88.6919
 30
0.0
 11
93.4325
 21
91.7924
 31
0.0
  0
LINE
  8
0
 62
     0
 10
93.4325
 20
91.7924
 30
0.0
 11
92.6331
 21
91.7924
 31
0.0
  0
LINE
  8
0
 62
     0
 10
92.6331
 20
91.7924
 30
0.0
 11
92.6331
 21
92.7929
 31
0.0
  0
LINE
  8
0
 62
     0
 10
92.6331
 20
92.7929
 30
0.0
 11
78.6324
 21
92.7929
 31
0.0
  0
LINE
  8
0
 62
     0
 10
97.6824
 20
92.7929
 30
0.0
 11
97.6824
 21
91.7924
 31
0.0
  0
LINE
  8
0
 62
     0
 10
97.6824
 20
91.7924
 30
0.0
 11
96.883
 21
91.7924
 31
0.0
  0
LINE
  8
0
 62
     0
 10
96.883
 20
91.7924
 30
0.0
 11
96.883
 21
88.6919
 31
0.0
  0
LINE
  8
0
 62
     0
 10
96.883
 20
88.6919
 30
0.0
 11
97.6824
 21
88.6919
 31
0.0
  0
LINE
  8
0
 62
     0
 10
97.6824
 20
88.6919
 30
0.0
 11
97.6824
 21
82.8933
 31
0.0
  0
LINE
  8
0
 62
     0
 10
97.6824
 20
82.8933
 30
0.0
 11
96.883
 21
82.8933
 31
0.0
  0
LINE
  8
0
 62
     0
 10
96.883
 20
82.8933
 30
0.0
 11
96.883
 21
79.7927
 31
0.0
  0
LINE
  8
0
 62
     0
 10
96.883
 20
79.7927
 30
0.0
 11
97.6824
 21
79.7927
 31
0.0
  0
LINE
  8
0
 62
     0
 10
97.6824
 20
79.7927
 30
0.0
 11
97.6824
 21
78.7922
 31
0.0
  0
LINE
  8
0
 62
     0
 10
97.6824
 20
78.7922
 30
0.0
 11
111.683
 21
78.7922
 31
0.0
  0
LINE
  8
0
 62
     0
 10
111.683
 20
78.7922
 30
0.0
 11
111.683
 21
79.7927
 31
0.0
  0
LINE
  8
0
 62
     0
 10
111.683
 20
79.7927
 30
0.0
 11
112.482
 21
79.7927
 31
0.0
  0
LINE
  8
0
 62
     0
 10
112.482
 20
79.7927
 30
0.0
 11
112.482
 21
82.8933
 31
0.0
  0
LINE
  8
0
 62
     0
 10
112.482
 20
82.8933
 30
0.0
 11
111.683
 21
82.8933
 31
0.0
  0
LINE
  8
0
 62
     0
 10
111.683
 20
82.8933
 30
0.0
 11
111.683
 21
88.6919
 31
0.0
  0
LINE
  8
0
 62
     0
 10
111.683
 20
88.6919
 30
0.0
 11
112.482
 21
88.6919
 31
0.0
  0
LINE
  8
0
 62
     0
 10
112.482
 20
88.6919
 30
0.0
 11
112.482
 21
91.7924
 31
0.0
  0
LINE
  8
0
 62
     0
 10
112.482
 20
91.7924
 30
0.0
 11
111.683
 21
91.7924
 31
0.0
  0
LINE
  8
0
 62
     0
 10
111.683
 20
91.7924
 30
0.0
 11
111.683
 21
92.7929
 31
0.0
  0
LINE
  8
0
 62
     0
 10
111.683
 20
92.7929
 30
0.0
 11
97.6824
 21
92.7929
 31
0.0
  0
LINE
  8
0
 62
     0
 10
116.732
 20
92.7929
 30
0.0
 11
116.732
 21
91.7924
 31
0.0
  0
LINE
  8
0
 62
     0
 10
116.732
 20
91.7924
 30
0.0
 11
115.933
 21
91.7924
 31
0.0
  0
LINE
  8
0
 62
     0
 10
115.933
 20
91.7924
 30
0.0
 11
115.933
 21
88.6919
 31
0.0
  0
LINE
  8
0
 62
     0
 10
115.933
 20
88.6919
 30
0.0
 11
116.732
 21
88.6919
 31
0.0
  0
LINE
  8
0
 62
     0
 10
116.732
 20
88.6919
 30
0.0
 11
116.732
 21
82.8933
 31
0.0
  0
LINE
  8
0
 62
     0
 10
116.732
 20
82.8933
 30
0.0
 11
115.933
 21
82.8933
 31
0.0
  0
LINE
  8
0
 62
     0
 10
115.933
 20
82.8933
 30
0.0
 11
115.933
 21
79.7927
 31
0.0
  0
LINE
  8
0
 62
     0
 10
115.933
 20
79.7927
 30
0.0
 11
116.732
 21
79.7927
 31
0.0
  0
LINE
  8
0
 62
     0
 10
116.732
 20
79.7927
 30
0.0
 11
116.732
 21
78.7922
 31
0.0
  0
LINE
  8
0
 62
     0
 10
116.732
 20
78.7922
 30
0.0
 11
130.733
 21
78.7922
 31
0.0
  0
LINE
  8
0
 62
     0
 10
130.733
 20
78.7922
 30
0.0
 11
130.733
 21
79.7927
 31
0.0
  0
LINE
  8
0
 62
     0
 10
130.733
 20
79.7927
 30
0.0
 11
131.532
 21
79.7927
 31
0.0
  0
LINE
  8
0
 62
     0
 10
131.532
 20
79.7927
 30
0.0
 11
131.532
 21
82.8933
 31
0.0
  0
LINE
  8
0
 62
     0
 10
131.532
 20
82.8933
 30
0.0
 11
130.733
 21
82.8933
 31
0.0
  0
LINE
  8
0
 62
     0
 10
130.733
 20
82.8933
 30
0.0
 11
130.733
 21
88.6919
 31
0.0
  0
LINE
  8
0
 62
     0
 10
130.733
 20
88.6919
 30
0.0
 11
131.532
 21
88.6919
 31
0.0
  0
LINE
  8
0
 62
     0
 10
131.532
 20
88.6919
 30
0.0
 11
131.532
 21
91.7924
 31
0.0
  0
LINE
  8
0
 62
     0
 10
131.532
 20
91.7924
 30
0.0
 11
130.733
 21
91.7924
 31
0.0
  0
LINE
  8
0
 62
     0
 10
130.733
 20
91.7924
 30
0.0
 11
130.733
 21
92.7929
 31
0.0
  0
LINE
  8
0
 62
     0
 10
130.733
 20
92.7929
 30
0.0
 11
116.732
 21
92.7929
 31
0.0
  0
LINE
  8
0
 62
     0
 10
135.782
 20
92.7929
 30
0.0
 11
135.782
 21
91.7924
 31
0.0
  0
LINE
  8
0
 62
     0
 10
135.782
 20
91.7924
 30
0.0
 11
134.983
 21
91.7924
 31
0.0
  0
LINE
  8
0
 62
     0
 10
134.983
 20
91.7924
 30
0.0
 11
134.983
 21
88.6919
 31
0.0
  0
LINE
  8
0
 62
     0
 10
134.983
 20
88.6919
 30
0.0
 11
135.782
 21
88.6919
 31
0.0
  0
LINE
  8
0
 62
     0
 10
135.782
 20
88.6919
 30
0.0
 11
135.782
 21
82.8933
 31
0.0
  0
LINE
  8
0
 62
     0
 10
135.782
 20
82.8933
 30
0.0
 11
134.983
 21
82.8933
 31
0.0
  0
LINE
  8
0
 62
     0
 10
134.983
 20
82.8933
 30
0.0
 11
134.983
 21
79.7927
 31
0.0
  0
LINE
  8
0
 62
     0
 10
134.983
 20
79.7927
 30
0.0
 11
135.782
 21
79.7927
 31
0.0
  0
LINE
  8
0
 62
     0
 10
135.782
 20
79.7927
 30
0.0
 11
135.782
 21
78.7922
 31
0.0
  0
LINE
  8
0
 62
     0
 10
135.782
 20
78.7922
 30
0.0
 11
149.783
 21
78.7922
 31
0.0
  0
LINE
  8
0
 62
     0
 10
149.783
 20
78.7922
 30
0.0
 11
149.783
 21
79.7927
 31
0.0
  0
LINE
  8
0
 62
     0
 10
149.783
 20
79.7927
 30
0.0
 11
150.581
 21
79.7927
 31
0.0
  0
LINE
  8
0
 62
     0
 10
150.581
 20
79.7927
 30
0.0
 11
150.581
 21
82.8933
 31
0.0
  0
LINE
  8
0
 62
     0
 10
150.581
 20
82.8933
 30
0.0
 11
149.783
 21
82.8933
 31
0.0
  0
LINE
  8
0
 62
     0
 10
149.783
 20
82.8933
 30
0.0
 11
149.783
 21
88.6919
 31
0.0
  0
LINE
  8
0
 62
     0
 10
149.783
 20
88.6919
 30
0.0
 11
150.581
 21
88.6919
 31
0.0
  0
LINE
  8
0
 62
     0
 10
150.581
 20
88.6919
 30
0.0
 11
150.581
 21
91.7924
 31
0.0
  0
LINE
  8
0
 62
     0
 10
150.581
 20
91.7924
 30
0.0
 11
149.783
 21
91.7924
 31
0.0
  0
LINE
  8
0
 62
     0
 10
149.783
 20
91.7924
 30
0.0
 11
149.783
 21
92.7929
 31
0.0
  0
LINE
  8
0
 62
     0
 10
149.783
 20
92.7929
 30
0.0
 11
135.782
 21
92.7929
 31
0.0
  0
LINE
  8
0
 62
     0
 10
154.831
 20
92.7929
 30
0.0
 11
154.831
 21
91.7924
 31
0.0
  0
LINE
  8
0
 62
     0
 10
154.831
 20
91.7924
 30
0.0
 11
154.033
 21
91.7924
 31
0.0
  0
LINE
  8
0
 62
     0
 10
154.033
 20
91.7924
 30
0.0
 11
154.033
 21
88.6919
 31
0.0
  0
LINE
  8
0
 62
     0
 10
154.033
 20
88.6919
 30
0.0
 11
154.831
 21
88.6919
 31
0.0
  0
LINE
  8
0
 62
     0
 10
154.831
 20
88.6919
 30
0.0
 11
154.831
 21
82.8933
 31
0.0
  0
LINE
  8
0
 62
     0
 10
154.831
 20
82.8933
 30
0.0
 11
154.033
 21
82.8933
 31
0.0
  0
LINE
  8
0
 62
     0
 10
154.033
 20
82.8933
 30
0.0
 11
154.033
 21
79.7927
 31
0.0
  0
LINE
  8
0
 62
     0
 10
154.033
 20
79.7927
 30
0.0
 11
154.831
 21
79.7927
 31
0.0
  0
LINE
  8
0
 62
     0
 10
154.831
 20
79.7927
 30
0.0
 11
154.831
 21
78.7922
 31
0.0
  0
LINE
  8
0
 62
     0
 10
154.831
 20
78.7922
 30
0.0
 11
168.832
 21
78.7922
 31
0.0
  0
LINE
  8
0
 62
     0
 10
168.832
 20
78.7922
 30
0.0
 11
168.832
 21
79.7927
 31
0.0
  0
LINE
  8
0
 62
     0
 10
168.832
 20
79.7927
 30
0.0
 11
169.632
 21
79.7927
 31
0.0
  0
LINE
  8
0
 62
     0
 10
169.632
 20
79.7927
 30
0.0
 11
169.632
 21
82.8933
 31
0.0
  0
LINE
  8
0
 62
     0
 10
169.632
 20
82.8933
 30
0.0
 11
168.832
 21
82.8933
 31
0.0
  0
LINE
  8
0
 62
     0
 10
168.832
 20
82.8933
 30
0.0
 11
168.832
 21
88.6919
 31
0.0
  0
LINE
  8
0
 62
     0
 10
168.832
 20
88.6919
 30
0.0
 11
169.632
 21
88.6919
 31
0.0
  0
LINE
  8
0
 62
     0
 10
169.632
 20
88.6919
 30
0.0
 11
169.632
 21
91.7924
 31
0.0
  0
LINE
  8
0
 62
     0
 10
169.632
 20
91.7924
 30
0.0
 11
168.832
 21
91.7924
 31
0.0
  0
LINE
  8
0
 62
     0
 10
168.832
 20
91.7924
 30
0.0
 11
168.832
 21
92.7929
 31
0.0
  0
LINE
  8
0
 62
     0
 10
168.832
 20
92.7929
 30
0.0
 11
154.831
 21
92.7929
 31
0.0
  0
LINE
  8
0
 62
     0
 10
173.882
 20
92.7929
 30
0.0
 11
173.882
 21
91.7924
 31
0.0
  0
LINE
  8
0
 62
     0
 10
173.882
 20
91.7924
 30
0.0
 11
173.082
 21
91.7924
 31
0.0
  0
LINE
  8
0
 62
     0
 10
173.082
 20
91.7924
 30
0.0
 11
173.082
 21
88.6919
 31
0.0
  0
LINE
  8
0
 62
     0
 10
173.082
 20
88.6919
 30
0.0
 11
173.882
 21
88.6919
 31
0.0
  0
LINE
  8
0
 62
     0
 10
173.882
 20
88.6919
 30
0.0
 11
173.882
 21
82.8933
 31
0.0
  0
LINE
  8
0
 62
     0
 10
173.882
 20
82.8933
 30
0.0
 11
173.082
 21
82.8933
 31
0.0
  0
LINE
  8
0
 62
     0
 10
173.082
 20
82.8933
 30
0.0
 11
173.082
 21
79.7927
 31
0.0
  0
LINE
  8
0
 62
     0
 10
173.082
 20
79.7927
 30
0.0
 11
173.882
 21
79.7927
 31
0.0
  0
LINE
  8
0
 62
     0
 10
173.882
 20
79.7927
 30
0.0
 11
173.882
 21
78.7922
 31
0.0
  0
LINE
  8
0
 62
     0
 10
173.882
 20
78.7922
 30
0.0
 11
187.883
 21
78.7922
 31
0.0
  0
LINE
  8
0
 62
     0
 10
187.883
 20
78.7922
 30
0.0
 11
187.883
 21
79.7927
 31
0.0
  0
LINE
  8
0
 62
     0
 10
187.883
 20
79.7927
 30
0.0
 11
188.681
 21
79.7927
 31
0.0
  0
LINE
  8
0
 62
     0
 10
188.681
 20
79.7927
 30
0.0
 11
188.681
 21
82.8933
 31
0.0
  0
LINE
  8
0
 62
     0
 10
188.681
 20
82.8933
 30
0.0
 11
187.883
 21
82.8933
 31
0.0
  0
LINE
  8
0
 62
     0
 10
187.883
 20
82.8933
 30
0.0
 11
187.883
 21
88.6919
 31
0.0
  0
LINE
  8
0
 62
     0
 10
187.883
 20
88.6919
 30
0.0
 11
188.681
 21
88.6919
 31
0.0
  0
LINE
  8
0
 62
     0
 10
188.681
 20
88.6919
 30
0.0
 11
188.681
 21
91.7924
 31
0.0
  0
LINE
  8
0
 62
     0
 10
188.681
 20
91.7924
 30
0.0
 11
187.883
 21
91.7924
 31
0.0
  0
LINE
  8
0
 62
     0
 10
187.883
 20
91.7924
 30
0.0
 11
187.883
 21
92.7929
 31
0.0
  0
LINE
  8
0
 62
     0
 10
187.883
 20
92.7929
 30
0.0
 11
173.882
 21
92.7929
 31
0.0
  0
LINE
  8
0
 62
     0
 10
192.931
 20
92.7929
 30
0.0
 11
192.931
 21
91.7924
 31
0.0
  0
LINE
  8
0
 62
     0
 10
192.931
 20
91.7924
 30
0.0
 11
192.133
 21
91.7924
 31
0.0
  0
LINE
  8
0
 62
     0
 10
192.133
 20
91.7924
 30
0.0
 11
192.133
 21
88.6919
 31
0.0
  0
LINE
  8
0
 62
     0
 10
192.133
 20
88.6919
 30
0.0
 11
192.931
 21
88.6919
 31
0.0
  0
LINE
  8
0
 62
     0
 10
192.931
 20
88.6919
 30
0.0
 11
192.931
 21
82.8933
 31
0.0
  0
LINE
  8
0
 62
     0
 10
192.931
 20
82.8933
 30
0.0
 11
192.133
 21
82.8933
 31
0.0
  0
LINE
  8
0
 62
     0
 10
192.133
 20
82.8933
 30
0.0
 11
192.133
 21
79.7927
 31
0.0
  0
LINE
  8
0
 62
     0
 10
192.133
 20
79.7927
 30
0.0
 11
192.931
 21
79.7927
 31
0.0
  0
LINE
  8
0
 62
     0
 10
192.931
 20
79.7927
 30
0.0
 11
192.931
 21
78.7922
 31
0.0
  0
LINE
  8
0
 62
     0
 10
192.931
 20
78.7922
 30
0.0
 11
206.932
 21
78.7922
 31
0.0
  0
LINE
  8
0
 62
     0
 10
206.932
 20
78.7922
 30
0.0
 11
206.932
 21
79.7927
 31
0.0
  0
LINE
  8
0
 62
     0
 10
206.932
 20
79.7927
 30
0.0
 11
207.732
 21
79.7927
 31
0.0
  0
LINE
  8
0
 62
     0
 10
207.732
 20
79.7927
 30
0.0
 11
207.732
 21
82.8933
 31
0.0
  0
LINE
  8
0
 62
     0
 10
207.732
 20
82.8933
 30
0.0
 11
206.932
 21
82.8933
 31
0.0
  0
LINE
  8
0
 62
     0
 10
206.932
 20
82.8933
 30
0.0
 11
206.932
 21
88.6919
 31
0.0
  0
LINE
  8
0
 62
     0
 10
206.932
 20
88.6919
 30
0.0
 11
207.732
 21
88.6919
 31
0.0
  0
LINE
  8
0
 62
     0
 10
207.732
 20
88.6919
 30
0.0
 11
207.732
 21
91.7924
 31
0.0
  0
LINE
  8
0
 62
     0
 10
207.732
 20
91.7924
 30
0.0
 11
206.932
 21
91.7924
 31
0.0
  0
LINE
  8
0
 62
     0
 10
206.932
 20
91.7924
 30
0.0
 11
206.932
 21
92.7929
 31
0.0
  0
LINE
  8
0
 62
     0
 10
206.932
 20
92.7929
 30
0.0
 11
192.931
 21
92.7929
 31
0.0
  0
LINE
  8
0
 62
     0
 10
211.982
 20
92.7929
 30
0.0
 11
211.982
 21
91.7924
 31
0.0
  0
LINE
  8
0
 62
     0
 10
211.982
 20
91.7924
 30
0.0
 11
211.182
 21
91.7924
 31
0.0
  0
LINE
  8
0
 62
     0
 10
211.182
 20
91.7924
 30
0.0
 11
211.182
 21
88.6919
 31
0.0
  0
LINE
  8
0
 62
     0
 10
211.182
 20
88.6919
 30
0.0
 11
211.982
 21
88.6919
 31
0.0
  0
LINE
  8
0
 62
     0
 10
211.982
 20
88.6919
 30
0.0
 11
211.982
 21
82.8933
 31
0.0
  0
LINE
  8
0
 62
     0
 10
211.982
 20
82.8933
 30
0.0
 11
211.182
 21
82.8933
 31
0.0
  0
LINE
  8
0
 62
     0
 10
211.182
 20
82.8933
 30
0.0
 11
211.182
 21
79.7927
 31
0.0
  0
LINE
  8
0
 62
     0
 10
211.182
 20
79.7927
 30
0.0
 11
211.982
 21
79.7927
 31
0.0
  0
LINE
  8
0
 62
     0
 10
211.982
 20
79.7927
 30
0.0
 11
211.982
 21
78.7922
 31
0.0
  0
LINE
  8
0
 62
     0
 10
211.982
 20
78.7922
 30
0.0
 11
225.983
 21
78.7922
 31
0.0
  0
LINE
  8
0
 62
     0
 10
225.983
 20
78.7922
 30
0.0
 11
225.983
 21
79.7927
 31
0.0
  0
LINE
  8
0
 62
     0
 10
225.983
 20
79.7927
 30
0.0
 11
226.782
 21
79.7927
 31
0.0
  0
LINE
  8
0
 62
     0
 10
226.782
 20
79.7927
 30
0.0
 11
226.782
 21
82.8933
 31
0.0
  0
LINE
  8
0
 62
     0
 10
226.782
 20
82.8933
 30
0.0
 11
225.983
 21
82.8933
 31
0.0
  0
LINE
  8
0
 62
     0
 10
225.983
 20
82.8933
 30
0.0
 11
225.983
 21
88.6919
 31
0.0
  0
LINE
  8
0
 62
     0
 10
225.983
 20
88.6919
 30
0.0
 11
226.782
 21
88.6919
 31
0.0
  0
LINE
  8
0
 62
     0
 10
226.782
 20
88.6919
 30
0.0
 11
226.782
 21
91.7924
 31
0.0
  0
LINE
  8
0
 62
     0
 10
226.782
 20
91.7924
 30
0.0
 11
225.983
 21
91.7924
 31
0.0
  0
LINE
  8
0
 62
     0
 10
225.983
 20
91.7924
 30
0.0
 11
225.983
 21
92.7929
 31
0.0
  0
LINE
  8
0
 62
     0
 10
225.983
 20
92.7929
 30
0.0
 11
211.982
 21
92.7929
 31
0.0
  0
LINE
  8
0
 62
     0
 10
231.032
 20
92.7929
 30
0.0
 11
231.032
 21
91.7924
 31
0.0
  0
LINE
  8
0
 62
     0
 10
231.032
 20
91.7924
 30
0.0
 11
230.233
 21
91.7924
 31
0.0
  0
LINE
  8
0
 62
     0
 10
230.233
 20
91.7924
 30
0.0
 11
230.233
 21
88.6919
 31
0.0
  0
LINE
  8
0
 62
     0
 10
230.233
 20
88.6919
 30
0.0
 11
231.032
 21
88.6919
 31
0.0
  0
LINE
  8
0
 62
     0
 10
231.032
 20
88.6919
 30
0.0
 11
231.032
 21
82.8933
 31
0.0
  0
LINE
  8
0
 62
     0
 10
231.032
 20
82.8933
 30
0.0
 11
230.233
 21
82.8933
 31
0.0
  0
LINE
  8
0
 62
     0
 10
230.233
 20
82.8933
 30
0.0
 11
230.233
 21
79.7927
 31
0.0
  0
LINE
  8
0
 62
     0
 10
230.233
 20
79.7927
 30
0.0
 11
231.032
 21
79.7927
 31
0.0
  0
LINE
  8
0
 62
     0
 10
231.032
 20
79.7927
 30
0.0
 11
231.032
 21
78.7922
 31
0.0
  0
LINE
  8
0
 62
     0
 10
231.032
 20
78.7922
 30
0.0
 11
245.033
 21
78.7922
 31
0.0
  0
LINE
  8
0
 62
     0
 10
245.033
 20
78.7922
 30
0.0
 11
245.033
 21
79.7927
 31
0.0
  0
LINE
  8
0
 62
     0
 10
245.033
 20
79.7927
 30
0.0
 11
245.831
 21
79.7927
 31
0.0
  0
LINE
  8
0
 62
     0
 10
245.831
 20
79.7927
 30
0.0
 11
245.831
 21
82.8933
 31
0.0
  0
LINE
  8
0
 62
     0
 10
245.831
 20
82.8933
 30
0.0
 11
245.033
 21
82.8933
 31
0.0
  0
LINE
  8
0
 62
     0
 10
245.033
 20
82.8933
 30
0.0
 11
245.033
 21
88.6919
 31
0.0
  0
LINE
  8
0
 62
     0
 10
245.033
 20
88.6919
 30
0.0
 11
245.831
 21
88.6919
 31
0.0
  0
LINE
  8
0
 62
     0
 10
245.831
 20
88.6919
 30
0.0
 11
245.831
 21
91.7924
 31
0.0
  0
LINE
  8
0
 62
     0
 10
245.831
 20
91.7924
 30
0.0
 11
245.033
 21
91.7924
 31
0.0
  0
LINE
  8
0
 62
     0
 10
245.033
 20
91.7924
 30
0.0
 11
245.033
 21
92.7929
 31
0.0
  0
LINE
  8
0
 62
     0
 10
245.033
 20
92.7929
 30
0.0
 11
231.032
 21
92.7929
 31
0.0
  0
ENDSEC
  0
EOF
